<svg xmlns="http://www.w3.org/2000/svg" viewBox="0 0 554.71 589.91"><defs><style>.a{fill:#5814c8;}</style></defs><path class="a" d="M634,629l-2.78,1.71-1.6,2.94-1.6,3c0,1.15,0,2.29,0,3.4h12V627.29h-3.2C635.86,627.87,634.93,628.43,634,629Z" transform="translate(-85.29 -50.09)"/><path class="a" d="M98.75,595.29a7.71,7.71,0,0,0,2.43-1.42C130.79,568.13,158,539.8,183.68,510c-8.26-39.51-18.47-78.49-32-116.53a8,8,0,0,0-1.43-2.51c-.09-6.82-9.63-11.27-13.43-3.89Q112.33,434.63,90,483.27q-3.51,54-4.67,108.24C85.11,599.92,95.47,601.14,98.75,595.29ZM115.67,490.6q12.31-27,25.27-53.64c6.77,21.72,12.6,43.71,17.72,65.89-14.86,16.48-30.24,32.42-46.32,47.64Q113.66,520.52,115.67,490.6Z" transform="translate(-85.29 -50.09)"/><path class="a" d="M192.29,313.48a7.32,7.32,0,0,0,2.77,0C232.8,307,269.65,296.9,306,284.75,317.37,246.15,326.86,207,333,166.82a8.47,8.47,0,0,0-.05-2.94c3.13-5.95-3-14.88-9.81-10.51q-43.56,28.19-85.8,58.43Q208.91,256.7,182.41,303C178.3,310.24,186.7,316.8,192.29,313.48Zm63.87-81.68q23.35-16.81,47.11-33c-4.35,22.41-9.64,44.56-15.63,66.49-20.62,6.37-41.44,12-62.52,16.62Q240.36,256.64,256.16,231.8Z" transform="translate(-85.29 -50.09)"/><path class="a" d="M405.8,119.16a7.55,7.55,0,0,0,2.36,1.52c35.77,14.4,72.42,25.25,109.57,34,28-27.36,54.68-56.25,78.88-87.74A8.5,8.5,0,0,0,598,64.4c5.5-3.49,4.36-14.51-3.56-14.31q-51,1.24-101.77,5-45.74,23.76-90.48,49.81C395.2,108.91,399.39,119.06,405.8,119.16Zm93.71-36.77q28.13-2.15,56.31-3.54C541.51,96,526.52,112.31,511,128.12c-20.86-5.45-41.53-11.65-62-18.85Q474.14,95.5,499.51,82.39Z" transform="translate(-85.29 -50.09)"/><path class="a" d="M589.12,438.06a40.14,40.14,0,0,1-1.25,14.08c-4.52,17.35-17.4,25.93-31.15,34.45s-27.26,16-43.64,11.47A34.55,34.55,0,0,1,501,492.17,39.06,39.06,0,0,1,506.53,505c4.24,17.42-2.88,31.71-10.78,46.4s-16.09,28.34-32.4,33.14a33.6,33.6,0,0,1-13.25,1.33A35.61,35.61,0,0,1,461,594.09c11.87,12.83,12.42,29,12.47,45.91h14.47c-.06-16.68-1.5-32.43-8.88-45.87,12.7-7.71,21.36-20.58,29.26-35s14-28.89,13.88-44.45c14.62.08,28.17-6.46,41.8-14.76s25.66-17.6,32.91-31.11c12.63,7.84,27.44,9.38,43.14,9.44V462.86c-15.93-.06-31.12-.65-43.18-13.27A37.65,37.65,0,0,1,589.12,438.06Z" transform="translate(-85.29 -50.09)"/><path class="a" d="M527.13,192c-52.89-12-104.53-28.75-153.31-55.59a7,7,0,0,0-7.15.09,7.94,7.94,0,0,0-3.66,6.54c-2.53,58.36-14.69,114.31-31.38,169-51.43,17.75-104,30.68-158.91,33.38a7.32,7.32,0,0,0-6.15,3.88,8.29,8.29,0,0,0-.09,7.6c25.24,51.89,41,106.81,52.28,163.05-36.2,42.72-75.68,81.89-121.93,113.41a8,8,0,0,0-3.5,6.62h43.28c17.38-9.57,31.62-23.74,48.45-35,13.11-8.75,27.49-14.42,43.17-10.44,19.17,4.87,35.24,23.81,35.24,45.41h14.46c0-36-31.59-64.4-64.51-62a56.79,56.79,0,0,0-7.95,1.2c24.23-24.6,49.67-50.59,85.22-32.88C325.17,563.5,333,603.48,333,640h14.46c.08-33.68-7.16-68.73-29.11-91.65,29.78-8.18,52.54-34.68,68.31-63.91s26.11-63.33,17.88-94.85c29.63,8.75,61.8-2.1,89.2-19,27.47-16.77,52.39-41,60.08-72.64,21.55,23.34,54.5,31,86.19,31V313.51c-34.36,0-71.94-8.32-88.09-45-16.65-37.81,7.78-64.86,30.92-90.63a67.85,67.85,0,0,0-1.13,8.46c-2.26,35,24.39,68.6,58.3,68.61V239.58c-20.32,0-38.13-17.1-42.71-37.49-3.74-16.67,1.59-32,9.82-45.9,10.55-17.9,23.88-33,32.89-51.52v-46a7.31,7.31,0,0,0-6.24,3.71C604.13,111.54,567.3,153.53,527.13,192ZM384,238.5c.73-21.12,5.16-41.32,4.27-62.12,16.48,11.22,35.15,17.25,52.71,27.14,13.68,7.7,25.48,18.11,30.08,34.53,5.62,20.1-1.77,44.37-19.36,55.17s-41.06,5.48-54.61-9.75C386.05,271,383.48,255,384,238.5Zm-180,133.83c19.56.95,38.55-3.75,58.41-4.53,15.47-.6,30.58,2.13,42.29,13.92,14.31,14.41,19.33,39.36,9.17,58.06s-33,26.58-51.88,20.6c-15.45-4.88-25.23-17.44-32.48-32C220.27,409.72,214.6,389.87,204.05,372.33ZM374.13,476.75C357,508.4,331.37,538.86,293.44,535.4c-39.11-3.57-48.92-39.6-58.34-73.79a62.49,62.49,0,0,0,6.32,5.26c27.38,19.59,68.07,11.84,85-19.39s2.91-72.57-26.73-88a60.11,60.11,0,0,0-7.45-3.2c32.56-8.42,66.8-17.4,89.26,16.84C403.32,406.34,391.3,445.12,374.13,476.75ZM486.5,357.25c-29.75,18.27-66.22,31.05-97.44,7.88-32.2-23.89-23.76-60.3-15.84-94.93a68.35,68.35,0,0,0,3,7.93c14.5,31.52,53.38,46.44,82.75,28.41s36.64-61.3,18.23-90.41a66.39,66.39,0,0,0-4.95-6.73c32.15,10,66,20.45,69.38,62C544.89,311.79,516.24,339,486.5,357.25Z" transform="translate(-85.29 -50.09)"/><path class="a" d="M524.63,427.49c-18.74,11.49-40.12,19.49-61.89,24-4.25,23.15-11.77,45.88-22.57,65.8A212.65,212.65,0,0,1,397.86,571c7.2,22.31,11.38,46,11.39,69h14.47a239.44,239.44,0,0,0-6.35-53.68c7.94-2.52,15.67-4.06,23-3.19-6.78-3.16-12.74-8.61-18.44-15A224.42,224.42,0,0,0,452.7,525a233.73,233.73,0,0,0,19.73-49.86c8.07,2,15.48,4.82,21.45,9.48-4.39-6.34-7-14.23-8.91-22.8a205.69,205.69,0,0,0,46.89-21,214,214,0,0,0,40.54-32.69c6,6.05,11.14,12.4,14.12,19.61-.82-7.82.63-16,3-24.49A200,200,0,0,0,640,410V394.61c-21.63,0-43.91-4.45-64.88-12.11C560.55,400.28,543.35,416,524.63,427.49Z" transform="translate(-85.29 -50.09)"/><path class="a" d="M623.36,609.34q-3.76,2.31-7.69,4.79-2.34,4.17-4.5,8.17c-1.45,2.67-2.93,5.42-4.41,8.24,0,3.23,0,6.39,0,9.46H628c0-1.11,0-2.25,0-3.4l1.6-3,1.6-2.94L634,629c.9-.56,1.83-1.12,2.77-1.69H640V604.6q-4.35,0-8.91.06Q627.12,607,623.36,609.34Z" transform="translate(-85.29 -50.09)"/><path class="a" d="M596,559q-10.18,6.25-20.08,12.9-6.24,10.51-12.12,21.33t-11.32,21.84q-.46,12.43-.46,24.92h28.43c0-5.62.08-11.26.22-16.88q3.78-7.44,7.76-14.76t8.13-14.5q6.76-4.43,13.65-8.66T624.11,577q7.93-.24,15.89-.24V546.48q-11.76,0-23.44.5Q606.21,552.76,596,559Z" transform="translate(-85.29 -50.09)"/><path class="a" d="M608.18,513.71A185.29,185.29,0,0,1,588,528.18c-2.16,1.35-4.33,2.7-6.5,4s-4.35,2.66-6.53,4a180,180,0,0,1-21.89,11.37,202.08,202.08,0,0,1-10.69,23.28c-1.23,2.31-2.48,4.63-3.73,6.93s-2.52,4.63-3.79,6.92a196.75,196.75,0,0,1-13.61,21.49A208.24,208.24,0,0,1,522.92,632c0,2.66,0,5.33,0,8h14.46c0-10-.08-19.82-.82-29.46,5.17-7.95,9.88-16.45,14.57-25.09s9.24-17.2,13.13-25.94c8.22-4.14,16.3-9,24.42-14s16.09-10,23.57-15.49c9.06.79,18.34.88,27.71.88V515.54c-2.52,0-5,0-7.52,0A174.39,174.39,0,0,1,608.18,513.71Z" transform="translate(-85.29 -50.09)"/></svg>