<?xml version="1.0" encoding="utf-8"?>
<!-- Generator: Adobe Illustrator 24.1.2, SVG Export Plug-In . SVG Version: 6.00 Build 0)  -->
<svg version="1.1" id="Layer_1" xmlns="http://www.w3.org/2000/svg" xmlns:xlink="http://www.w3.org/1999/xlink" x="0px" y="0px"
	 viewBox="0 0 372 394" style="enable-background:new 0 0 372 394;" xml:space="preserve">
<style type="text/css">
	.st0{fill:url(#SVGID_1_);}
	.st1{fill:url(#SVGID_2_);}
	.st2{fill:none;stroke:#FFFFFF;stroke-width:40;stroke-miterlimit:10;}
	.st3{fill:none;stroke:url(#SVGID_3_);stroke-width:32;stroke-miterlimit:10;}
	.st4{fill:none;stroke:url(#SVGID_4_);stroke-width:32;stroke-miterlimit:10;stroke-dasharray:25.2239,25.2239;}
	.st5{fill:none;stroke:url(#SVGID_5_);stroke-width:32;stroke-miterlimit:10;}
	.st6{fill:#FFFFFF;}
	.st7{fill:none;stroke:#FFFFFF;stroke-width:6;stroke-miterlimit:10;}
</style>
<linearGradient id="SVGID_1_" gradientUnits="userSpaceOnUse" x1="186" y1="488" x2="186" y2="882" gradientTransform="matrix(1 0 0 1 0 -488)">
	<stop  offset="0.1" style="stop-color:#F2F4FA"/>
	<stop  offset="1" style="stop-color:#FFFFFF"/>
</linearGradient>
<path class="st0" d="M186,132.1c10.2,6.9,21.8,16.1,33.3,27.7c22.5,22.9,32.7,44.2,32.7,54.3v160h-69.5H120v-160
	c0-10.1,10.2-31.4,32.7-54.3C164.2,148.1,175.8,138.9,186,132.1 M186,0C119.1,17,0,111.3,0,214v180h182.5H372V214
	C372,111.3,252.9,17,186,0L186,0z"/>
<linearGradient id="SVGID_2_" gradientUnits="userSpaceOnUse" x1="-139.95" y1="288.1" x2="-139.95" y2="638" gradientTransform="matrix(-1 0 0 1 -21.9 -244)">
	<stop  offset="0.1" style="stop-color:#ECF0F8"/>
	<stop  offset="1" style="stop-color:#FFFFFF"/>
</linearGradient>
<path class="st1" d="M49.7,394V230.6c0-102.4,69.7-169,136.7-186.5v88.5c-10.1,6.9-21.4,15.9-32.7,27.3
	c-22.5,22.9-32.7,44.2-32.7,54.3v160L49.7,394z"/>
<path class="st2" d="M323.4,344.5V215.9c0-75.5-87.6-150.4-136.7-162.9l0,0C137.5,65.5,50,140.4,50,215.9v128.5"/>
<g>
	<g>
		
			<linearGradient id="SVGID_3_" gradientUnits="userSpaceOnUse" x1="323.4" y1="519.3835" x2="323.4" y2="832.4615" gradientTransform="matrix(1 0 0 1 0 -488)">
			<stop  offset="0.1" style="stop-color:#F2F4FA"/>
			<stop  offset="1" style="stop-color:#FFFFFF"/>
		</linearGradient>
		<line class="st3" x1="323.4" y1="344.5" x2="323.4" y2="332"/>
		
			<linearGradient id="SVGID_4_" gradientUnits="userSpaceOnUse" x1="186.7" y1="524.4907" x2="186.7" y2="831.9597" gradientTransform="matrix(1 0 0 1 0 -488)">
			<stop  offset="0.1" style="stop-color:#F2F4FA"/>
			<stop  offset="1" style="stop-color:#FFFFFF"/>
		</linearGradient>
		<path class="st4" d="M323.4,306.7v-90.8c0-75.5-87.6-150.4-136.7-162.9C137.5,65.5,50,140.4,50,215.9v103.4"/>
		
			<linearGradient id="SVGID_5_" gradientUnits="userSpaceOnUse" x1="50" y1="519.3835" x2="50" y2="832.4615" gradientTransform="matrix(1 0 0 1 0 -488)">
			<stop  offset="0.1" style="stop-color:#F2F4FA"/>
			<stop  offset="1" style="stop-color:#FFFFFF"/>
		</linearGradient>
		<line class="st5" x1="50" y1="332" x2="50" y2="344.5"/>
	</g>
</g>
<g>
	<path class="st6" d="M173.2,116.8c-1.7-6.4-8.6-9.3-14.8-8.4c-14.2,2.4-12.9,15.7-11.9,27.6c-2.7-4.4-7.5-6.7-12.5-6.3
		c-1.5,0.1-2.7,1-3.4,2.3l-0.5,1.2c-0.6,1.3,0,3.1,1.3,3.7c5.1,2,13,0.1,11.9,8.8c-1,7.6-11.5,12.9-17.8,15.1
		c-7.8,2.8-20.3,2.2-24.2,10.9 M101.4,171.9c6.5-6.9,18.8-5.6,27.3-8.5c6.7-2.4,13.5-6.3,17.5-12.2c2-3,2.9-6.8,2-10.2
		c0.5-6.4,0-12.9,2.5-19c1.2-3.4,4.1-6,7.7-6.7c1.6-0.5,3.3-0.3,4.9,0.3c2.4,3.6,2.3,5.4-0.3,5.6c-1,1.5-3.1,1.4-2.6,3.9
		c0.2,2,2.1,3.6,4.1,3.5c5.7-0.9,9.8-5.8,8.3-11.6L101.4,171.9z"/>
	<path class="st6" d="M103.5,172.3c-0.3,0-0.2,0.3,0,0.3c3,0.4,5.7,1.9,7.3,4.2c2.2,3,6-1.5,2.8-3.3
		C110.5,172,106.9,171.6,103.5,172.3z"/>
	<path class="st6" d="M111.3,169C111.3,169,111.2,169.2,111.3,169c2.3,0.6,4.5,1.4,6.5,2.6c1.6,0.9,2.7,2.7,4.6,2
		c0.6-0.2,0.9-0.8,0.9-1.4v-0.5c-0.1-0.8-0.4-1.2-1-1.6C118.9,169,115,168.6,111.3,169z"/>
	<path class="st6" d="M129.7,165.6c-1.1,0.5-2.2,1-3.5,1.1c-1.1,0.2-2.3,0.5-3.5,0.6l-0.1,0.1c0,0,0,0,0.1,0.1
		c1.2,0.8,2.5,1.2,3.8,1.3c1.4,0,2.9-0.1,4.4-0.5C133.2,167.9,131.7,164.6,129.7,165.6z"/>
	<path class="st6" d="M105.7,159.3c0.3-1.4-1.7-3-3-1.8c-1.4,1.7-2.2,3.5-2.6,5.6c-0.6,2.1-0.7,4.1-0.5,6.4c0,0.3,0.2,0.4,0.4,0.3
		c0,0,0.3,0,0.2-0.3c0.9-1.9,1.7-3.5,2.7-5.2C104.1,162.9,105.1,161.2,105.7,159.3z"/>
	<path class="st6" d="M108.3,163.7c1.4-1.7,3-3.3,4.8-4.6c1.6-1,3.2-1.6,3.5-3.6c0.2-0.8-0.4-1.7-1.3-1.8c-2.4-0.2-3.4,1.6-4.5,3.5
		c-1.2,2-2.1,4.1-2.8,6.4C107.9,163.6,108.1,163.7,108.3,163.7C108.1,163.7,108.2,163.8,108.3,163.7z"/>
	<path class="st6" d="M116.2,161.3c2.1-1.1,4-2.3,6.1-3.3c1.9-0.5,3.6-1.5,5-2.6c0.7-0.8,0.6-1.8-0.2-2.5c-0.4-0.3-0.9-0.6-1.4-0.5
		c-2.1,0.6-3.9,1.9-5.4,3.7C118.7,157.4,117.2,159.2,116.2,161.3L116.2,161.3z"/>
	<path class="st6" d="M130.6,156.1c3.8-0.8,6.7-3.8,7.4-7.4c0.5-2.8-4.4-3.2-4.1-0.2C134.4,151.6,133.2,154.5,130.6,156.1
		L130.6,156.1z"/>
</g>
<g>
	<path class="st6" d="M272.1,171.7c-3.8-8.7-16.4-8.1-24.2-10.9c-6.3-2.2-16.8-7.5-17.8-15.1c-1.2-8.6,6.7-6.8,11.9-8.8
		c1.3-0.6,2-2.4,1.3-3.7l-0.5-1.2c-0.6-1.3-1.8-2.2-3.4-2.3c-5.1-0.4-9.9,1.9-12.5,6.3c1-11.9,2.3-25.2-11.9-27.6
		c-6.2-0.9-13.1,2-14.8,8.4 M200.5,117.1c-1.5,5.7,2.6,10.7,8.3,11.6c2,0.2,4-1.4,4.1-3.5c0.5-2.5-1.6-2.4-2.6-3.9
		c-2.5-0.2-2.6-2-0.3-5.6c1.6-0.6,3.3-0.9,4.9-0.3c3.6,0.7,6.5,3.2,7.7,6.7c2.5,6.1,2.1,12.5,2.5,19c-0.8,3.5,0,7.3,2,10.2
		c4.1,6,10.9,9.9,17.5,12.2c8.5,2.9,20.8,1.6,27.3,8.5L200.5,117.1z"/>
	<path class="st6" d="M259.9,173.4c-3.2,1.8,0.6,6.3,2.8,3.3c1.6-2.3,4.3-3.8,7.3-4.2c0.3,0,0.3-0.2,0-0.3
		C266.6,171.6,263,172,259.9,173.4z"/>
	<path class="st6" d="M251.2,170.2c-0.7,0.3-1,0.8-1,1.6v0.5c0,0.5,0.3,1.2,0.9,1.4c2,0.7,3-1.1,4.6-2c2-1.2,4.1-2.1,6.5-2.6
		c0.1,0.1,0,0,0,0C258.4,168.6,254.6,169,251.2,170.2z"/>
	<path class="st6" d="M242.5,168.3c1.5,0.4,3,0.5,4.4,0.5c1.3-0.1,2.6-0.5,3.8-1.3c0.1-0.1,0.1-0.1,0.1-0.1l-0.1-0.1
		c-1.3-0.1-2.4-0.3-3.5-0.6c-1.3-0.1-2.4-0.6-3.5-1.1C241.7,164.6,240.3,167.9,242.5,168.3z"/>
	<path class="st6" d="M270.4,164.4c1,1.7,1.9,3.4,2.7,5.2c0,0.3,0.2,0.3,0.2,0.3c0.3,0,0.4-0.1,0.4-0.3c0.2-2.3,0.1-4.3-0.5-6.4
		c-0.3-2.1-1.2-3.9-2.6-5.6c-1.3-1.3-3.2,0.4-3,1.8C268.4,161.2,269.4,162.9,270.4,164.4z"/>
	<path class="st6" d="M265.1,163.7c0.3,0,0.4-0.1,0.3-0.2c-0.7-2.2-1.5-4.3-2.8-6.4c-1.1-1.9-2.1-3.6-4.5-3.5c-0.9,0-1.5,1-1.3,1.8
		c0.3,2.1,1.9,2.6,3.5,3.6C262.1,160.3,263.7,162,265.1,163.7C265.2,163.8,265.4,163.7,265.1,163.7z"/>
	<path class="st6" d="M257.3,161.3c-1.1-2.1-2.6-3.9-4-5.3c-1.5-1.8-3.3-3.1-5.4-3.7c-0.5,0-1,0.2-1.4,0.5c-0.8,0.7-0.9,1.7-0.2,2.5
		c1.4,1.1,3.1,2.1,5,2.6C253.3,159.1,255.2,160.3,257.3,161.3L257.3,161.3z"/>
	<path class="st6" d="M242.8,156.1c-2.5-1.6-3.8-4.5-3.3-7.6c0.3-3-4.6-2.7-4.1,0.2C236.1,152.3,239.1,155.3,242.8,156.1
		L242.8,156.1z"/>
</g>
<path class="st7" d="M361.1,379.7V219.2c0-94.2-111.8-187.7-174.4-203.3l0,0c-62.8,15.5-174.4,109-174.4,203.3v160.4"/>
<g>
	<path class="st6" d="M187.8,96.1c1.1-1,2.5-1.7,3.8-2.5s2.1-1.7,3.4-2.3c1.1-0.7,1.4-2.1,0.7-3.1c-0.3-0.1-0.3-0.3-0.4-0.4
		c-0.8-0.8-2.3-0.8-3.1,0c-0.1,0.1-0.3,0.3-0.4,0.4c-0.6,1.4-1.4,2.7-2.1,4S188.4,94.9,187.8,96.1C187.7,96.1,187.7,96.3,187.8,96.1
		z"/>
	<path class="st6" d="M185.8,95.6C185.8,95.6,186,95.6,185.8,95.6c0.7-2.8,1.6-5.7,2.5-8.5c1.1-3.4-5.4-3.8-4.4,0
		C184.8,89.9,185.4,92.7,185.8,95.6z"/>
	<path class="st6" d="M177.5,91c1.1,0.7,2.3,1.7,3.4,2.5c1.1,0.8,2.3,1.7,3.3,2.5c0,0,0.1,0,0.1-0.1c-0.7-1.3-1.1-2.5-1.7-3.8
		s-1.3-2.4-1.8-3.7c-0.3-1.1-1.6-1.8-2.8-1.6c-1.1,0.3-1.8,1.6-1.6,2.8C176.6,90.2,176.9,90.8,177.5,91z"/>
	<path class="st6" d="M174.4,98.3c3-0.3,5.9-0.4,8.9-0.4v-0.1c-2.5-1.1-5.2-2.4-7.6-3.7C172.1,92,171,98.5,174.4,98.3z"/>
	<path class="st6" d="M179.3,100.7c-1.4,0.4-2.8,0.8-4.2,1.1c-3.5,0.6-0.6,6.7,2.1,3.8c1-1,2.1-2,3.3-3s2.1-2,3.3-3v-0.1
		C182.1,100,180.7,100.2,179.3,100.7z"/>
	<path class="st6" d="M184,109.2c0.1-2.8,0.6-5.7,1.1-8.3 M185,100.8c-1.6,2.4-3.1,4.7-5,6.8c-2.7,3.3,3.5,5.7,3.8,1.6L185,100.8z"
		/>
	<path class="st6" d="M191.8,108.2c-1.8-2.3-3.4-4.8-4.8-7.4h-0.1c0.4,2.8,0.6,5.7,0.7,8.5C187.5,113.4,193.8,111.1,191.8,108.2z"/>
	<path class="st6" d="M196.6,102.2c-1.4-0.3-2.8-0.8-4.1-1.3c-1.3-0.4-2.8-0.8-4.1-1.3c0,0-0.1,0,0,0.1c1.1,1,2,2.1,3.1,3.1
		s2.1,2,3.1,3.1C196.9,108.7,200.4,103.1,196.6,102.2z"/>
	<path class="st6" d="M196.4,94.4c-2.5,1.3-5.1,2.3-7.8,3.3v0.1c2.8,0.1,5.5,0.4,8.3,0.8C201.1,99.3,200.1,92.7,196.4,94.4z"/>
	<path class="st6" d="M185.3,96.7H185c-0.8,0.3-1.3,1.1-1,2c0.1,0.4,0.6,0.8,1,1h0.3c0.8,0.3,1.7-0.3,2-1.1c0.3-0.8-0.3-1.7-1.1-2
		C185.8,96.6,185.5,96.6,185.3,96.7L185.3,96.7z"/>
</g>
</svg>
