<svg xmlns="http://www.w3.org/2000/svg" viewBox="0 0 1475.4 791.93"><defs><style>.a{fill:#00112b;}</style></defs><path class="a" d="M311.24,757s-37.63-11.9-67.5-8.39c-47.42,5.56-51.79,35-51.79,35s19,11.81,59.82,7.32c47.8-5.26,59.47-33.93,59.47-33.93Z" transform="translate(0 0.01)"/><path class="a" d="M247.15,713s-31.72-15-61.79-14.82c-52.05.38-55.18,28-55.18,28s18.85,13.59,60.54,13c48.08-.64,56.43-26.25,56.43-26.25Z" transform="translate(0 0.01)"/><path class="a" d="M199.74,666.79s-30.16-26.43-59.33-33.74c-50.49-12.65-67.22,16.73-67.22,16.73S92,672.3,132.47,682.19c46.71,11.41,67.27-15.4,67.27-15.4Z" transform="translate(0 0.01)"/><path class="a" d="M146.2,595.58s-25.79-27.18-61.09-38C39,543.39,17.38,571.18,16.74,571.88c0,0,18.88,23.76,58.27,34.18C127.84,620,146.2,595.58,146.2,595.58Z" transform="translate(0 0.01)"/><path class="a" d="M120.7,538.91s-24-36.58-59.84-53.84C26.05,468.29.63,482.58,0,483.14c0,0,17.88,32.67,50.77,48.32,44.68,21.28,69.94,7.45,69.94,7.45Z" transform="translate(0 0.01)"/><path class="a" d="M113,489.18c-12.82-12.06-13.78-44.84-32.1-71.44C55.3,380.63,13.13,383.32,12.5,383.67c0,0,4.51,46.23,36.48,74.18,34,29.69,64,31.33,64,31.33Z" transform="translate(0 0.01)"/><path class="a" d="M109.42,411.25s1.24-40.18-9.35-70.7C85.28,298,44.93,289.62,44.23,289.79c0,0-6.55,45.52,16.85,80.95,24.86,37.66,48.34,40.51,48.34,40.51Z" transform="translate(0 0.01)"/><path class="a" d="M126.51,335.94s8-33.73,4-65.78c-6.14-48.3-43.73-58.52-44.45-58.45,0,0-12.88,44.73,5.45,83,19.48,40.7,35,41.2,35,41.2Z" transform="translate(0 0.01)"/><path class="a" d="M159.62,255.08S172.71,224.56,171,192.3c-2.33-44.77-32.66-63.68-33.38-63.71,0,0-29.25,26.38-12.45,83.15,10.19,34.44,34.42,43.34,34.42,43.34Z" transform="translate(0 0.01)"/><path class="a" d="M201.74,188.6s19.45-30,24.83-61.81c5.05-29.91-7.08-62.48-9.79-65.48,0,0-31.65,13.91-30.46,67.3.8,35.9,15.42,60,15.42,60Z" transform="translate(0 0.01)"/><path class="a" d="M253.49,124.45S276.68,99.75,282.72,66c5-28,0-58.39-5.31-66,0,0-30.25,18.79-32.45,66.33-1.65,35.87,6.13,53,8.53,58.12Z" transform="translate(0 0.01)"/><path class="a" d="M291,85.11S335.23,86.7,357.2,74c24.58-14.28,48.71-45.26,50.62-54.31,0,0-38.71-17-74.81,14-27.24,23.41-39.86,46.14-42,51.44Z" transform="translate(0 0.01)"/><path class="a" d="M242.33,138.43s21.14-24.75,57.47-31.15c28-4.93,49.53-.37,63.35,7.68,0,0-21.32,27.32-62.19,31.08-35.76,3.3-53.38-5.38-58.63-7.61Z" transform="translate(0 0.01)"/><path class="a" d="M198.64,195.5s20.13-23.74,56.46-30.14c28-4.92,41.45.13,55.27,8.18,0,0-17,26.06-57.9,29.83-35.76,3.29-48.58-5.64-53.83-7.87Z" transform="translate(0 0.01)"/><path class="a" d="M156.23,270S175,240.69,209,226.39c34.84-14.66,52.74-7.66,67.72-2.06-4.78,7.16-24.33,37-56,46-34.56,9.77-58.93.9-64.49-.4Z" transform="translate(0 0.01)"/><path class="a" d="M131.06,336.07s16.66-30.53,49.56-47.23c33.7-17.11,52-11.41,67.4-6.9-4.25,7.49-21.62,38.7-52.61,49.91-33.77,12.22-58.72,5.12-64.35,4.22Z" transform="translate(0 0.01)"/><path class="a" d="M117.84,414.65c14.42-18.49,22.26-38.37,44.45-58.15,27.34-24.37,50.79-16.6,66.71-15-7.84,14.72-19.6,38-43.92,55.55-29.13,21-61.54,17.47-67.24,17.63Z" transform="translate(0 0.01)"/><path class="a" d="M119.63,487.05c12.26-20,18.08-35.57,37.92-57.71,24.43-27.27,47.6-22.43,63.6-22.65-6.14,15.5-16.49,38.7-38.7,58.85C155.86,489.68,125.28,486.25,119.63,487.05Z" transform="translate(0 0.01)"/><path class="a" d="M135.4,544.78c18.45-28.48,16.12-34.93,34.18-58.54,19.39-25.36,43.88-24.67,59.81-26.17-4.88,15.95-12.17,37.52-32.84,59.24-22.05,23.16-45,20.18-61.15,25.47Z" transform="translate(0 0.01)"/><path class="a" d="M165.71,601.35c11.63-25.2,9.62-40.93,20.29-58.79,17.44-29.22,34.54-30.48,50.46-32-12.7,36.4-9.76,36.57-23.74,58.74-13.61,21.57-32.1,24.47-47,32Z" transform="translate(0 0.01)"/><path class="a" d="M202.25,648.92c6.63-26.95-.1-35.2,7-54.76,11.57-32,28.12-36.48,43.47-41-1.76,21.48.9,35.1-11.14,58.38-8.5,16.44-26.1,27.1-39.3,37.36Z" transform="translate(0 0.01)"/><path class="a" d="M275.9,596s13.29,25.66,8.88,55.41C278.52,693.56,256,699.88,256,699.88s-12.83-19.16-11.52-58C245.87,600.34,275.9,596,275.9,596Z" transform="translate(0 0.01)"/><path class="a" d="M323.88,638.94s13.3,26,10.39,55.91c-3.73,38.36-24.73,48-24.73,48s-13.23-21.41-13.8-53.73c-.86-49.35,28.14-50.14,28.14-50.14Z" transform="translate(0 0.01)"/><path class="a" d="M1164.2,757s37.63-11.9,67.5-8.39c47.41,5.56,51.79,35,51.79,35s-19,11.81-59.83,7.32c-47.79-5.26-59.46-33.93-59.46-33.93Z" transform="translate(0 0.01)"/><path class="a" d="M1228.2,713s31.72-15,61.79-14.82c52,.38,55.17,28,55.17,28s-18.84,13.59-60.53,13c-48.08-.64-56.43-26.25-56.43-26.25Z" transform="translate(0 0.01)"/><path class="a" d="M1275.7,666.79s30.16-26.43,59.33-33.74c50.49-12.65,67.22,16.73,67.22,16.73s-18.77,22.52-59.28,32.41c-46.71,11.41-67.27-15.4-67.27-15.4Z" transform="translate(0 0.01)"/><path class="a" d="M1329.2,595.58s25.79-27.18,61.09-38c46.08-14.16,67.73,13.63,68.36,14.33,0,0-18.87,23.76-58.26,34.18-52.83,14-71.19-10.48-71.19-10.48Z" transform="translate(0 0.01)"/><path class="a" d="M1354.7,538.91s24-36.58,59.84-53.84c34.81-16.77,60.23-2.49,60.86-1.93,0,0-17.87,32.67-50.76,48.33-44.69,21.27-69.94,7.44-69.94,7.44Z" transform="translate(0 0.01)"/><path class="a" d="M1362.4,489.18c12.82-12.06,13.77-44.84,32.1-71.44,25.56-37.11,67.73-34.42,68.36-34.07,0,0-4.52,46.23-36.48,74.18-34,29.69-64,31.33-64,31.33Z" transform="translate(0 0.01)"/><path class="a" d="M1366,411.25s-1.24-40.18,9.35-70.7c14.79-42.57,55.14-50.93,55.84-50.76,0,0,6.55,45.52-16.85,80.95-24.86,37.66-48.34,40.51-48.34,40.51Z" transform="translate(0 0.01)"/><path class="a" d="M1348.9,335.94s-8.05-33.73-4-65.78c6.14-48.3,43.73-58.52,44.45-58.45,0,0,12.88,44.73-5.45,83-19.48,40.7-35,41.2-35,41.2Z" transform="translate(0 0.01)"/><path class="a" d="M1315.8,255.08s-13.09-30.52-11.41-62.78c2.33-44.77,32.66-63.68,33.38-63.71,0,0,29.25,26.38,12.45,83.15-10.19,34.44-34.42,43.34-34.42,43.34Z" transform="translate(0 0.01)"/><path class="a" d="M1273.6,188.6s-19.45-30-24.83-61.81c-5-29.91,7.08-62.48,9.79-65.48,0,0,31.65,13.91,30.46,67.3-.8,35.9-15.42,60-15.42,60Z" transform="translate(0 0.01)"/><path class="a" d="M1221.9,124.45s-23.19-24.7-29.23-58.47c-5-28,0-58.4,5.31-66,0,0,30.25,18.8,32.45,66.33,1.65,35.88-6.13,53-8.53,58.13Z" transform="translate(0 0.01)"/><path class="a" d="M1184.4,85.11S1140.2,86.7,1118.23,74c-24.58-14.28-48.71-45.26-50.62-54.31,0,0,38.71-17,74.81,14C1169.66,57.08,1182.28,79.81,1184.4,85.11Z" transform="translate(0 0.01)"/><path class="a" d="M1233.1,138.43s-21.14-24.75-57.47-31.15c-28-4.93-49.53-.37-63.35,7.68,0,0,21.32,27.32,62.19,31.08,35.76,3.3,53.38-5.38,58.63-7.61Z" transform="translate(0 0.01)"/><path class="a" d="M1276.7,195.5s-20.13-23.74-56.46-30.14c-28-4.92-41.45.13-55.27,8.18,0,0,17,26.06,57.9,29.83,35.76,3.29,48.58-5.64,53.83-7.87Z" transform="translate(0 0.01)"/><path class="a" d="M1319.2,270s-18.81-29.26-52.81-43.56c-34.84-14.66-52.74-7.66-67.72-2.06,4.78,7.16,24.33,37,56,46,34.56,9.77,58.94.9,64.49-.4Z" transform="translate(0 0.01)"/><path class="a" d="M1344.3,336.07s-16.66-30.53-49.56-47.23c-33.7-17.11-52-11.41-67.4-6.9,4.25,7.49,21.62,38.7,52.61,49.91,33.77,12.22,58.72,5.12,64.35,4.22Z" transform="translate(0 0.01)"/><path class="a" d="M1357.5,414.65c-14.42-18.49-22.26-38.37-44.45-58.15-27.34-24.37-50.79-16.6-66.71-15,7.84,14.72,19.6,38,43.92,55.55,29.13,21,61.54,17.47,67.24,17.63Z" transform="translate(0 0.01)"/><path class="a" d="M1355.8,487.05c-12.26-20-18.08-35.57-37.92-57.71-24.43-27.27-47.6-22.43-63.6-22.65,6.14,15.5,16.49,38.7,38.7,58.85C1319.57,489.68,1350.15,486.25,1355.8,487.05Z" transform="translate(0 0.01)"/><path class="a" d="M1340,544.78c-18.45-28.48-16.12-34.93-34.18-58.54-19.39-25.36-43.88-24.67-59.81-26.17,4.88,15.95,12.17,37.52,32.84,59.24,22.05,23.16,45,20.18,61.15,25.47Z" transform="translate(0 0.01)"/><path class="a" d="M1309.7,601.35c-11.63-25.2-9.62-40.93-20.29-58.79-17.44-29.22-34.54-30.48-50.46-32,12.7,36.4,9.76,36.57,23.74,58.74,13.61,21.57,32.1,24.47,47,32Z" transform="translate(0 0.01)"/><path class="a" d="M1273.1,648.92c-6.63-26.95.1-35.2-7-54.76-11.57-32-28.12-36.48-43.47-41,1.76,21.48-.9,35.1,11.14,58.38,8.5,16.44,26.1,27.1,39.3,37.36Z" transform="translate(0 0.01)"/><path class="a" d="M1199.5,596s-13.29,25.66-8.88,55.41c6.26,42.14,28.78,48.46,28.78,48.46s12.83-19.16,11.52-58c-1.39-41.51-31.42-45.84-31.42-45.84Z" transform="translate(0 0.01)"/><path class="a" d="M1151.5,638.94s-13.3,26-10.39,55.91c3.73,38.36,24.73,48,24.73,48s13.24-21.41,13.8-53.73c.86-49.35-28.14-50.14-28.14-50.14Z" transform="translate(0 0.01)"/></svg>