<?xml version="1.0" encoding="utf-8"?>
<!-- Generator: Adobe Illustrator 24.1.2, SVG Export Plug-In . SVG Version: 6.00 Build 0)  -->
<svg version="1.1" id="Layer_1" xmlns="http://www.w3.org/2000/svg" xmlns:xlink="http://www.w3.org/1999/xlink" x="0px" y="0px"
	 viewBox="0 0 382.8 241.9" style="enable-background:new 0 0 382.8 241.9;" xml:space="preserve">
<style type="text/css">
	.st0{fill:url(#SVGID_1_);}
	.st1{opacity:0.7;fill:url(#SVGID_2_);enable-background:new    ;}
	.st2{fill:#130F1D;}
	.st3{fill:url(#SVGID_3_);}
</style>
<radialGradient id="SVGID_1_" cx="195.04" cy="-314.96" r="152.87" fx="195.04" fy="-305.7106" gradientTransform="matrix(1 0 0 -1 0 -152)" gradientUnits="userSpaceOnUse">
	<stop  offset="0.2" style="stop-color:#746CFE"/>
	<stop  offset="0.8" style="stop-color:#201859"/>
</radialGradient>
<path class="st0" d="M14.2,182.2c10.7,3.4,17.9,12.7,25.3,20.6h8.2c0.3-0.2,0.5-0.3,0.8-0.5c0,0.1,0,0.1,0.1,0.2
	c0,0.1,0.1,0.2,0.2,0.3h3c-0.5-1.2-1-2.3-1.4-3.5c-2.3-6.2-2.5-12-2.5-18.5s0.2-12.3,2.5-18.5s5.9-12.9,11.5-16.6
	c5.7-3.4,12.1-5.7,18.9-5.1c2.7,0.2,5.3,0.9,7.8,2c-2.6,0.3-4.9,2-6,4.4c-1.5,2.9-1.3,6.4,0.7,9c-3.6,0.2-6.8,1.8-8.2,5.9
	c-1.4,4.3,0.5,8.4,3.8,11c-3.6,1.1-6.6,3.6-6.6,8s2.9,6.9,6.6,8c-3.3,2.6-5.2,6.8-3.8,11c0.3,1.1,0.9,2.1,1.6,2.9h15.2
	c0.2-0.1,0.4-0.2,0.6-0.3l0.2,0.3h3.1c-1.1-1.9-2-3.8-2.8-5.8c-2-5.1-3-10.6-2.8-16.1c0-5.4,0.4-10.1,2.4-15.2
	c1.9-5,4.7-9.6,8.1-13.7l0.3,0.4c0.5,0.6,1,1.3,1.5,1.9l0.6,1c-5.4,7.9-8.5,15.9-8.5,25.5c0,7.7,2.2,15.3,6.2,21.9h3.2
	c-1.5-2.4-2.8-4.8-3.9-7.4l7.3-0.1c-0.6,2.6-1.5,5.1-2.8,7.5H135c1.1-0.9,2.1-1.8,3.1-2.9c1.6,1.2,3.6,1.8,5.6,1.8
	c-0.3,0.3-0.7,0.7-0.9,1.1h6.4c3.4-2.4,8.4-3.2,12.5-3.3c4.9-0.1,9.7,0.2,14.5-0.8c-0.3,1.3-0.4,2.7-0.5,4.1h3.2
	c0.2-2.1,0.6-4.1,1.2-6.1c0.1-0.9-0.4-1.7-1.3-1.8c-0.2,0-0.3,0-0.5,0c-6,1.7-11.6,1.7-17.7,1.1c-0.9-0.1-1.8-0.1-2.7-0.1
	c0.8-0.8,1.5-1.6,2.2-2.5c3.6-4.6,8-8.4,13-11.3c0.7-0.5,0.9-1.5,0.4-2.2c-0.1-0.1-0.2-0.3-0.4-0.4c-5-2.9-9.5-6.7-13-11.3
	c-0.7-0.9-1.4-1.7-2.2-2.5c0.9,0,1.8,0,2.7-0.1c6.1-0.6,11.7-0.6,17.7,1.1c0.9,0.2,1.7-0.4,1.9-1.3c0-0.2,0-0.3,0-0.5
	c-1.7-6-1.7-11.6-1.1-17.7c0.1-0.9,0.1-1.8,0.1-2.7c0.8,0.8,1.6,1.5,2.5,2.2c4.6,3.5,8.4,8,11.3,13c0.2,0.5,0.8,0.7,1.3,0.6
	c0.5,0.1,1.1-0.2,1.3-0.6c2.9-5,6.7-9.5,11.3-13c0.9-0.7,1.7-1.4,2.5-2.2c0,0.9,0,1.8,0.1,2.7c0.6,6.1,0.6,11.7-1.1,17.7
	c-0.1,0.9,0.4,1.7,1.3,1.9c0.2,0,0.3,0,0.5,0c6-1.7,11.6-1.7,17.7-1.1c0.9,0.1,1.8,0.1,2.7,0.1c-0.8,0.8-1.5,1.6-2.2,2.5
	c-3.5,4.6-8,8.4-13,11.3c-0.7,0.5-0.9,1.5-0.4,2.2c0.1,0.1,0.2,0.3,0.4,0.4c5,2.9,9.5,6.7,13,11.3c0.7,0.9,1.4,1.7,2.2,2.5
	c-0.9,0-1.8,0.1-2.7,0.1c-6.1,0.6-11.7,0.6-17.7-1.1c-0.9-0.1-1.7,0.5-1.8,1.3c0,0.2,0,0.3,0,0.5c0.6,2,1,4,1.2,6.1h3.2
	c-0.1-1.4-0.3-2.7-0.5-4.1c4.8,0.9,9.6,0.7,14.5,0.8c4.1,0.1,9.1,0.9,12.5,3.3h6.4c-0.3-0.4-0.6-0.8-0.9-1.1c2,0,4-0.6,5.6-1.8
	c0.9,1.1,2,2,3.1,2.9h30.4c-1.3-2.4-2.2-4.9-2.8-7.5l7.4,0.1c-1.1,2.6-2.4,5.1-3.9,7.4h3.2c4.1-6.6,6.2-14.2,6.2-21.9
	c0-9.6-3-17.6-8.5-25.5l0.5-0.9c0.6-0.9,1.2-1.7,1.9-2.5c3.2,3.8,5.8,8.1,7.7,12.7c2,5.1,3,10.6,2.8,16.1c0,5.4-0.4,10-2.4,15.2
	c-0.9,2.3-2,4.6-3.3,6.8h3.1l0.2-0.3c0.2,0.1,0.4,0.2,0.6,0.3h15.3c0.7-0.9,1.3-1.9,1.6-2.9c1.4-4.3-0.5-8.4-3.8-11
	c3.6-1.1,6.5-3.6,6.5-8s-2.9-6.9-6.5-8c3.3-2.6,5.2-6.8,3.8-11c-1.3-4.1-4.5-5.7-8.1-5.9c1.9-2.6,2.2-6.1,0.7-9
	c-1.1-2.4-3.4-4-6.1-4.4c0.6-0.3,1.2-0.5,1.8-0.7c8.2-2.8,16.8-0.9,24.1,3.3c0.2,0.1,0.5,0.3,0.7,0.4c5.7,3.7,9.3,10.5,11.6,16.7
	s2.5,12,2.5,18.5s-0.2,12.3-2.5,18.5c-0.4,1.1-0.9,2.3-1.4,3.5h3l0.1-0.2c0-0.1,0.1-0.2,0.1-0.3c0.2,0.2,0.5,0.4,0.8,0.5h8.2
	c7.4-7.9,14.7-17.2,25.3-20.6c0.7-0.2,1.2-1,0.9-1.7c-0.1-0.5-0.5-0.8-0.9-0.9c-10.8-3.5-18.1-12.9-25.5-20.9
	c-7.2-7.7-15-15.1-24.8-19.3c-8.3-3.6-17.7-4.4-26.2-0.8c-6.4,2.7-9.7,7.6-12.9,12.8l-0.9,1.1c-1.3,1.8-2.4,3.6-3.4,5.5l-0.4,0.6
	c-0.1-0.1-0.2-0.2-0.3-0.3c-9.3-6.6-22.1-5.1-29.6,3.5c-1.6-1.2-3.6-1.8-5.6-1.8c1.5-1.4,2.4-3.2,2.7-5.2
	c11.4,0.8,21.5-7.2,23.4-18.4c0-0.1,0-0.3,0-0.4l0.9,0.2l0.5,0.1c1.6,0.5,3.3,0.9,5,1.2c2.8,0.9,5.7,1.5,8.7,1.9
	c4.2,0.4,8.5-0.2,12.3-1.9c8-3.4,13.7-10.3,17-18.2c4.1-9.9,4.4-20.7,4.1-31.3c-0.3-11.1-2-23.1,3.3-33.3c0.4-0.7,0.1-1.5-0.5-1.9
	c-0.4-0.2-0.9-0.2-1.4,0C310.1,58,298.1,56.3,287,56c-10.5-0.3-21.4,0-31.3,4.1c-7.9,3.3-14.8,9-18.2,17c-1.7,3.9-2.4,8.1-1.9,12.3
	c0.4,2.9,1,5.8,1.9,8.6c0.3,1.9,0.8,3.8,1.4,5.6c0,0.3,0.1,0.6,0.2,0.8c-0.1,0-0.3,0-0.4,0c-11.2,1.9-19.2,12-18.4,23.4
	c-2,0.3-3.8,1.2-5.2,2.7c0-2-0.6-4-1.8-5.6c8.6-7.5,10.1-20.3,3.5-29.6c-0.1-0.1-0.2-0.2-0.3-0.3l0.7-0.4c2.2-1.1,4.3-2.5,6.2-4
	c5.4-3.3,10.4-6.6,13.2-13.2c3.6-8.4,2.8-17.9-0.8-26.2c-4.2-9.8-11.7-17.6-19.3-24.8c-7.9-7.4-17.4-14.7-20.9-25.5
	c-0.2-0.7-1-1.2-1.7-0.9c-0.5,0.1-0.8,0.5-0.9,0.9c-3.4,10.8-12.9,18.1-20.9,25.5c-7.6,7.2-15.1,15-19.3,24.8
	c-3.6,8.3-4.4,17.7-0.8,26.2c2.8,6.4,7.6,9.7,12.8,12.9c0.4,0.3,0.8,0.6,1.1,0.9c1.8,1.3,3.6,2.4,5.5,3.4L172,95
	c-0.1,0.1-0.2,0.2-0.3,0.3c-6.6,9.3-5.1,22.1,3.5,29.6c-1.2,1.6-1.8,3.6-1.8,5.6c-1.4-1.5-3.2-2.4-5.3-2.7
	c0.8-11.4-7.2-21.5-18.4-23.4c-0.1,0-0.3,0-0.4,0c0-0.3,0.1-0.6,0.2-0.9s0.1-0.3,0.2-0.5c0.5-1.6,0.9-3.3,1.2-5
	c0.9-2.8,1.5-5.7,1.9-8.7c0.4-4.2-0.3-8.5-2-12.3c-3.4-8-10.3-13.7-18.2-17c-9.9-4.1-20.7-4.4-31.3-4.1c-11,0.3-23.1,2-33.3-3.3
	c-0.7-0.3-1.5,0-1.8,0.7c-0.2,0.4-0.2,0.8,0,1.2c5.2,10.2,3.6,22.3,3.3,33.3c-0.3,10.6,0,21.4,4.1,31.3c3.3,7.9,9,14.8,17,18.2
	c3.9,1.7,8.1,2.4,12.3,1.9c2.9-0.4,5.7-1,8.5-1.9c1.9-0.3,3.8-0.8,5.6-1.4l0.8-0.2c0,0.1,0,0.3,0,0.4c1.9,11.2,12,19.2,23.4,18.4
	c0.3,2,1.2,3.8,2.7,5.2c-2,0-4,0.6-5.6,1.8c-7.5-8.6-20.3-10.1-29.6-3.5c-0.1,0.1-0.2,0.2-0.3,0.3l-0.5-0.7c-1.1-2.2-2.5-4.3-4-6.2
	c-3.3-5.4-6.6-10.4-13.1-13.2c-8.4-3.6-17.9-2.8-26.2,0.8c-9.8,4.2-17.5,11.7-24.8,19.3c-7.5,7.9-14.8,17.4-25.5,20.9
	c-0.7,0.2-1.1,1-0.9,1.7C13.5,181.7,13.8,182.1,14.2,182.2z M343.7,201.1h-0.1c-1.1-0.2-2-0.7-2.8-1.5c0.3-0.9,0.6-1.9,0.9-2.8
	c1.3,0.9,2.8,1.5,4.3,1.9L343.7,201.1z M348.2,196.3l-0.2-0.1c-1.9-0.4-3.9-0.9-5.3-2.3l-0.2-0.1c0.1-0.6,0.3-1.2,0.4-1.8
	c0.1-0.4,0.1-0.8,0.2-1.3c1.5,1.5,3.6,2.4,5.7,2.2c1,0,2-0.2,3-0.5C350.6,193.8,349.4,195,348.2,196.3z M369.8,180.9L369.8,180.9
	L369.8,180.9L369.8,180.9z M360.4,178.2c1.4,1,2.8,1.9,4.4,2.7c-3.5,2-6.1,4.6-9.5,7c-2.6,1.8-7.6,3.6-10.3,1
	c-2.4-2.3-1.5-5.2-1.5-8.1s-0.8-5.8,1.5-8.1c2.4-2.4,6.9-1.1,9.5,0.4C356.7,174.5,358.4,176.6,360.4,178.2L360.4,178.2z
	 M348.2,165.4c1.2,1.3,2.4,2.5,3.6,3.8c-1-0.3-2-0.4-3-0.5c-2.1-0.1-4.2,0.7-5.7,2.2c0-0.2,0-0.4-0.1-0.6c-0.1-0.8-0.3-1.6-0.5-2.4
	c0.1,0,0.1-0.1,0.2-0.1c1.4-1.4,3.4-1.9,5.3-2.3C348.1,165.5,348.1,165.5,348.2,165.4L348.2,165.4z M343.7,160.6
	c0.8,0.8,1.6,1.7,2.4,2.5c-1.5,0.3-3,1-4.3,1.9c-0.3-1-0.6-1.9-0.9-2.8C341.6,161.4,342.6,160.9,343.7,160.6
	C343.6,160.7,343.7,160.6,343.7,160.6z M341.6,158.4c-0.7,0.2-1.3,0.6-1.8,1l-0.1-0.2c-0.8-1.8-1.6-3.5-2.6-5.2
	C338.6,155.4,340.1,156.9,341.6,158.4L341.6,158.4z M308.8,198.5c-2,4.1-8.3,3.2-11.7,1.4c0.3-0.6,0.6-1.3,0.9-2
	c0.2-0.5,0.3-0.9,0.5-1.4c2,1.1,4.8,2.2,6.7,1.2c0.6-0.4,0.9-1.2,0.5-1.9c-0.5-1.1-1.8-1.6-2.9-2.1c-1-0.4-2.1-0.7-3.2-0.9
	c0.3-1.2,0.5-2.4,0.7-3.5C304.2,189.7,311.1,193.7,308.8,198.5L308.8,198.5z M311.5,180.9c0,4.3-7.7,5.1-10.9,4.5
	c0.1-0.9,0.1-1.9,0.1-2.8l0,0c2.4-0.9,5.9,1.9,7.6-1c0.3-0.4,0.3-1,0-1.4c-1.7-2.9-5.2,0-7.6-1l0,0c0-1-0.1-1.9-0.1-2.8
	C303.9,175.7,311.5,176.5,311.5,180.9L311.5,180.9z M308.8,163.2c2.3,4.8-4.6,8.8-8.5,9.2c-0.2-1.2-0.4-2.4-0.7-3.5
	c1.1-0.2,2.2-0.5,3.2-0.9c1.1-0.4,2.4-0.9,2.9-2.1c0.4-0.7,0.1-1.5-0.5-1.9c-1.9-1.1-4.7,0.1-6.7,1.2c-0.2-0.4-0.3-0.9-0.5-1.4
	c-0.3-0.7-0.6-1.3-0.9-2C300.4,160,306.8,159.1,308.8,163.2L308.8,163.2z M301.1,148.7c3.2,3.8-1.8,8.9-5.4,10.6
	c-0.5-1.1-1.1-2.1-1.8-3.1c0.8-0.4,1.6-0.8,2.4-1.3c1-0.7,2.2-1.5,2.4-2.8c0.2-0.7-0.3-1.5-1-1.7c-1.3-0.4-2.5,0.3-3.6,0.9
	c-0.8,0.5-1.7,1-2.4,1.7c-0.7-0.9-1.4-1.9-2.2-2.8C292.4,147.7,298.3,145.3,301.1,148.7L301.1,148.7z M318.4,56.6L318.4,56.6
	L318.4,56.6L318.4,56.6z M69.9,56.6L69.9,56.6L69.9,56.6L69.9,56.6z M108,192.5L108,192.5l-8,0.1c-0.3,0-0.5,0.1-0.7,0.2
	c-0.6-1.8-1.1-3.7-1.4-5.6H109C108.6,189,108.3,190.8,108,192.5z M148.5,199.8L148.5,199.8L148.5,199.8l0.2-0.1L148.5,199.8z
	 M203.8,144.8c-3.4,3.5-7,6.7-9.7,10.8c-2.7-4.1-6.3-7.3-9.7-10.8c-4.5-4.7-9.6-12.4-4.7-18.5c1.7,1.1,3.5,2,5.3,2.7
	c-1.5,3.2-1.9,6.8,0,9.9c1.6,2.6,5.8,5.6,9,5.6c3,0,7.1-2.8,8.7-5.2c2.2-3.2,1.8-7,0.3-10.4c1.9-0.7,3.6-1.6,5.3-2.7
	C213.4,132.4,208.3,140.1,203.8,144.8L203.8,144.8z M187.7,130c2.1,0.6,4.2,0.9,6.4,0.9s4.3-0.4,6.4-1c1.3,2.6,1.7,5.4,0,7.9
	c-1.2,1.9-4.1,3.8-6.4,3.7C188,141.4,185.3,135,187.7,130z M239.7,199.8L239.7,199.8l-0.2-0.1L239.7,199.8L239.7,199.8z M289,192.9
	c-0.2-0.1-0.5-0.2-0.7-0.2l-8.1-0.1l0,0c-0.3-1.7-0.7-3.5-1-5.3h11.2C290.1,189.1,289.6,191,289,192.9z M283.8,158.3
	c1.7,2.5,3.1,5.2,4.3,8l-7.3,0.1C281.4,163.6,282.4,160.9,283.8,158.3z M280.2,169.2L280.2,169.2l8-0.1c0.3,0,0.5-0.1,0.7-0.2
	c0.6,1.8,1.1,3.7,1.4,5.6h-11C279.6,172.7,280,171,280.2,169.2z M278.8,177.2h11.4c0.2,0,0.3,0,0.4-0.1c0.1,1.2,0.2,2.4,0.2,3.7
	s-0.1,2.5-0.2,3.7c-0.1,0-0.3-0.1-0.4-0.1h-11.5c-0.2-1.2-0.2-2.4-0.3-3.6C278.6,179.6,278.7,178.4,278.8,177.2L278.8,177.2z
	 M278.1,162.7L278.1,162.7c-1.8,4.9-3.1,10.1-3.8,15.3c-1,6.6,1.1,14.4,3.9,21l0,0c-9.3,5.8-11.8-12.7-11.8-18.2
	S268.8,156.9,278.1,162.7L278.1,162.7z M265.4,159.8c1.9-0.6,4-0.6,5.9-0.2c-5.7,3.5-7.7,15.7-7.7,21.2s2.1,17.6,7.7,21.2
	c-1.9,0.5-4,0.4-5.9-0.2c-3-1-4.5-3.4-5.8-6.1c-2-4.4-3.8-10.1-3.8-14.9s1.8-10.6,3.8-14.9C260.9,163.2,262.3,160.9,265.4,159.8
	L265.4,159.8z M254.7,163.5c1.6-1.6,3.4-2.8,5.5-3.6c-0.1,0.1-0.3,0.3-0.4,0.4c-2.2,2.5-3.5,6.1-4.5,9.2c-1.1,3.5-2.4,7.7-2.4,11.4
	c0,3.5,1.2,7.5,2.2,10.8c1,3.3,2.3,7,4.5,9.7c0.2,0.2,0.3,0.4,0.5,0.5c-1.9-0.7-3.6-1.8-5.1-3.2c-4.6-4.3-8.3-11.4-8.3-17.8
	S250.3,167.8,254.7,163.5L254.7,163.5z M248.7,166.5c-1.1,1.7-2,3.5-2.7,5.3c-3.2-1.5-6.8-1.9-9.9,0c-2.6,1.6-5.6,5.8-5.6,9
	c0,3,2.8,7.1,5.2,8.7c3.2,2.2,7,1.8,10.4,0.3c0.7,1.9,1.6,3.7,2.7,5.3c-6.1,4.9-13.8-0.1-18.5-4.7c-3.5-3.4-6.7-7-10.8-9.7
	c4-2.7,7.3-6.3,10.8-9.7C234.9,166.7,242.6,161.6,248.7,166.5L248.7,166.5z M245,187.3c-2.6,1.3-5.4,1.7-7.9,0
	c-1.9-1.2-3.8-4.1-3.7-6.4c0.2-6.2,6.5-8.9,11.6-6.4c-0.6,2.1-1,4.2-1,6.4C244,183,244.4,185.2,245,187.3z M239.6,162l0.2-0.1l0,0
	l0,0L239.6,162z M265.6,129.8l5.3-5.1c1.2,2.8,2.1,5.7,2.7,8.7C270.7,132.5,268,131.3,265.6,129.8L265.6,129.8z M252.4,106
	c0.2-0.2,0.3-0.4,0.4-0.7c1.7,0.9,3.4,1.9,5,3l-0.1,0.1l-7.7,7.7c-0.8-1.1-1.5-2.2-2.3-3.3c-0.3-0.3-0.5-0.7-0.8-1.1
	C248.6,109.8,250.5,107.9,252.4,106z M245.2,109.4c-1.5-2.5-2.7-5.1-3.6-7.9c3,0.6,5.9,1.5,8.7,2.7L245.2,109.4z M259.5,110.3
	c0.1-0.1,0.2-0.2,0.3-0.4c0.9,0.8,1.8,1.6,2.7,2.5s1.7,1.8,2.5,2.7c-0.1,0.1-0.3,0.2-0.4,0.3l-8.1,8.1c-1-0.7-1.9-1.5-2.8-2.3
	c-0.8-0.9-1.6-1.8-2.3-2.8C254.2,115.7,256.9,113,259.5,110.3L259.5,110.3z M266.6,117.4C266.6,117.4,266.6,117.3,266.6,117.4
	c1.2,1.5,2.2,3.2,3.1,4.9c-0.3,0.1-0.5,0.2-0.7,0.4l-5.8,5.6c-0.2-0.1-0.4-0.3-0.6-0.5c-1.2-0.9-2.5-1.8-3.7-2.6L266.6,117.4z
	 M283.3,135c-0.1-1.2-0.3-2.3-0.4-3.5c1.1-0.1,2.1-0.2,3.1-0.5c1.2-0.2,2.3-0.8,3-1.8c0.4-0.7,0.1-1.5-0.5-1.9
	c-1-0.7-2.4-0.5-3.5-0.3c-0.9,0.2-1.9,0.4-2.8,0.8c-0.3-1.2-0.6-2.3-0.9-3.4c3.8-1.4,10.8-1.4,11.3,3.5
	C293,132.3,287.1,134.8,283.3,135z M283.5,112.6c-1.2-0.5-2.5,0.2-3.6,0.6c-1,0.4-1.9,0.9-2.7,1.6c-0.6-1-1.3-2-2-3
	c3-2.5,9.7-4.3,12.1-0.2c2.5,4.4-3,8.7-6.9,9.9c-0.4-1-0.7-1.9-1.1-2.8l-0.2-0.5c1-0.3,2-0.8,3-1.3c1.2-0.5,2.1-1.4,2.5-2.6
	C284.6,113.6,284.2,112.9,283.5,112.6L283.5,112.6z M275.4,100.5c-0.1-0.5-0.5-0.9-1-1c-1.5-0.4-2.6,0.5-3.4,1.7
	c-0.6,0.9-1.2,2.4-2.3,2.8c-0.1,0-0.2,0.1-0.3,0.2c-0.7-0.7-1.4-1.3-2.1-1.9c1.7-2.6,8.2-7.9,10.9-4.5s-1.5,8.9-4.5,10.9
	c-0.6-0.7-1.3-1.4-2-2.1c0.1-0.1,0.1-0.2,0.2-0.3c0.5-1.1,1.9-1.7,2.8-2.3C274.9,103.2,275.8,102.1,275.4,100.5L275.4,100.5z
	 M314.2,98.7c-0.6-1.9-1.2-3.8-2-5.7c0.7-0.1,1.4-0.3,2-0.6C314.3,94.6,314.3,96.7,314.2,98.7L314.2,98.7z M314.1,86
	c0,1.2,0.1,2.3,0.1,3.4l-0.1,0.1c-0.9,0.6-1.9,0.9-3,0.9c-0.4-0.9-0.9-1.8-1.3-2.7C311.3,87.4,312.8,86.8,314.1,86z M308.4,85.1
	h-0.2c-0.5-0.7-0.9-1.4-1.5-2.2l-0.3-0.3c2,0.1,3.8-0.7,5.2-2.1c0.9-0.8,1.6-1.8,2.2-2.8c0,1.7,0.1,3.4,0.1,5.2l-0.2,0.1
	C312.1,84,310.5,85.1,308.4,85.1L308.4,85.1z M302.2,62.1c2.5-0.6,5.3-0.3,7.8-0.7c1.6-0.2,3.2-0.6,4.7-1.1c-0.5,1.5-0.8,3-1.1,4.5
	c-0.4,2.6,0,5.4-0.7,8c-0.8,2.9-2.9,7.1-6.4,7c-3.3,0-4.8-2.6-6.8-4.6s-4.6-3.4-4.6-6.8S299.3,62.8,302.2,62.1L302.2,62.1z
	 M289.9,66.6c0-2,1.1-3.7,2.1-5.4c0-0.1,0.1-0.1,0.1-0.2c1.8,0,3.5,0.1,5.2,0.1c-0.9,0.5-1.7,1.1-2.5,1.8c-1.6,1.4-2.5,3.4-2.5,5.6
	c-0.8-0.6-1.7-1.2-2.5-1.7C289.9,66.8,289.9,66.7,289.9,66.6L289.9,66.6z M285.5,61l0.1-0.1L289,61c-0.8,1.3-1.4,2.8-1.7,4.4
	c-0.9-0.5-1.8-0.9-2.7-1.3C284.6,62.9,284.9,61.8,285.5,61L285.5,61z M282.5,60.8c-0.3,0.6-0.5,1.3-0.6,2c-1.8-0.8-3.7-1.4-5.6-2
	C278.4,60.7,280.4,60.7,282.5,60.8L282.5,60.8z M243,76.6c3.8-7.3,10.8-11.7,18.6-13.8l1.3-0.3c7-1.4,14.7,1.1,21,4.1
	c5.6,2.7,9.5,6.5,13.8,10.8s8.1,8.2,10.8,13.8c3,6.3,5.5,14.1,4.1,21.1c-1.5,6.1-4.2,11.9-8.9,16.2c-2.2,2-4.8,3.6-7.6,4.7
	c3.4-4.3,0.2-12.2-5.7-13.1c2.3-2.6,3.4-5.8,1.8-9.4c-1.9-4.3-6.4-6-10.7-5.5c1.8-3.3,2.1-7.2-1-10.3s-7-2.8-10.3-1
	c0.5-4.3-1.3-8.8-5.5-10.7c-3.7-1.6-6.9-0.5-9.4,1.8c-0.9-5.9-8.9-9.2-13.2-5.7C242.2,78.2,242.6,77.4,243,76.6z M262.4,91.5
	c-0.2-0.7-0.9-1.2-1.7-1c-1.2,0.5-2.1,1.4-2.6,2.5c-0.5,1-1,2-1.3,3l-0.5-0.2c-0.9-0.4-1.9-0.8-2.8-1.1c1.2-3.9,5.5-9.4,9.9-6.9
	c4.1,2.4,2.3,9-0.2,12.1c-1-0.7-2-1.4-3-2c0.6-0.8,1.1-1.8,1.5-2.7C262.2,94,262.8,92.7,262.4,91.5L262.4,91.5z M247.2,82.5
	c4.9,0.5,4.9,7.6,3.5,11.3c-1.1-0.3-2.3-0.7-3.4-0.9c0.3-0.9,0.6-1.8,0.8-2.8c0.2-1.2,0.4-2.5-0.3-3.5c-0.4-0.6-1.2-0.9-1.9-0.5
	c-1,0.7-1.6,1.8-1.8,2.9c-0.3,1-0.5,2-0.6,3.1c-1.2-0.2-2.3-0.3-3.5-0.4C240.1,87.8,242.7,82,247.2,82.5L247.2,82.5z M255.5,98.5
	c4.6,2.2,8.7,5.2,12.1,8.9c3.6,3.6,6.5,6.9,8.6,11.6c2.4,5.1,3.8,10.6,4.3,16.3l-1.3-0.1c-0.7-0.1-1.3-0.2-2-0.3l-0.9-0.2
	c-1.7-9.4-5.2-17.3-12-24s-14.5-10.3-24-12c-0.1-0.3-0.2-0.6-0.3-0.9c-0.2-1-0.3-2.1-0.4-3.2C245.2,94.9,250.5,96.3,255.5,98.5
	L255.5,98.5z M240.7,108.6L240.7,108.6c2.2,4.8,4.9,9.4,8.1,13.6c3.9,5.3,10.9,9.4,17.6,12.1l0,0c-2.4,10.7-17.3-0.6-21.2-4.5
	S230,111,240.7,108.6L240.7,108.6z M230.1,114.9c0.9-1.4,2.2-2.7,3.6-3.6c-1.4,6.5,5.7,16.6,9.5,20.4c3.8,3.8,14,11,20.4,9.5
	c-0.9,1.5-2.1,2.7-3.6,3.6c-3,1.8-6,1.3-9.1,0.2c-4.5-1.7-9.8-4.4-13.3-7.9s-6.2-8.7-7.9-13.3C228.7,120.9,228.2,117.8,230.1,114.9
	L230.1,114.9z M226,119.4c0,0.2,0,0.3,0,0.5c0.2,3.3,1.9,6.8,3.4,9.7c1.7,3.2,3.8,7.1,6.3,9.7s6.1,4.4,9.2,6.1s6.6,3.3,10,3.7
	c0.3,0,0.5,0,0.8,0c-2,0.9-4.2,1.3-6.4,1.3c-6.2,0-13.4-2.3-17.9-6.7s-6.6-11.3-6.7-17.3C224.5,123.9,225,121.5,226,119.4L226,119.4
	z M234.7,149.4c-1.7,5.1-8.4,8.3-12.7,3.7s-1.6-11,3.7-12.7c1,1.9,2.3,3.7,3.8,5.2C231,147.1,232.7,148.3,234.7,149.4L234.7,149.4z
	 M222.6,132.2c0.4,2,1,3.9,1.8,5.7c-3.1,1.1-5.9,3.3-6.9,6.6c-0.9,3.1-0.1,8.4,2.3,10.8s7.7,3.2,10.8,2.3c3.3-1,5.4-3.8,6.6-6.9
	c1.8,0.8,3.7,1.4,5.7,1.8c-0.8,7.8-9.8,9.6-16.4,9.8c-4.9,0.1-9.7-0.2-14.5,0.8c1-4.8,0.6-9.6,0.8-14.5
	C212.9,142,214.8,133,222.6,132.2L222.6,132.2z M213,135.4c0-0.1,0-0.1,0.1-0.2l0,0l0,0L213,135.4z M208.6,94.3
	c0-2.4,0.1-4.9,0.1-7.4c2.8,1.2,5.5,2.6,8,4.3C214.1,92.6,211.4,93.6,208.6,94.3L208.6,94.3z M191.3,100.7c6.6,1,14.4-1.1,21-3.9
	l0,0c5.8,9.3-12.7,11.8-18.2,11.8s-24-2.5-18.2-11.8v-0.1C180.9,98.6,186,99.9,191.3,100.7L191.3,100.7z M182.1,86
	c1.8-0.6,3.7-1.1,5.6-1.4v0.1v11c-1.8-0.3-3.5-0.7-5.3-0.9l0,0c0-2.7,0-5.3-0.1-8C182.4,86.5,182.3,86.2,182.1,86z M197.8,96.2
	c-1.2,0.2-2.4,0.2-3.6,0.3c-1.2,0-2.4-0.1-3.6-0.3V84.7c0-0.2,0-0.3-0.1-0.4c1.2-0.1,2.4-0.2,3.7-0.2s2.5,0.1,3.7,0.2
	c-0.1,0.1-0.1,0.3-0.1,0.4C197.7,88.5,197.8,92.4,197.8,96.2L197.8,96.2z M205.8,94.8c-1.7,0.3-3.5,0.7-5.3,1c0-3.7,0-7.4,0-11.1
	v-0.1c1.9,0.3,3.8,0.8,5.6,1.4c-0.1,0.2-0.2,0.5-0.2,0.7C205.9,89.4,205.8,92.1,205.8,94.8L205.8,94.8z M224.8,85.4
	c-0.9-0.8-1.8-1.5-2.8-2.2c0.6-0.7,1.2-1.6,1.7-2.4c0.6-1.1,1.3-2.3,0.9-3.6c-0.2-0.7-0.9-1.2-1.7-1c-1.3,0.2-2.1,1.4-2.8,2.4
	c-0.5,0.7-0.9,1.5-1.3,2.3c-1-0.6-2-1.2-3.1-1.8c1.7-3.7,6.7-8.7,10.6-5.4C229.7,76.7,227.3,82.6,224.8,85.4L224.8,85.4z
	 M216.5,33.4c1.5,1.4,3,2.9,4.4,4.5c-1.7-0.9-3.4-1.7-5.1-2.5l-0.3-0.1C215.9,34.7,216.3,34.1,216.5,33.4L216.5,33.4z M211.8,28.9
	l2.5,2.4v0.1c-0.2,1.1-0.7,2-1.5,2.8c-0.9-0.3-1.9-0.7-2.8-0.9C210.9,31.9,211.5,30.5,211.8,28.9L211.8,28.9z M205.7,23.2
	c1.2,1.2,2.5,2.4,3.8,3.6c0,0.1,0,0.1-0.1,0.2c-0.4,1.9-0.9,3.9-2.3,5.3c-0.1,0.1-0.1,0.1-0.1,0.2c-0.6-0.1-1.2-0.3-1.8-0.4
	l-1.2-0.2c1.5-1.5,2.4-3.6,2.2-5.7C206.2,25.2,206,24.2,205.7,23.2L205.7,23.2z M194.1,5.1L194.1,5.1L194.1,5.1z M186.5,20.4
	c1.3-2.2,3.4-3.9,5-5.9c1-1.4,1.9-2.8,2.7-4.4c2,3.5,4.6,6.1,7,9.5c1.8,2.6,3.6,7.6,1,10.3c-2.3,2.4-5.2,1.5-8.1,1.5
	s-5.8,0.8-8.1-1.5S184.9,23,186.5,20.4L186.5,20.4z M182.5,23.2c-0.3,1-0.4,2-0.5,3c-0.1,2.1,0.7,4.2,2.2,5.7l-0.6,0.1
	c-0.8,0.1-1.6,0.3-2.4,0.5c0-0.1-0.1-0.1-0.1-0.2c-1.4-1.4-1.9-3.4-2.3-5.3c0-0.1,0-0.1-0.1-0.2C180,25.6,181.2,24.4,182.5,23.2
	L182.5,23.2z M176.4,28.9c0.4,1.5,1,3,1.9,4.3c-0.9,0.3-1.9,0.6-2.8,0.9c-0.8-0.7-1.3-1.7-1.5-2.8v-0.1L176.4,28.9z M171.7,33.4
	c0.2,0.6,0.6,1.3,1,1.8l-0.2,0.1c-1.8,0.8-3.6,1.6-5.3,2.6C168.7,36.3,170.1,34.9,171.7,33.4L171.7,33.4z M155.9,75.3
	c-0.3-0.6-0.5-1.2-0.7-1.8c-2.8-8.2-0.9-16.8,3.3-24.1l0.4-0.7c3.7-5.7,10.5-9.3,16.7-11.6s12-2.5,18.5-2.5s12.3,0.2,18.5,2.5
	s12.9,5.9,16.6,11.5c3.4,5.7,5.7,12.1,5.1,18.9c-0.2,2.7-0.9,5.3-2,7.8c-0.3-2.6-2-4.9-4.4-6c-2.9-1.5-6.3-1.3-8.9,0.7
	c-0.2-3.6-1.8-6.8-5.9-8.2c-4.3-1.4-8.4,0.5-11,3.8c-1.1-3.6-3.6-6.5-8-6.5s-6.9,2.9-8,6.5c-2.6-3.3-6.8-5.2-11-3.8
	c-4.1,1.3-5.7,4.5-5.9,8.2c-2.6-1.9-6.1-2.2-8.9-0.7C157.9,70.3,156.3,72.6,155.9,75.3z M210.9,69.9c-0.4-0.6-1.2-0.9-1.9-0.5
	c-1.1,0.5-1.6,1.8-2,2.9c-0.4,1-0.7,2.1-0.9,3.2c-1.2-0.3-2.4-0.5-3.5-0.7c0.4-3.9,4.4-10.8,9.2-8.5c4.1,2,3.2,8.3,1.4,11.7
	c-0.6-0.3-1.3-0.6-2-0.8l-1.4-0.5C210.8,74.6,212,71.8,210.9,69.9L210.9,69.9z M194.8,66.6c-0.4-0.3-1-0.3-1.4,0
	c-2.9,1.7,0,5.2-1,7.6l0,0c-1,0-1.9,0.1-2.8,0.1c-0.6-3.2,0.2-10.9,4.5-10.9s5.1,7.7,4.5,10.9c-0.9-0.1-1.9-0.1-2.8-0.1l0,0
	C194.8,71.8,197.7,68.3,194.8,66.6L194.8,66.6z M178.4,76.6l-1.4,0.5c-0.7,0.3-1.3,0.6-2,0.8c-1.9-3.4-2.7-9.8,1.4-11.7
	c4.8-2.3,8.8,4.6,9.2,8.5c-1.2,0.2-2.4,0.4-3.5,0.7c-0.2-1.1-0.5-2.2-0.9-3.2c-0.4-1.1-0.9-2.4-2.1-2.9c-0.7-0.4-1.5-0.1-1.9,0.5
	C176.2,71.8,177.4,74.6,178.4,76.6L178.4,76.6z M163.4,85.4c-2.5-2.8-4.9-8.7-1.5-11.6c3.9-3.2,8.9,1.8,10.6,5.4
	c-1,0.6-2.1,1.1-3.1,1.8c-0.4-0.8-0.8-1.6-1.3-2.3c-0.7-1-1.5-2.2-2.8-2.4c-0.7-0.2-1.5,0.3-1.7,1c-0.4,1.3,0.3,2.5,0.9,3.6
	c0.5,0.9,1,1.7,1.7,2.4C165.3,83.9,164.4,84.6,163.4,85.4L163.4,85.4z M168.6,89.8l-0.9-0.5c-0.9-0.6-1.7-1.2-2.5-1.9
	c3.8-3.2,8.1-5.8,12.8-7.7c5.1-2,10.6-3,16.1-2.8c5.4,0,10,0.4,15.2,2.4c5,1.9,9.6,4.7,13.7,8.1l-0.4,0.3c-0.6,0.5-1.3,1-2,1.5
	l-1,0.6c-7.9-5.4-15.9-8.5-25.5-8.5S176.6,84.4,168.6,89.8L168.6,89.8z M171.6,91.2c2.5-1.7,5.2-3.1,8-4.3c0,2.4,0,4.9,0.1,7.3
	C176.8,93.6,174.1,92.5,171.6,91.2L171.6,91.2z M172.9,103.7c3.5,5.7,15.7,7.7,21.2,7.7s17.6-2.1,21.2-7.7c0.4,1.9,0.4,4-0.2,5.9
	c-1,3-3.4,4.5-6.1,5.8c-4.4,2-10.1,3.8-14.9,3.8s-10.6-1.8-14.9-3.8c-2.8-1.3-5.1-2.7-6.1-5.8C172.5,107.7,172.4,105.7,172.9,103.7
	L172.9,103.7z M173.1,114.8c0.1,0.1,0.2,0.3,0.4,0.4c2.5,2.2,6.1,3.5,9.2,4.5c3.5,1.1,7.7,2.4,11.4,2.4c3.5,0,7.5-1.2,10.8-2.2
	s7-2.3,9.7-4.5c0.2-0.2,0.4-0.3,0.5-0.5c-0.7,1.9-1.8,3.6-3.2,5.1c-4.3,4.6-11.4,8.3-17.8,8.3s-13-3.5-17.4-7.9
	C175.2,118.8,173.9,116.9,173.1,114.8L173.1,114.8z M175.3,135.4l-0.1-0.2l0,0l0,0L175.3,135.4z M165.7,132.2
	c7.8,0.8,9.6,9.8,9.8,16.4c0.1,4.9-0.2,9.7,0.8,14.5c-4.8-0.9-9.6-0.6-14.5-0.8c-6.6-0.2-15.6-2-16.4-9.8c2-0.4,3.9-1,5.7-1.8
	c1.1,3.1,3.3,5.9,6.6,6.9c3.1,0.9,8.4,0.1,10.8-2.3s3.2-7.7,2.3-10.8c-1-3.3-3.8-5.4-6.9-6.6C164.6,136,165.3,134.1,165.7,132.2
	L165.7,132.2z M148.7,162l-0.2-0.1l0,0l0,0L148.7,162z M153.6,149.4c3.8-2,7-5.2,9-9c5.1,1.7,8.3,8.4,3.7,12.7
	S155.4,154.7,153.6,149.4L153.6,149.4z M140.2,90.1c0.2,0.9,0.4,1.9,0.8,2.8c-1.1,0.3-2.3,0.6-3.4,0.9c-1.4-3.8-1.4-10.8,3.5-11.3
	c4.4-0.5,7,5.4,7.2,9.2c-1.2,0.1-2.3,0.3-3.5,0.4c-0.1-1-0.3-2.1-0.6-3.1c-0.2-1.2-0.9-2.3-1.8-3c-0.7-0.4-1.5-0.2-1.9,0.5
	C139.8,87.5,140.1,88.9,140.2,90.1z M112,60.8c-1.9,0.6-3.8,1.2-5.7,2c-0.1-0.7-0.3-1.4-0.6-2C107.8,60.7,109.9,60.7,112,60.8z
	 M102.7,60.8C102.7,60.8,102.7,60.9,102.7,60.8c0.7,1,1,2,1,3.1c-0.9,0.4-1.8,0.9-2.7,1.3c-0.3-1.5-0.9-3-1.7-4.4L102.7,60.8z
	 M96.1,61c0,0.1,0.1,0.1,0.1,0.2c1,1.7,2.1,3.3,2.1,5.4c0,0.1,0,0.1,0,0.2c-0.7,0.5-1.4,0.9-2.1,1.4c-0.1,0.1-0.2,0.2-0.3,0.3
	c0.1-1.9-0.7-3.8-2.1-5.2C93,62.4,92,61.7,91,61.1C92.6,61.1,94.4,61,96.1,61z M78,61.3c2.6,0.4,5.5,0,8,0.7c2.9,0.8,7,2.9,7,6.4
	c0,3.3-2.6,4.8-4.6,6.8s-3.4,4.7-6.7,4.6s-5.7-4.1-6.4-7c-0.6-2.5-0.3-5.3-0.7-7.8c-0.2-1.6-0.6-3.2-1.1-4.7
	C75,60.7,76.5,61.1,78,61.3z M74.4,82.9c-0.1,0-0.1-0.1-0.2-0.1c0.1-1.8,0.1-3.5,0.1-5.2c0.5,0.9,1.1,1.7,1.8,2.5
	c1.4,1.6,3.5,2.5,5.6,2.5c-0.6,0.8-1.2,1.7-1.7,2.5c-0.1,0-0.2,0-0.2,0C77.8,85.1,76.1,84,74.4,82.9z M78.5,87.7
	c-0.5,0.9-0.9,1.8-1.3,2.7c-1.1,0-2.1-0.3-3-0.9l-0.1-0.1c0-1.1,0.1-2.3,0.1-3.4C75.5,86.8,77,87.4,78.5,87.7z M74,92.5
	c0.6,0.3,1.3,0.4,2,0.5c-0.8,1.8-1.4,3.7-2,5.6C73.9,96.6,73.9,94.6,74,92.5z M92.3,133.1c-0.8-0.3-1.6-0.7-2.4-1.1
	c-7.3-3.8-11.7-10.8-13.8-18.6c-0.1-0.4-0.2-0.8-0.3-1.3c-1.4-7,1.1-14.7,4.1-21c2.7-5.6,6.5-9.5,10.8-13.8s8.2-8.1,13.8-10.8
	c6.3-3,14-5.5,21-4.1c6.1,1.5,11.9,4.2,16.2,8.9c2,2.2,3.6,4.8,4.8,7.6c-4.3-3.4-12.2-0.2-13.1,5.7c-2.6-2.3-5.8-3.4-9.4-1.8
	c-4.3,1.9-6,6.3-5.5,10.7c-3.3-1.8-7.2-2-10.3,1s-2.8,7-1,10.3c-4.3-0.5-8.8,1.3-10.7,5.5c-1.6,3.7-0.5,6.9,1.8,9.4
	C92.1,120.9,88.8,128.8,92.3,133.1L92.3,133.1z M126.6,95.1c0.4,1,0.9,1.9,1.6,2.7c-1.1,0.6-2,1.3-3,2c-2.5-3-4.3-9.7-0.2-12.1
	c4.4-2.5,8.8,3,9.9,6.9c-1,0.3-1.9,0.7-2.8,1.1l-0.5,0.2c-0.3-1-0.8-2.1-1.3-3c-0.5-1.2-1.4-2.1-2.6-2.5c-0.7-0.2-1.5,0.3-1.7,1
	C125.4,92.7,126.1,94,126.6,95.1L126.6,95.1z M114.6,104c0.9,0.7,2.4,1.2,2.8,2.3c0,0.1,0.1,0.2,0.2,0.3c-0.7,0.7-1.3,1.4-2,2.1
	c-2.5-1.7-7.9-8.2-4.5-10.9s9,1.5,11,4.5c-0.7,0.6-1.4,1.3-2.1,2c-0.1-0.1-0.2-0.1-0.3-0.2c-1.1-0.4-1.7-1.9-2.3-2.8
	c-0.8-1.2-1.9-2.1-3.4-1.7c-0.5,0.1-0.9,0.5-1,1C112.4,102.1,113.3,103.2,114.6,104L114.6,104z M103.8,114.3
	c0.5,1.2,1.4,2.1,2.6,2.6c1,0.5,2,1,3,1.3c-0.1,0.2-0.2,0.3-0.3,0.5c-0.4,0.9-0.8,1.9-1.1,2.8c-4-1.2-9.4-5.5-6.9-9.9
	c2.4-4.2,9-2.3,12.1,0.2c-0.7,1-1.4,2-2,3c-0.9-0.6-1.8-1.1-2.7-1.6c-1.1-0.5-2.4-1.1-3.6-0.6C104,112.9,103.6,113.6,103.8,114.3
	L103.8,114.3z M106.1,127.8c-0.9-0.3-1.8-0.6-2.8-0.8c-1.2-0.2-2.5-0.4-3.5,0.3c-0.6,0.4-0.9,1.2-0.5,1.9c0.7,1,1.8,1.6,3,1.8
	c1,0.3,2,0.5,3.1,0.6c-0.2,1.2-0.3,2.3-0.4,3.5c-3.8-0.2-9.7-2.8-9.2-7.2c0.5-4.9,7.6-4.9,11.3-3.5
	C106.7,125.4,106.3,126.6,106.1,127.8L106.1,127.8z M110.8,134.8c-1,0.2-2.1,0.3-3.2,0.4c0.4-5.4,1.8-10.7,4-15.7
	c2.2-4.6,5.2-8.7,8.9-12.2c3.6-3.6,6.9-6.5,11.5-8.7c5.1-2.4,10.6-3.8,16.3-4.3c0,0.4-0.1,0.8-0.1,1.3c-0.1,0.7-0.2,1.3-0.3,2
	l-0.2,0.9c-9.4,1.7-17.3,5.2-24,12s-10.3,14.5-12,24L110.8,134.8z M123.6,115.4c-0.1-0.1-0.2-0.2-0.4-0.3c0.8-0.9,1.6-1.8,2.5-2.7
	s1.8-1.7,2.7-2.5c0.1,0.1,0.2,0.3,0.3,0.4l8.1,8.1c-0.7,1-1.5,1.9-2.4,2.8c-0.9,0.8-1.8,1.6-2.8,2.3L123.6,115.4z M129.3,125.1
	c-1.1,0.8-2.2,1.5-3.3,2.3l-1.1,0.8l-5.8-5.6c-0.2-0.2-0.4-0.3-0.7-0.4c0.9-1.7,1.9-3.4,3-5l0.1,0.1
	C124.2,119.9,126.7,122.5,129.3,125.1L129.3,125.1z M130.6,108.4L130.6,108.4c1.5-1.2,3.1-2.2,4.9-3.1c0.1,0.3,0.2,0.5,0.4,0.7
	l5.6,5.8l-0.5,0.6c-0.9,1.2-1.8,2.5-2.6,3.7L130.6,108.4z M137.9,104.2c2.8-1.2,5.7-2.1,8.7-2.7c-0.8,2.8-2,5.5-3.6,7.9L137.9,104.2
	z M114.8,133.4c0.6-3,1.5-5.9,2.7-8.7l5.2,5.1C120.2,131.3,117.5,132.5,114.8,133.4L114.8,133.4z M121.8,134.3L121.8,134.3
	c4.8-2.2,9.4-4.9,13.6-8.1c5.3-4,9.4-10.9,12.1-17.6l0,0c10.7,2.4-0.6,17.3-4.5,21.2C139.2,133.8,124.2,145,121.8,134.3L121.8,134.3
	z M124.6,141.3c6.5,1.4,16.6-5.7,20.4-9.6s11-14,9.5-20.4c1.5,0.9,2.7,2.1,3.6,3.6c1.8,3,1.3,6,0.2,9.1c-1.7,4.5-4.4,9.8-7.9,13.3
	s-8.7,6.2-13.3,7.9c-3.1,1.1-6.1,1.6-9.1-0.2C126.7,144,125.5,142.8,124.6,141.3L124.6,141.3z M139.6,150.3
	c-2.4,0.1-4.8-0.4-6.9-1.3h0.5c3.3-0.2,6.8-1.9,9.7-3.4c3.2-1.7,7.1-3.8,9.7-6.3s4.4-6.1,6.1-9.1s3.3-6.6,3.6-10.1
	c0-0.3,0-0.5,0-0.8c0.9,2,1.3,4.2,1.3,6.4c0,6.2-2.3,13.4-6.8,17.9S145.6,150.2,139.6,150.3L139.6,150.3z M158.1,171.1
	c3.5,3.4,6.7,7,10.8,9.7c-4.1,2.7-7.3,6.3-10.8,9.7c-4.7,4.5-12.4,9.6-18.5,4.7c1.1-1.7,2-3.5,2.7-5.3c3.2,1.5,6.8,1.9,9.9,0
	c2.6-1.6,5.6-5.8,5.6-9c0-3-2.8-7.1-5.2-8.7c-3.2-2.2-7-1.8-10.4-0.3c-0.7-1.9-1.6-3.6-2.7-5.3C145.6,161.6,153.3,166.7,158.1,171.1
	L158.1,171.1z M143.2,174.4c2.6-1.3,5.4-1.7,7.9,0c1.9,1.2,3.8,4.1,3.7,6.4c-0.2,6.2-6.5,8.9-11.6,6.4c0.6-2.1,1-4.2,1-6.4
	C144.2,178.7,143.8,176.5,143.2,174.4L143.2,174.4z M133.2,163c4.6,4.3,8.3,11.4,8.3,17.8s-3.5,13-7.9,17.4
	c-1.6,1.6-3.4,2.8-5.5,3.6c0.1-0.1,0.3-0.2,0.4-0.4c2.2-2.5,3.5-6.1,4.4-9.2c1.1-3.5,2.4-7.7,2.4-11.4c0-3.5-1.2-7.5-2.2-10.8
	s-2.3-7-4.5-9.7c-0.2-0.2-0.3-0.4-0.5-0.5C130,160.6,131.7,161.7,133.2,163L133.2,163z M122.9,159.8c3,1,4.5,3.4,5.8,6.1
	c2,4.4,3.8,10.1,3.8,14.9s-1.8,10.6-3.8,14.9c-1.3,2.8-2.7,5.1-5.8,6.1c-1.9,0.6-4,0.6-5.9,0.2c5.7-3.5,7.7-15.7,7.7-21.2
	s-2.1-17.6-7.7-21.2C119,159.2,121,159.3,122.9,159.8L122.9,159.8z M110.1,162.7L110.1,162.7c9.3-5.8,11.8,12.7,11.8,18.2
	s-2.5,24-11.8,18.2H110c1.9-4.9,3.2-10.1,3.9-15.3C114.9,177.1,112.8,169.3,110.1,162.7L110.1,162.7z M109.7,180.8
	c0,1.2-0.1,2.4-0.3,3.6H98c-0.1,0-0.3,0-0.4,0.1c-0.1-1.2-0.2-2.4-0.2-3.7s0.1-2.5,0.2-3.7c0.1,0.1,0.3,0.1,0.4,0.1h11.5
	C109.6,178.4,109.7,179.6,109.7,180.8L109.7,180.8z M108,169.2L108,169.2c0.3,1.7,0.7,3.5,1,5.3H97.8c0.3-1.9,0.8-3.8,1.4-5.6
	c0.2,0.1,0.5,0.2,0.7,0.2L108,169.2z M104.4,158.3c1.4,2.6,2.4,5.3,3.1,8.1l-7.4-0.1C101.3,163.5,102.7,160.9,104.4,158.3
	L104.4,158.3z M76.7,180.9c0-4.3,7.7-5.1,10.9-4.5c-0.1,0.9-0.1,1.9-0.1,2.8l0,0c-2.4,1-5.9-1.9-7.6,1c-0.3,0.4-0.3,1,0,1.4
	c1.7,2.9,5.2,0,7.6,1l0,0c0,1,0.1,1.9,0.1,2.8C84.4,186,76.7,185.2,76.7,180.9z M90.4,197.9c0.3,0.7,0.6,1.3,0.8,2
	c-3.4,1.9-9.8,2.7-11.7-1.4c-2.3-4.8,4.6-8.8,8.5-9.2c0.2,1.2,0.4,2.4,0.7,3.5c-1.1,0.2-2.2,0.5-3.2,0.9c-1.1,0.4-2.4,0.9-2.9,2.1
	c-0.4,0.7-0.1,1.5,0.5,1.9c1.9,1,4.7-0.1,6.7-1.2C90,197,90.2,197.4,90.4,197.9L90.4,197.9z M90.4,163.8c-0.2,0.5-0.3,0.9-0.5,1.4
	c-2-1.1-4.8-2.2-6.7-1.2c-0.6,0.4-0.8,1.2-0.5,1.9c0.5,1.1,1.8,1.6,2.9,2.1c1,0.4,2.1,0.7,3.2,0.9c-0.3,1.2-0.6,2.4-0.7,3.5
	c-3.9-0.4-10.8-4.4-8.5-9.2c2-4.1,8.3-3.2,11.7-1.4C90.9,162.5,90.6,163.2,90.4,163.8L90.4,163.8z M98.6,150.1
	c-0.8,0.9-1.5,1.8-2.2,2.8c-0.7-0.6-1.5-1.2-2.4-1.7c-1.1-0.6-2.3-1.3-3.6-0.9c-0.7,0.2-1.2,0.9-1,1.7c0.2,1.3,1.5,2.1,2.4,2.8
	c0.7,0.5,1.5,1,2.3,1.3c-0.6,1-1.2,2-1.8,3.1c-3.7-1.7-8.7-6.7-5.4-10.6C89.9,145.3,95.8,147.6,98.6,150.1L98.6,150.1z M40,196.3
	c-1.2-1.3-2.4-2.5-3.6-3.8c1,0.3,2,0.4,3,0.5c2.1,0.1,4.2-0.7,5.7-2.2c0,0.2,0,0.4,0.1,0.6c0.1,0.8,0.3,1.6,0.5,2.4l-0.2,0.1
	c-1.4,1.4-3.4,1.9-5.3,2.3L40,196.3z M44.6,201.1L44.6,201.1l-2.4-2.5c1.5-0.3,3-1,4.3-1.9c0.3,0.9,0.6,1.9,0.9,2.8
	C46.7,200.3,45.7,200.8,44.6,201.1z M51.1,154c-0.9,1.7-1.8,3.4-2.5,5.1l-0.2,0.3c-0.6-0.4-1.2-0.8-1.8-1
	C48.1,156.9,49.6,155.4,51.1,154z M44.5,160.6L44.5,160.6c1.2,0.2,2.1,0.7,2.9,1.5c-0.3,0.9-0.7,1.9-0.9,2.8
	c-1.3-0.9-2.8-1.5-4.3-1.9L44.5,160.6z M40.1,165.4h0.2c1.9,0.4,3.9,0.9,5.3,2.3c0.1,0.1,0.1,0.1,0.2,0.1c-0.1,0.6-0.3,1.2-0.4,1.8
	c-0.1,0.4-0.1,0.8-0.2,1.2c-1.5-1.5-3.6-2.4-5.7-2.2c-1,0-2,0.2-3,0.5C37.7,167.9,38.9,166.7,40.1,165.4L40.1,165.4z M32.9,173.8
	c2.6-1.8,7.6-3.6,10.3-1c2.4,2.3,1.5,5.2,1.5,8.1s0.8,5.8-1.5,8.1s-6.9,1.1-9.5-0.4c-2.2-1.3-3.9-3.4-5.9-5c-1.4-1-2.8-1.9-4.3-2.7
	C26.9,178.8,29.5,176.2,32.9,173.8L32.9,173.8z M18.4,180.8L18.4,180.8L18.4,180.8L18.4,180.8z"/>
<linearGradient id="SVGID_2_" gradientUnits="userSpaceOnUse" x1="191.4389" y1="-355.2" x2="191.4389" y2="-156.9" gradientTransform="matrix(1 0 0 -1 0 -152)">
	<stop  offset="0" style="stop-color:#000000;stop-opacity:0.9"/>
	<stop  offset="0.15" style="stop-color:#000000;stop-opacity:0"/>
</linearGradient>
<path class="st1" d="M349.2,203.2H39.1c-6.3,0,0.8-10.2-26.8-21.4s0-111.3,0-176.9H374c0,66.2,19.9,170.6,0,178.6
	S357.5,203.2,349.2,203.2z"/>
<polygon class="st2" points="164.2,130.1 183,136.2 193.9,122.2 205.8,136.2 222.1,130.1 225.3,147.4 244.7,150.7 237.9,167.6 
	251.9,180.3 237.1,191.9 243.4,209.9 226,212 223.5,229.9 205.8,224.4 193.9,238.6 181.2,224.6 164.2,230.8 162,212.4 143,208.5 
	149.8,193 136.3,179.7 149.7,167.6 143.3,150.3 161.9,148.3 "/>
<linearGradient id="SVGID_3_" gradientUnits="userSpaceOnUse" x1="194.1" y1="-270.9" x2="194.1" y2="-393.6904" gradientTransform="matrix(1 0 0 -1 0 -152)">
	<stop  offset="0" style="stop-color:#2CFFAB"/>
	<stop  offset="1" style="stop-color:#746CFE"/>
</linearGradient>
<path class="st3" d="M132.6,180.4c2.9,2.5,5.8,5,8.8,7.4c2.1,1.7,4.3,3.4,6.4,5c-1,2.5-2.1,5-3.1,7.6c-1.4,3.6-2.7,7.1-3.9,10.8
	c3.7,0.8,7.5,1.4,11.3,2c2.7,0.4,5.4,0.8,8.1,1.1c0.4,2.7,0.7,5.4,1.1,8.1c0.6,3.8,1.2,7.5,2,11.3c3.6-1.2,7.2-2.5,10.8-3.9
	c2.5-1,5.1-2,7.6-3.1c1.7,2.2,3.3,4.3,5,6.4c2.4,3,4.8,5.9,7.4,8.8c2.5-2.9,5-5.8,7.4-8.8c1.7-2.1,3.4-4.3,5-6.4
	c2.5,1,5,2.1,7.6,3.1c3.6,1.4,7.1,2.7,10.8,3.9c0.8-3.7,1.4-7.5,2-11.3c0.4-2.7,0.8-5.4,1.1-8.1c2.7-0.4,5.4-0.7,8.1-1.1
	c3.8-0.6,7.5-1.2,11.3-2c-1.2-3.6-2.5-7.2-3.9-10.8c-1-2.5-2-5-3.1-7.6c2.2-1.7,4.3-3.3,6.4-5c3-2.4,5.9-4.8,8.8-7.4
	c-2.9-2.5-5.8-5-8.8-7.4c-2.1-1.7-4.3-3.4-6.4-5c1-2.5,2.1-5,3.1-7.6c1.4-3.6,2.7-7.1,3.9-10.8c-3.7-0.8-7.5-1.4-11.3-2
	c-2.7-0.4-5.4-0.8-8.1-1.1c-0.4-2.7-0.7-5.4-1.1-8.1c-0.6-3.8-1.2-7.5-2-11.3c-3.6,1.2-7.2,2.5-10.8,3.9c-2.5,1-5,2-7.6,3.1
	c-1.7-2.2-3.3-4.3-5-6.4c-2.4-3-4.8-5.9-7.4-8.8c-2.5,2.8-5,5.8-7.4,8.8c-1.7,2.1-3.4,4.3-5,6.4c-2.5-1-5-2.1-7.6-3.1
	c-3.6-1.4-7.1-2.7-10.8-3.9c-0.8,3.7-1.4,7.5-2,11.3c-0.4,2.7-0.8,5.4-1.1,8.1c-2.7,0.4-5.4,0.7-8.1,1.1c-3.8,0.6-7.5,1.2-11.3,2
	c1.2,3.6,2.5,7.2,3.9,10.8c1,2.5,2,5.1,3.1,7.6c-2.2,1.7-4.3,3.3-6.4,5C138.4,175.4,135.5,177.9,132.6,180.4z M157.7,190.1
	c1.6-2.5,3.8-4.5,6.4-5.8c3.6-2,7.7-3,11.9-3.1c3,0,5.9,0.6,8.7,1.7c-1.9,2.3-4.1,4.3-6.7,5.8c-3.6,2-7.7,3.1-11.8,3.2
	C163.2,192.1,160.3,191.5,157.7,190.1z M157.7,170.6c2.6-1.3,5.5-2,8.4-1.8c4.1,0.1,8.2,1.2,11.8,3.2c2.6,1.5,4.8,3.5,6.7,5.8
	c-2.8,1.1-5.7,1.6-8.7,1.7c-4.1-0.1-8.2-1.1-11.9-3.1C161.5,175.1,159.3,173.1,157.7,170.6z M167.5,153.8c2.9,0.1,5.8,1.1,8.2,2.7
	c3.5,2.2,6.5,5.2,8.6,8.7c1.4,2.6,2.4,5.4,2.9,8.3c-2.9-0.5-5.8-1.4-8.3-2.9c-3.6-2.1-6.6-5.1-8.7-8.6
	C168.5,159.5,167.6,156.7,167.5,153.8z M184.4,144c2.5,1.6,4.5,3.8,5.8,6.4c2,3.6,3,7.7,3.1,11.9c0,3-0.6,5.9-1.7,8.7
	c-2.3-1.9-4.3-4.1-5.8-6.7c-2-3.6-3.1-7.7-3.2-11.8C182.5,149.8,182.9,146.4,184.4,144z M203.9,144c1.3,2.6,2,5.5,1.8,8.4
	c-0.1,4.1-1.2,8.2-3.2,11.8c-1.5,2.6-3.5,4.8-5.8,6.7c-1.1-2.8-1.6-5.7-1.7-8.7c0.1-4.2,1.1-8.2,3.1-11.9
	C199.4,147.8,201.4,145.6,203.9,144z M220.8,153.8c0.1,2.8-1.3,6-2.7,8.2c-2.2,3.5-5.2,6.5-8.7,8.6c-2.6,1.5-5.4,2.4-8.3,2.9
	c0.5-2.9,1.4-5.8,2.9-8.3c2.1-3.6,5.1-6.6,8.6-8.7C215,154.8,217.8,153.9,220.8,153.8z M230.5,170.6c-1.6,2.5-3.8,4.5-6.4,5.8
	c-3.7,2-7.7,3-11.9,3.1c-3,0-5.9-0.6-8.7-1.7c1.9-2.3,4.1-4.3,6.7-5.8c3.6-2,7.7-3.1,11.8-3.2C224.7,168.8,228.1,169.2,230.5,170.6z
	 M230.5,190.1c-2.6,1.3-5.5,2-8.4,1.8c-4.1-0.1-8.2-1.2-11.8-3.2c-2.6-1.5-4.8-3.5-6.7-5.8c2.8-1.1,5.7-1.6,8.7-1.7
	c4.2,0.1,8.2,1.1,11.9,3.1C226.7,185.7,228.9,187.7,230.5,190.1z M220.8,207c-2.8,0.1-6-1.3-8.2-2.7c-3.5-2.2-6.5-5.2-8.6-8.7
	c-1.5-2.6-2.4-5.4-2.9-8.3c2.9,0.5,5.8,1.4,8.3,2.9c3.6,2.1,6.5,5.1,8.7,8.6C219.5,201.1,220.8,204.3,220.8,207z M203.9,216.8
	c-2.4-1.3-4.5-4.1-5.8-6.4c-2-3.6-3-7.7-3.1-11.8c0-3,0.6-5.9,1.7-8.7c2.3,1.9,4.3,4.1,5.8,6.7c2,3.6,3.1,7.7,3.2,11.8
	C205.8,211.3,205.2,214.2,203.9,216.8L203.9,216.8z M184.4,216.8c-1.4-2.4-1.9-5.8-1.8-8.4c0.1-4.1,1.2-8.2,3.2-11.8
	c1.5-2.5,3.5-4.8,5.8-6.7c1.1,2.8,1.6,5.7,1.7,8.7c-0.1,4.2-1.1,8.2-3.1,11.9C188.8,213,186.8,215.2,184.4,216.8L184.4,216.8z
	 M167.5,207c0.1-2.9,1.1-5.8,2.7-8.2c2.2-3.5,5.2-6.5,8.7-8.6c2.6-1.5,5.4-2.4,8.3-2.9c-0.5,2.9-1.4,5.8-2.9,8.3
	c-2.1,3.6-5.1,6.5-8.6,8.7C173.4,205.8,170.2,207.1,167.5,207z M188.6,177.2c-0.4,0.4-0.8,0.8-1.2,1.2c-0.7-1-1.5-2-2.3-2.9
	c0.1-0.1,0.2-0.2,0.3-0.3l0.1-0.4c1.2,0.3,2.4,0.5,3.6,0.6C188.9,176.1,188.8,176.7,188.6,177.2L188.6,177.2z M190.9,174.8
	c-0.6,0.2-1.1,0.3-1.7,0.4c-0.1-1.2-0.3-2.4-0.6-3.6l0.4-0.1c0.1-0.1,0.2-0.2,0.3-0.3c0.9,0.8,1.9,1.6,2.9,2.3
	C191.8,174.1,191.4,174.5,190.9,174.8L190.9,174.8z M194.1,174c-0.6-0.1-1.1-0.3-1.7-0.5c0.5-1.1,1-2.2,1.3-3.4l0.4,0.1l0.4-0.1
	c0.4,1.2,0.8,2.3,1.3,3.4C195.2,173.7,194.7,173.9,194.1,174L194.1,174z M197.3,174.8c-0.4-0.4-0.8-0.8-1.2-1.2c1-0.7,2-1.5,2.9-2.3
	l0.3,0.3l0.4,0.1c-0.3,1.2-0.5,2.4-0.6,3.6C198.4,175.2,197.9,175.1,197.3,174.8L197.3,174.8z M199.6,177.2
	c-0.2-0.6-0.3-1.1-0.4-1.7c1.2-0.1,2.4-0.3,3.6-0.6l0.1,0.4l0.3,0.3c-0.8,0.9-1.6,1.9-2.3,2.9C200.4,178,200,177.6,199.6,177.2
	L199.6,177.2z M200.5,180.4c0.1-0.6,0.3-1.1,0.5-1.7c1.1,0.5,2.3,1,3.4,1.3c0,0.1-0.1,0.2-0.1,0.4s0.1,0.2,0.1,0.4
	c-1.2,0.4-2.3,0.8-3.4,1.3C200.8,181.5,200.6,181,200.5,180.4L200.5,180.4z M199.6,183.5c0.4-0.4,0.8-0.8,1.3-1.2
	c0.7,1,1.5,2,2.3,2.9l-0.3,0.3l-0.1,0.4c-1.2-0.3-2.4-0.5-3.6-0.6C199.3,184.7,199.5,184.1,199.6,183.5L199.6,183.5z M197.3,185.9
	c0.6-0.2,1.1-0.3,1.7-0.4c0.1,1.2,0.3,2.4,0.6,3.6l-0.4,0.1l-0.3,0.3c-0.9-0.8-1.9-1.6-2.9-2.3C196.5,186.7,196.9,186.3,197.3,185.9
	L197.3,185.9z M194.1,186.7c0.6,0.1,1.1,0.3,1.7,0.5c-0.5,1.1-1,2.3-1.3,3.4l-0.4-0.1l-0.4,0.1c-0.4-1.2-0.8-2.3-1.3-3.4
	C193,187.1,193.6,186.9,194.1,186.7L194.1,186.7z M190.9,185.9c0.4,0.4,0.8,0.8,1.2,1.3c-1,0.7-2,1.5-2.9,2.3l-0.3-0.3l-0.4-0.1
	c0.3-1.2,0.5-2.4,0.6-3.6C189.8,185.6,190.4,185.8,190.9,185.9L190.9,185.9z M188.6,183.5c0.2,0.6,0.3,1.1,0.4,1.7
	c-1.2,0.1-2.4,0.3-3.6,0.6l-0.1-0.4c-0.1-0.1-0.2-0.2-0.3-0.3c0.8-0.9,1.6-1.9,2.3-2.9C187.8,182.8,188.2,183.2,188.6,183.5
	L188.6,183.5z M187.8,180.4c-0.1,0.6-0.3,1.1-0.5,1.7c-1.1-0.5-2.3-1-3.4-1.3c0-0.1,0.1-0.2,0.1-0.4s-0.1-0.2-0.1-0.4
	c1.2-0.4,2.3-0.8,3.4-1.3C187.5,179.3,187.6,179.8,187.8,180.4L187.8,180.4z M171.6,167.4l-0.1,0.4c-1.2-0.3-2.4-0.5-3.6-0.6
	c0.1-0.6,0.3-1.1,0.4-1.7c0.4-0.4,0.8-0.8,1.3-1.2c0.7,1,1.5,2,2.3,2.9L171.6,167.4z M181.1,157.8c-0.1,0.1-0.2,0.2-0.3,0.3
	c-0.9-0.8-1.9-1.6-2.9-2.3c0.4-0.4,0.8-0.9,1.2-1.3c0.6-0.2,1.1-0.3,1.7-0.4c0.1,1.2,0.3,2.4,0.6,3.6L181.1,157.8z M194.1,154.3
	l-0.4,0.1c-0.4-1.2-0.8-2.3-1.3-3.4c0.6-0.2,1.1-0.3,1.7-0.5c0.6,0.1,1.1,0.3,1.7,0.5c-0.5,1.1-1,2.3-1.3,3.4L194.1,154.3z
	 M207.1,157.8l-0.4-0.1c0.3-1.2,0.5-2.4,0.6-3.6c0.6,0.1,1.1,0.3,1.7,0.4c0.4,0.4,0.8,0.8,1.2,1.3c-1,0.7-2,1.5-2.9,2.3
	C207.3,158,207.2,157.9,207.1,157.8L207.1,157.8z M216.6,167.4c-0.1-0.1-0.2-0.2-0.3-0.3c0.8-0.9,1.6-1.9,2.3-2.9
	c0.4,0.4,0.9,0.8,1.2,1.2c0.2,0.6,0.3,1.1,0.4,1.7c-1.2,0.1-2.4,0.3-3.6,0.6C216.7,167.6,216.7,167.5,216.6,167.4L216.6,167.4z
	 M220.1,180.4c0-0.1-0.1-0.2-0.1-0.4c1.2-0.4,2.3-0.8,3.4-1.3c0.2,0.6,0.3,1.1,0.5,1.7c-0.1,0.6-0.3,1.1-0.5,1.7
	c-1.1-0.5-2.3-1-3.4-1.3C220.1,180.6,220.1,180.5,220.1,180.4L220.1,180.4z M216.6,193.4c0-0.1,0.1-0.2,0.1-0.4
	c1.2,0.3,2.4,0.5,3.6,0.6c-0.1,0.6-0.3,1.1-0.4,1.7c-0.4,0.4-0.8,0.8-1.2,1.2c-0.7-1-1.5-2-2.3-2.9L216.6,193.4z M207.1,203l0.3-0.3
	c0.9,0.8,1.9,1.6,2.9,2.3c-0.4,0.4-0.8,0.9-1.2,1.2c-0.6,0.2-1.1,0.3-1.7,0.4c-0.1-1.2-0.3-2.4-0.6-3.6L207.1,203z M194.1,206.5
	l0.4-0.1c0.4,1.2,0.8,2.3,1.3,3.4c-0.6,0.2-1.1,0.3-1.7,0.5c-0.6-0.1-1.1-0.3-1.7-0.5c0.5-1.1,1-2.3,1.3-3.4L194.1,206.5z
	 M181.1,203l0.4,0.1c-0.3,1.2-0.5,2.4-0.6,3.6c-0.6-0.1-1.1-0.3-1.7-0.4c-0.4-0.4-0.8-0.8-1.2-1.2c1-0.7,2-1.5,2.9-2.3
	C180.9,202.8,181,202.9,181.1,203L181.1,203z M171.6,193.5c0.1,0.1,0.2,0.2,0.3,0.3c-0.8,0.9-1.6,1.9-2.3,2.9
	c-0.4-0.4-0.9-0.8-1.3-1.2c-0.2-0.6-0.3-1.1-0.4-1.7c1.2-0.1,2.4-0.3,3.6-0.6L171.6,193.5z M168.1,180.5l0.1,0.4
	c-1.2,0.4-2.3,0.8-3.4,1.3c-0.2-0.6-0.3-1.1-0.5-1.7c0.1-0.6,0.3-1.1,0.5-1.7c1.1,0.5,2.3,1,3.4,1.3L168.1,180.5z M180.8,208.7
	c-0.1,0-0.1-0.1-0.2-0.2 M196.7,211.6l-0.2-0.1L196.7,211.6C196.7,211.5,196.7,211.5,196.7,211.6L196.7,211.6z M211.9,206.1
	l-0.2,0.1L211.9,206.1L211.9,206.1z M222.4,193.8l-0.2,0.2c0-0.1,0-0.1,0-0.2H222.4z M225.3,177.9c0,0.1,0,0.1-0.1,0.2
	C225.2,178.1,225.2,178,225.3,177.9L225.3,177.9z M219.8,162.7c0,0.1,0,0.2,0.1,0.2L219.8,162.7
	C219.7,162.8,219.8,162.7,219.8,162.7L219.8,162.7z M207.5,152.3l0.2,0.2L207.5,152.3L207.5,152.3z M191.6,149.4l0.2,0.1
	L191.6,149.4L191.6,149.4z M176.4,154.8l0.2-0.1L176.4,154.8L176.4,154.8z M165.9,167.1c0.1-0.1,0.1-0.1,0.1,0H165.9z M207.5,208.5
	h0.2l-0.2,0.2V208.5z M219.7,198.1l0.1-0.1C219.8,198.1,219.7,198.2,219.7,198.1L219.7,198.1z M225.1,183c0-0.1,0-0.1,0-0.2
	C225.2,182.9,225.2,182.9,225.1,183L225.1,183z M222.2,167.1c0-0.1,0-0.1,0-0.2s0.1,0.1,0.2,0.2H222.2z M211.8,154.9l-0.1-0.1
	L211.8,154.9L211.8,154.9z M196.6,149.5h-0.2H196.6L196.6,149.5z M180.8,152.4l-0.2,0.1L180.8,152.4L180.8,152.4z M151.6,180.4
	l-0.4,0.6l-1.2-0.6l1.2-0.6L151.6,180.4z M157.3,159.2l-0.7,0.3c-0.2-0.4-0.5-0.7-0.7-1.1l1.3,0.1
	C157.3,158.7,157.3,158.9,157.3,159.2z M172.9,143.6l-0.7-0.1l-0.1-1.3c0.4,0.2,0.8,0.5,1.1,0.7C173.1,143.2,173,143.4,172.9,143.6z
	 M194.1,137.9l-0.6-0.4c0.2-0.4,0.4-0.8,0.6-1.2l0.6,1.2L194.1,137.9z M215.3,143.6L215,143l1.1-0.7c0,0.4,0,0.9,0,1.3H215.3z
	 M230.9,159.2l0.1-0.7l1.3-0.1l-0.7,1.1L230.9,159.2z M236.6,180.4l0.4-0.6l1.2,0.6L237,181L236.6,180.4z M230.9,201.6l0.7-0.3
	l0.7,1.1H231L230.9,201.6z M215.3,217.2l0.7,0.1c0,0.4,0,0.9,0,1.3l-1.1-0.7C215.1,217.6,215.2,217.4,215.3,217.2L215.3,217.2z
	 M194.1,222.9l0.6,0.4l-0.6,1.2c-0.2-0.4-0.4-0.8-0.6-1.2L194.1,222.9z M172.9,217.2c0.1,0.2,0.2,0.4,0.3,0.7l-1.1,0.7l0.1-1.3
	L172.9,217.2z M157.3,201.6c0,0.2,0,0.5-0.1,0.7H156c0.2-0.4,0.5-0.7,0.7-1.1L157.3,201.6z M146.5,180.4c1.3,0.7,2.5,1.4,3.8,2.1
	c-1.2,1.6-1.9,3.6-2.1,5.6l-1.2-0.9c-2.8-2.2-5.5-4.5-8.1-6.8c2.7-2.3,5.4-4.6,8.1-6.8l1.2-0.9c0.2,2,0.9,4,2.1,5.6
	C149,179,147.7,179.7,146.5,180.4z M152.8,156.6c0.7,1.3,1.5,2.5,2.3,3.7c-1.9,0.8-3.5,2.2-4.6,3.8c-0.2-0.5-0.4-0.9-0.6-1.4
	c-1.3-3.3-2.5-6.6-3.7-9.9c3.5-0.7,6.9-1.3,10.4-1.8l1.5-0.2c-0.9,1.8-1.2,3.9-1,5.9C155.7,156.6,154.3,156.6,152.8,156.6
	L152.8,156.6z M170.3,139.1c0,1.4,0,2.9,0.1,4.4c-2-0.2-4.1,0.1-5.9,1c0.1-0.5,0.1-1,0.2-1.5c0.5-3.5,1.1-7,1.8-10.4
	c3.3,1.1,6.6,2.4,9.9,3.7l1.4,0.6c-1.7,1.1-3,2.7-3.8,4.6C172.8,140.6,171.6,139.8,170.3,139.1L170.3,139.1z M194.1,132.7
	c-0.7,1.3-1.4,2.5-2.1,3.8c-1.6-1.2-3.6-1.9-5.6-2.1c0.3-0.4,0.6-0.8,0.9-1.2c2.2-2.8,4.4-5.5,6.8-8.1c2.3,2.7,4.6,5.4,6.8,8.1
	c0.3,0.4,0.6,0.8,0.9,1.2c-2,0.2-4,0.9-5.6,2.1C195.6,135.3,194.9,134,194.1,132.7L194.1,132.7z M218,139.1
	c-1.3,0.7-2.5,1.5-3.7,2.3c-0.8-1.9-2.2-3.5-3.8-4.6l1.4-0.6c3.3-1.3,6.6-2.5,9.9-3.7c0.7,3.5,1.3,6.9,1.8,10.4
	c0.1,0.5,0.1,1,0.2,1.5c-1.8-0.9-3.9-1.2-5.9-1C217.9,142,218,140.6,218,139.1z M235.4,156.6c-1.4,0-2.9,0-4.3,0.1
	c0.2-2-0.1-4.1-1-5.9l1.5,0.2c3.5,0.5,7,1.1,10.4,1.8c-1.1,3.3-2.4,6.6-3.7,9.9c-0.2,0.5-0.4,0.9-0.6,1.4c-1.2-1.7-2.7-3-4.6-3.8
	C233.9,159.1,234.7,157.8,235.4,156.6L235.4,156.6z M241.8,180.4c-1.3-0.7-2.5-1.4-3.8-2.1c1.2-1.6,1.9-3.6,2.1-5.6l1.2,0.9
	c2.8,2.2,5.5,4.4,8.1,6.8c-2.7,2.3-5.4,4.6-8.1,6.8l-1.2,0.9c-0.2-2-0.9-4-2.1-5.6C239.3,181.8,240.5,181.1,241.8,180.4L241.8,180.4
	z M235.4,204.2c-0.7-1.3-1.5-2.5-2.3-3.7c1.9-0.8,3.5-2.2,4.6-3.8c0.2,0.5,0.4,0.9,0.6,1.4c1.3,3.3,2.5,6.6,3.7,9.9
	c-3.5,0.7-6.9,1.3-10.4,1.8L230,210c0.9-1.8,1.2-3.9,1-5.9C232.5,204.2,234,204.2,235.4,204.2L235.4,204.2z M218,221.7
	c0-1.4,0-2.9-0.1-4.3c2,0.2,4.1-0.1,5.9-1c-0.1,0.5-0.1,1-0.2,1.5c-0.5,3.5-1.1,7-1.8,10.4c-3.3-1.1-6.6-2.4-9.9-3.7l-1.4-0.6
	c1.7-1.1,3-2.7,3.8-4.6C215.4,220.2,216.7,221,218,221.7z M194.2,228.1c0.7-1.3,1.4-2.5,2.1-3.8c1.6,1.2,3.6,1.9,5.6,2.1
	c-0.3,0.4-0.6,0.8-0.9,1.2c-2.2,2.8-4.5,5.5-6.8,8.1c-2.3-2.7-4.6-5.4-6.8-8.1l-0.9-1.2c2-0.2,4-0.9,5.6-2.1
	C192.7,225.5,193.4,226.8,194.2,228.1L194.2,228.1z M170.3,221.7c1.3-0.7,2.5-1.5,3.7-2.3c0.8,1.9,2.2,3.4,3.8,4.6l-1.4,0.6
	c-3.3,1.3-6.6,2.5-9.9,3.7c-0.7-3.5-1.3-6.9-1.8-10.4c-0.1-0.5-0.1-1-0.2-1.5c1.8,0.9,3.9,1.2,5.9,1
	C170.3,218.8,170.3,220.2,170.3,221.7L170.3,221.7z M152.9,204.2c1.4,0,2.9,0,4.4-0.1c-0.2,2,0.1,4.1,1,5.9l-1.5-0.2
	c-3.5-0.5-7-1.1-10.4-1.8c1.1-3.3,2.4-6.6,3.7-9.9c0.2-0.5,0.4-0.9,0.6-1.4c1.1,1.7,2.7,3,4.6,3.8
	C154.3,201.7,153.6,203,152.9,204.2L152.9,204.2z M190.4,181.4c0-0.3-0.1-0.7-0.1-1s0-0.7,0.1-1s0.3-0.6,0.4-0.9
	c0.3-0.6,0.8-1.1,1.4-1.4c0.3-0.2,0.6-0.3,0.9-0.4s0.7-0.1,1-0.1s0.7,0,1,0.1s0.6,0.3,0.9,0.4c0.3,0.2,0.6,0.4,0.8,0.6
	c0.2,0.3,0.4,0.5,0.6,0.8s0.3,0.6,0.4,0.9c0.1,0.7,0.1,1.3,0,2c-0.1,0.3-0.3,0.6-0.4,0.9c-0.2,0.3-0.4,0.6-0.6,0.8s-0.6,0.4-0.8,0.6
	c-0.3,0.2-0.6,0.3-0.9,0.4c-0.7,0.1-1.3,0.1-2,0c-0.3-0.1-0.6-0.3-0.9-0.4s-0.6-0.4-0.8-0.6c-0.2-0.3-0.4-0.5-0.6-0.8
	C190.6,182,190.5,181.7,190.4,181.4L190.4,181.4z M161.8,180.4c0,0.7-0.1,1.4-0.3,2.1c-0.5,1.7-2.5,2.7-3.7,3.9
	c-1.3,1.3-2.4,2.9-3.1,4.6c1.5,1.2,3.2,2,5,2.4c1.6,0.4,3.8,0.3,5.1,1.6c1,1,1.7,2.2,2.1,3.6c0.4,1.7-0.8,3.6-1.2,5.2
	c-0.5,1.8-0.7,3.7-0.4,5.5c1.8,0.3,3.7,0.1,5.5-0.4c1.6-0.4,3.5-1.6,5.2-1.2c0.7,0.2,1.3,0.4,1.9,0.8c0.6,0.4,1.2,0.8,1.6,1.3
	c1.2,1.3,1.1,3.5,1.6,5.1c0.4,1.8,1.3,3.5,2.4,5c1.7-0.7,3.3-1.8,4.6-3.1c1.2-1.2,2.2-3.1,3.9-3.7c1.4-0.4,2.8-0.4,4.1,0
	c1.7,0.5,2.7,2.5,3.9,3.7c1.3,1.3,2.9,2.4,4.6,3.1c1.1-1.5,2-3.2,2.4-5c0.4-1.6,0.3-3.9,1.6-5.1c0.5-0.5,1-0.9,1.6-1.3
	c0.6-0.3,1.3-0.6,1.9-0.8c1.7-0.4,3.6,0.8,5.2,1.2c1.8,0.5,3.7,0.7,5.5,0.4c0.3-1.8,0.1-3.7-0.4-5.5c-0.4-1.6-1.6-3.5-1.2-5.2
	c0.2-0.7,0.4-1.3,0.8-1.9c0.4-0.6,0.8-1.1,1.3-1.6c1.3-1.2,3.5-1.1,5.1-1.6c1.8-0.4,3.5-1.3,5-2.4c-0.7-1.7-1.8-3.3-3.1-4.6
	c-1.2-1.2-3.1-2.2-3.7-3.9c-0.4-1.4-0.4-2.8,0-4.1c0.5-1.7,2.5-2.7,3.7-3.9c1.3-1.3,2.4-2.9,3.1-4.6c-1.5-1.2-3.2-2-5-2.4
	c-1.6-0.4-3.9-0.3-5.1-1.6c-0.5-0.5-0.9-1-1.3-1.6c-0.3-0.6-0.6-1.3-0.8-1.9c-0.4-1.7,0.8-3.6,1.2-5.2c0.5-1.8,0.7-3.7,0.4-5.5
	c-1.8-0.3-3.7-0.1-5.5,0.4c-1.6,0.4-3.5,1.6-5.2,1.2c-1.4-0.3-2.6-1.1-3.6-2.1c-1.2-1.3-1.1-3.5-1.6-5.1c-0.4-1.8-1.3-3.5-2.4-5
	c-1.7,0.7-3.3,1.8-4.6,3.1c-1.2,1.2-2.2,3.2-3.9,3.7c-1.4,0.4-2.8,0.4-4.1,0c-1.7-0.5-2.7-2.5-3.9-3.7c-1.3-1.3-2.8-2.4-4.6-3.1
	c-1.2,1.5-2,3.2-2.4,5c-0.4,1.6-0.3,3.8-1.6,5.1c-0.5,0.5-1,0.9-1.6,1.3c-0.6,0.3-1.3,0.6-1.9,0.8c-1.7,0.4-3.6-0.8-5.2-1.2
	c-1.8-0.5-3.7-0.7-5.5-0.4c-0.3,1.8-0.1,3.7,0.4,5.5c0.4,1.6,1.6,3.5,1.2,5.2c-0.2,0.7-0.4,1.3-0.8,1.9c-0.4,0.6-0.8,1.2-1.3,1.6
	c-1.3,1.2-3.5,1.1-5.1,1.6c-1.8,0.4-3.5,1.3-5,2.4c0.7,1.7,1.8,3.3,3.1,4.6c1.2,1.2,3.2,2.2,3.7,3.9
	C161.7,179,161.8,179.7,161.8,180.4L161.8,180.4z M152.6,191.6l-2-1.6c-0.9-2.6,2-5.6,3.3-7.5c0.4-0.7,0.9-1.4,1.3-2
	c-0.4-0.7-0.9-1.4-1.3-2c-1.3-1.9-4.2-5-3.3-7.5l2-1.6l-0.9-2.4c0.5-2.7,4.5-3.9,6.6-4.9c0.7-0.4,1.4-0.7,2.1-1.1
	c0-0.8-0.1-1.6-0.1-2.4c-0.1-2.3-1.1-6.4,0.9-8.2l2.5-0.4c0.1-0.8,0.3-1.7,0.4-2.5c1.8-2.1,5.9-1.1,8.2-0.9c0.8,0,1.6,0.1,2.4,0.1
	c0.4-0.7,0.7-1.4,1.1-2.1c1-2.1,2.2-6.1,4.9-6.6l2.4,0.9l1.6-2c2.6-0.9,5.6,2,7.5,3.3c0.7,0.4,1.3,0.9,2,1.3c0.7-0.4,1.4-0.9,2-1.3
	c1.9-1.3,5-4.2,7.5-3.3l1.6,2l2.4-0.9c2.7,0.5,3.8,4.5,4.9,6.6c0.4,0.7,0.7,1.4,1.1,2.1l2.4-0.1c2.3-0.1,6.4-1.1,8.2,0.9
	c0.1,0.8,0.3,1.7,0.4,2.5l2.5,0.4c2,1.8,1.1,5.9,0.9,8.2c-0.1,0.8-0.1,1.6-0.1,2.4c0.7,0.4,1.4,0.7,2.2,1.1c2.1,1,6.1,2.2,6.6,4.9
	l-0.9,2.4l2,1.6c0.9,2.6-2,5.6-3.3,7.5c-0.4,0.7-0.9,1.3-1.3,2c0.4,0.7,0.9,1.4,1.3,2c1.3,1.9,4.2,5,3.3,7.5l-2,1.6l0.9,2.4
	c-0.5,2.7-4.5,3.8-6.6,4.9c-0.7,0.4-1.4,0.7-2.2,1.1c0,0.8,0.1,1.6,0.1,2.4c0.1,2.3,1.1,6.4-0.9,8.2l-2.5,0.4
	c-0.1,0.8-0.3,1.7-0.4,2.5c-1.8,2-5.9,1.1-8.2,0.9c-0.8-0.1-1.6-0.1-2.4-0.1c-0.4,0.7-0.8,1.4-1.1,2.2c-1,2.1-2.2,6.1-4.9,6.6
	l-2.4-0.9l-1.6,2c-2.6,0.9-5.6-2-7.5-3.3l-2-1.3c-0.7,0.4-1.4,0.9-2,1.3c-1.9,1.3-5,4.2-7.5,3.3l-1.6-2l-2.4,0.9
	c-2.7-0.5-3.9-4.5-4.9-6.6c-0.4-0.7-0.7-1.4-1.1-2.2c-0.8,0-1.6,0.1-2.4,0.1c-2.3,0.1-6.4,1.1-8.2-0.9c-0.1-0.8-0.3-1.7-0.4-2.5
	l-2.5-0.4c-2.1-1.8-1.1-5.9-0.9-8.2c0-0.8,0.1-1.6,0.1-2.4c-0.7-0.4-1.4-0.8-2.1-1.1c-2.1-1-6.1-2.2-6.6-4.9L152.6,191.6z"/>
</svg>
