<?xml version="1.0" encoding="utf-8"?>
<!-- Generator: Adobe Illustrator 24.1.2, SVG Export Plug-In . SVG Version: 6.00 Build 0)  -->
<svg version="1.1" id="Layer_1" xmlns="http://www.w3.org/2000/svg" xmlns:xlink="http://www.w3.org/1999/xlink" x="0px" y="0px"
	 viewBox="0 0 382.8 241.9" style="enable-background:new 0 0 382.8 241.9;" xml:space="preserve">
<style type="text/css">
	.st0{fill:#351c91;}
	.st1{opacity:0.7;fill:url(#SVGID_1_);enable-background:new    ;}
	.st2{fill:#130F1D;}
	.st3{fill:url(#SVGID_2_);}
</style>
<path class="st0" d="M14.2,182.2c10.7,3.4,17.9,12.7,25.3,20.6h8.2c0.3-0.2,0.5-0.3,0.8-0.5c0,0.1,0,0.1,0.1,0.2
	c0,0.1,0.1,0.2,0.2,0.3h3c-0.5-1.2-1-2.3-1.4-3.5c-2.3-6.2-2.5-12-2.5-18.5s0.2-12.3,2.5-18.5s5.9-12.9,11.5-16.6
	c5.7-3.4,12.1-5.7,18.9-5.1c2.7,0.2,5.3,0.9,7.8,2c-2.6,0.3-4.9,2-6,4.4c-1.5,2.9-1.3,6.4,0.7,9c-3.6,0.2-6.8,1.8-8.2,5.9
	c-1.4,4.3,0.5,8.4,3.8,11c-3.6,1.1-6.6,3.6-6.6,8s2.9,6.9,6.6,8c-3.3,2.6-5.2,6.8-3.8,11c0.3,1.1,0.9,2.1,1.6,2.9h15.2
	c0.2-0.1,0.4-0.2,0.6-0.3l0.2,0.3h3.1c-1.1-1.9-2-3.8-2.8-5.8c-2-5.1-3-10.6-2.8-16.1c0-5.4,0.4-10.1,2.4-15.2
	c1.9-5,4.7-9.6,8.1-13.7l0.3,0.4c0.5,0.6,1,1.3,1.5,1.9l0.6,1c-5.4,7.9-8.5,15.9-8.5,25.5c0,7.7,2.2,15.3,6.2,21.9h3.2
	c-1.5-2.4-2.8-4.8-3.9-7.4l7.3-0.1c-0.6,2.6-1.5,5.1-2.8,7.5H135c1.1-0.9,2.1-1.8,3.1-2.9c1.6,1.2,3.6,1.8,5.6,1.8
	c-0.3,0.3-0.7,0.7-0.9,1.1h6.4c3.4-2.4,8.4-3.2,12.5-3.3c4.9-0.1,9.7,0.2,14.5-0.8c-0.3,1.3-0.4,2.7-0.5,4.1h3.2
	c0.2-2.1,0.6-4.1,1.2-6.1c0.1-0.9-0.4-1.7-1.3-1.8c-0.2,0-0.3,0-0.5,0c-6,1.7-11.6,1.7-17.7,1.1c-0.9-0.1-1.8-0.1-2.7-0.1
	c0.8-0.8,1.5-1.6,2.2-2.5c3.6-4.6,8-8.4,13-11.3c0.7-0.5,0.9-1.5,0.4-2.2c-0.1-0.1-0.2-0.3-0.4-0.4c-5-2.9-9.5-6.7-13-11.3
	c-0.7-0.9-1.4-1.7-2.2-2.5c0.9,0,1.8,0,2.7-0.1c6.1-0.6,11.7-0.6,17.7,1.1c0.9,0.2,1.7-0.4,1.9-1.3c0-0.2,0-0.3,0-0.5
	c-1.7-6-1.7-11.6-1.1-17.7c0.1-0.9,0.1-1.8,0.1-2.7c0.8,0.8,1.6,1.5,2.5,2.2c4.6,3.5,8.4,8,11.3,13c0.2,0.5,0.8,0.7,1.3,0.6
	c0.5,0.1,1.1-0.2,1.3-0.6c2.9-5,6.7-9.5,11.3-13c0.9-0.7,1.7-1.4,2.5-2.2c0,0.9,0,1.8,0.1,2.7c0.6,6.1,0.6,11.7-1.1,17.7
	c-0.1,0.9,0.4,1.7,1.3,1.9c0.2,0,0.3,0,0.5,0c6-1.7,11.6-1.7,17.7-1.1c0.9,0.1,1.8,0.1,2.7,0.1c-0.8,0.8-1.5,1.6-2.2,2.5
	c-3.5,4.6-8,8.4-13,11.3c-0.7,0.5-0.9,1.5-0.4,2.2c0.1,0.1,0.2,0.3,0.4,0.4c5,2.9,9.5,6.7,13,11.3c0.7,0.9,1.4,1.7,2.2,2.5
	c-0.9,0-1.8,0.1-2.7,0.1c-6.1,0.6-11.7,0.6-17.7-1.1c-0.9-0.1-1.7,0.5-1.8,1.3c0,0.2,0,0.3,0,0.5c0.6,2,1,4,1.2,6.1h3.2
	c-0.1-1.4-0.3-2.7-0.5-4.1c4.8,0.9,9.6,0.7,14.5,0.8c4.1,0.1,9.1,0.9,12.5,3.3h6.4c-0.3-0.4-0.6-0.8-0.9-1.1c2,0,4-0.6,5.6-1.8
	c0.9,1.1,2,2,3.1,2.9h30.4c-1.3-2.4-2.2-4.9-2.8-7.5l7.4,0.1c-1.1,2.6-2.4,5.1-3.9,7.4h3.2c4.1-6.6,6.2-14.2,6.2-21.9
	c0-9.6-3-17.6-8.5-25.5l0.5-0.9c0.6-0.9,1.2-1.7,1.9-2.5c3.2,3.8,5.8,8.1,7.7,12.7c2,5.1,3,10.6,2.8,16.1c0,5.4-0.4,10-2.4,15.2
	c-0.9,2.3-2,4.6-3.3,6.8h3.1l0.2-0.3c0.2,0.1,0.4,0.2,0.6,0.3h15.3c0.7-0.9,1.3-1.9,1.6-2.9c1.4-4.3-0.5-8.4-3.8-11
	c3.6-1.1,6.5-3.6,6.5-8s-2.9-6.9-6.5-8c3.3-2.6,5.2-6.8,3.8-11c-1.3-4.1-4.5-5.7-8.1-5.9c1.9-2.6,2.2-6.1,0.7-9
	c-1.1-2.4-3.4-4-6.1-4.4c0.6-0.3,1.2-0.5,1.8-0.7c8.2-2.8,16.8-0.9,24.1,3.3c0.2,0.1,0.5,0.3,0.7,0.4c5.7,3.7,9.3,10.5,11.6,16.7
	s2.5,12,2.5,18.5s-0.2,12.3-2.5,18.5c-0.4,1.1-0.9,2.3-1.4,3.5h3l0.1-0.2c0-0.1,0.1-0.2,0.1-0.3c0.2,0.2,0.5,0.4,0.8,0.5h8.2
	c7.4-7.9,14.7-17.2,25.3-20.6c0.7-0.2,1.2-1,0.9-1.7c-0.1-0.5-0.5-0.8-0.9-0.9c-10.8-3.5-18.1-12.9-25.5-20.9
	c-7.2-7.7-15-15.1-24.8-19.3c-8.3-3.6-17.7-4.4-26.2-0.8c-6.4,2.7-9.7,7.6-12.9,12.8l-0.9,1.1c-1.3,1.8-2.4,3.6-3.4,5.5l-0.4,0.6
	c-0.1-0.1-0.2-0.2-0.3-0.3c-9.3-6.6-22.1-5.1-29.6,3.5c-1.6-1.2-3.6-1.8-5.6-1.8c1.5-1.4,2.4-3.2,2.7-5.2
	c11.4,0.8,21.5-7.2,23.4-18.4c0-0.1,0-0.3,0-0.4l0.9,0.2l0.5,0.1c1.6,0.5,3.3,0.9,5,1.2c2.8,0.9,5.7,1.5,8.7,1.9
	c4.2,0.4,8.5-0.2,12.3-1.9c8-3.4,13.7-10.3,17-18.2c4.1-9.9,4.4-20.7,4.1-31.3c-0.3-11.1-2-23.1,3.3-33.3c0.4-0.7,0.1-1.5-0.5-1.9
	c-0.4-0.2-0.9-0.2-1.4,0C310.1,58,298.1,56.3,287,56c-10.5-0.3-21.4,0-31.3,4.1c-7.9,3.3-14.8,9-18.2,17c-1.7,3.9-2.4,8.1-1.9,12.3
	c0.4,2.9,1,5.8,1.9,8.6c0.3,1.9,0.8,3.8,1.4,5.6c0,0.3,0.1,0.6,0.2,0.8c-0.1,0-0.3,0-0.4,0c-11.2,1.9-19.2,12-18.4,23.4
	c-2,0.3-3.8,1.2-5.2,2.7c0-2-0.6-4-1.8-5.6c8.6-7.5,10.1-20.3,3.5-29.6c-0.1-0.1-0.2-0.2-0.3-0.3l0.7-0.4c2.2-1.1,4.3-2.5,6.2-4
	c5.4-3.3,10.4-6.6,13.2-13.2c3.6-8.4,2.8-17.9-0.8-26.2c-4.2-9.8-11.7-17.6-19.3-24.8c-7.9-7.4-17.4-14.7-20.9-25.5
	c-0.2-0.7-1-1.2-1.7-0.9c-0.5,0.1-0.8,0.5-0.9,0.9c-3.4,10.8-12.9,18.1-20.9,25.5c-7.6,7.2-15.1,15-19.3,24.8
	c-3.6,8.3-4.4,17.7-0.8,26.2c2.8,6.4,7.6,9.7,12.8,12.9c0.4,0.3,0.8,0.6,1.1,0.9c1.8,1.3,3.6,2.4,5.5,3.4L172,95
	c-0.1,0.1-0.2,0.2-0.3,0.3c-6.6,9.3-5.1,22.1,3.5,29.6c-1.2,1.6-1.8,3.6-1.8,5.6c-1.4-1.5-3.2-2.4-5.3-2.7
	c0.8-11.4-7.2-21.5-18.4-23.4c-0.1,0-0.3,0-0.4,0c0-0.3,0.1-0.6,0.2-0.9s0.1-0.3,0.2-0.5c0.5-1.6,0.9-3.3,1.2-5
	c0.9-2.8,1.5-5.7,1.9-8.7c0.4-4.2-0.3-8.5-2-12.3c-3.4-8-10.3-13.7-18.2-17c-9.9-4.1-20.7-4.4-31.3-4.1c-11,0.3-23.1,2-33.3-3.3
	c-0.7-0.3-1.5,0-1.8,0.7c-0.2,0.4-0.2,0.8,0,1.2c5.2,10.2,3.6,22.3,3.3,33.3c-0.3,10.6,0,21.4,4.1,31.3c3.3,7.9,9,14.8,17,18.2
	c3.9,1.7,8.1,2.4,12.3,1.9c2.9-0.4,5.7-1,8.5-1.9c1.9-0.3,3.8-0.8,5.6-1.4l0.8-0.2c0,0.1,0,0.3,0,0.4c1.9,11.2,12,19.2,23.4,18.4
	c0.3,2,1.2,3.8,2.7,5.2c-2,0-4,0.6-5.6,1.8c-7.5-8.6-20.3-10.1-29.6-3.5c-0.1,0.1-0.2,0.2-0.3,0.3l-0.5-0.7c-1.1-2.2-2.5-4.3-4-6.2
	c-3.3-5.4-6.6-10.4-13.1-13.2c-8.4-3.6-17.9-2.8-26.2,0.8c-9.8,4.2-17.5,11.7-24.8,19.3c-7.5,7.9-14.8,17.4-25.5,20.9
	c-0.7,0.2-1.1,1-0.9,1.7C13.5,181.7,13.8,182.1,14.2,182.2z M343.7,201.1h-0.1c-1.1-0.2-2-0.7-2.8-1.5c0.3-0.9,0.6-1.9,0.9-2.8
	c1.3,0.9,2.8,1.5,4.3,1.9L343.7,201.1z M348.2,196.3l-0.2-0.1c-1.9-0.4-3.9-0.9-5.3-2.3l-0.2-0.1c0.1-0.6,0.3-1.2,0.4-1.8
	c0.1-0.4,0.1-0.8,0.2-1.3c1.5,1.5,3.6,2.4,5.7,2.2c1,0,2-0.2,3-0.5C350.6,193.8,349.4,195,348.2,196.3z M369.8,180.9L369.8,180.9
	L369.8,180.9L369.8,180.9z M360.4,178.2c1.4,1,2.8,1.9,4.4,2.7c-3.5,2-6.1,4.6-9.5,7c-2.6,1.8-7.6,3.6-10.3,1
	c-2.4-2.3-1.5-5.2-1.5-8.1s-0.8-5.8,1.5-8.1c2.4-2.4,6.9-1.1,9.5,0.4C356.7,174.5,358.4,176.6,360.4,178.2L360.4,178.2z
	 M348.2,165.4c1.2,1.3,2.4,2.5,3.6,3.8c-1-0.3-2-0.4-3-0.5c-2.1-0.1-4.2,0.7-5.7,2.2c0-0.2,0-0.4-0.1-0.6c-0.1-0.8-0.3-1.6-0.5-2.4
	c0.1,0,0.1-0.1,0.2-0.1c1.4-1.4,3.4-1.9,5.3-2.3C348.1,165.5,348.1,165.5,348.2,165.4L348.2,165.4z M343.7,160.6
	c0.8,0.8,1.6,1.7,2.4,2.5c-1.5,0.3-3,1-4.3,1.9c-0.3-1-0.6-1.9-0.9-2.8C341.6,161.4,342.6,160.9,343.7,160.6
	C343.6,160.7,343.7,160.6,343.7,160.6z M341.6,158.4c-0.7,0.2-1.3,0.6-1.8,1l-0.1-0.2c-0.8-1.8-1.6-3.5-2.6-5.2
	C338.6,155.4,340.1,156.9,341.6,158.4L341.6,158.4z M308.8,198.5c-2,4.1-8.3,3.2-11.7,1.4c0.3-0.6,0.6-1.3,0.9-2
	c0.2-0.5,0.3-0.9,0.5-1.4c2,1.1,4.8,2.2,6.7,1.2c0.6-0.4,0.9-1.2,0.5-1.9c-0.5-1.1-1.8-1.6-2.9-2.1c-1-0.4-2.1-0.7-3.2-0.9
	c0.3-1.2,0.5-2.4,0.7-3.5C304.2,189.7,311.1,193.7,308.8,198.5L308.8,198.5z M311.5,180.9c0,4.3-7.7,5.1-10.9,4.5
	c0.1-0.9,0.1-1.9,0.1-2.8l0,0c2.4-0.9,5.9,1.9,7.6-1c0.3-0.4,0.3-1,0-1.4c-1.7-2.9-5.2,0-7.6-1l0,0c0-1-0.1-1.9-0.1-2.8
	C303.9,175.7,311.5,176.5,311.5,180.9L311.5,180.9z M308.8,163.2c2.3,4.8-4.6,8.8-8.5,9.2c-0.2-1.2-0.4-2.4-0.7-3.5
	c1.1-0.2,2.2-0.5,3.2-0.9c1.1-0.4,2.4-0.9,2.9-2.1c0.4-0.7,0.1-1.5-0.5-1.9c-1.9-1.1-4.7,0.1-6.7,1.2c-0.2-0.4-0.3-0.9-0.5-1.4
	c-0.3-0.7-0.6-1.3-0.9-2C300.4,160,306.8,159.1,308.8,163.2L308.8,163.2z M301.1,148.7c3.2,3.8-1.8,8.9-5.4,10.6
	c-0.5-1.1-1.1-2.1-1.8-3.1c0.8-0.4,1.6-0.8,2.4-1.3c1-0.7,2.2-1.5,2.4-2.8c0.2-0.7-0.3-1.5-1-1.7c-1.3-0.4-2.5,0.3-3.6,0.9
	c-0.8,0.5-1.7,1-2.4,1.7c-0.7-0.9-1.4-1.9-2.2-2.8C292.4,147.7,298.3,145.3,301.1,148.7L301.1,148.7z M318.4,56.6L318.4,56.6
	L318.4,56.6L318.4,56.6z M69.9,56.6L69.9,56.6L69.9,56.6L69.9,56.6z M108,192.5L108,192.5l-8,0.1c-0.3,0-0.5,0.1-0.7,0.2
	c-0.6-1.8-1.1-3.7-1.4-5.6H109C108.6,189,108.3,190.8,108,192.5z M148.5,199.8L148.5,199.8L148.5,199.8l0.2-0.1L148.5,199.8z
	 M203.8,144.8c-3.4,3.5-7,6.7-9.7,10.8c-2.7-4.1-6.3-7.3-9.7-10.8c-4.5-4.7-9.6-12.4-4.7-18.5c1.7,1.1,3.5,2,5.3,2.7
	c-1.5,3.2-1.9,6.8,0,9.9c1.6,2.6,5.8,5.6,9,5.6c3,0,7.1-2.8,8.7-5.2c2.2-3.2,1.8-7,0.3-10.4c1.9-0.7,3.6-1.6,5.3-2.7
	C213.4,132.4,208.3,140.1,203.8,144.8L203.8,144.8z M187.7,130c2.1,0.6,4.2,0.9,6.4,0.9s4.3-0.4,6.4-1c1.3,2.6,1.7,5.4,0,7.9
	c-1.2,1.9-4.1,3.8-6.4,3.7C188,141.4,185.3,135,187.7,130z M239.7,199.8L239.7,199.8l-0.2-0.1L239.7,199.8L239.7,199.8z M289,192.9
	c-0.2-0.1-0.5-0.2-0.7-0.2l-8.1-0.1l0,0c-0.3-1.7-0.7-3.5-1-5.3h11.2C290.1,189.1,289.6,191,289,192.9z M283.8,158.3
	c1.7,2.5,3.1,5.2,4.3,8l-7.3,0.1C281.4,163.6,282.4,160.9,283.8,158.3z M280.2,169.2L280.2,169.2l8-0.1c0.3,0,0.5-0.1,0.7-0.2
	c0.6,1.8,1.1,3.7,1.4,5.6h-11C279.6,172.7,280,171,280.2,169.2z M278.8,177.2h11.4c0.2,0,0.3,0,0.4-0.1c0.1,1.2,0.2,2.4,0.2,3.7
	s-0.1,2.5-0.2,3.7c-0.1,0-0.3-0.1-0.4-0.1h-11.5c-0.2-1.2-0.2-2.4-0.3-3.6C278.6,179.6,278.7,178.4,278.8,177.2L278.8,177.2z
	 M278.1,162.7L278.1,162.7c-1.8,4.9-3.1,10.1-3.8,15.3c-1,6.6,1.1,14.4,3.9,21l0,0c-9.3,5.8-11.8-12.7-11.8-18.2
	S268.8,156.9,278.1,162.7L278.1,162.7z M265.4,159.8c1.9-0.6,4-0.6,5.9-0.2c-5.7,3.5-7.7,15.7-7.7,21.2s2.1,17.6,7.7,21.2
	c-1.9,0.5-4,0.4-5.9-0.2c-3-1-4.5-3.4-5.8-6.1c-2-4.4-3.8-10.1-3.8-14.9s1.8-10.6,3.8-14.9C260.9,163.2,262.3,160.9,265.4,159.8
	L265.4,159.8z M254.7,163.5c1.6-1.6,3.4-2.8,5.5-3.6c-0.1,0.1-0.3,0.3-0.4,0.4c-2.2,2.5-3.5,6.1-4.5,9.2c-1.1,3.5-2.4,7.7-2.4,11.4
	c0,3.5,1.2,7.5,2.2,10.8c1,3.3,2.3,7,4.5,9.7c0.2,0.2,0.3,0.4,0.5,0.5c-1.9-0.7-3.6-1.8-5.1-3.2c-4.6-4.3-8.3-11.4-8.3-17.8
	S250.3,167.8,254.7,163.5L254.7,163.5z M248.7,166.5c-1.1,1.7-2,3.5-2.7,5.3c-3.2-1.5-6.8-1.9-9.9,0c-2.6,1.6-5.6,5.8-5.6,9
	c0,3,2.8,7.1,5.2,8.7c3.2,2.2,7,1.8,10.4,0.3c0.7,1.9,1.6,3.7,2.7,5.3c-6.1,4.9-13.8-0.1-18.5-4.7c-3.5-3.4-6.7-7-10.8-9.7
	c4-2.7,7.3-6.3,10.8-9.7C234.9,166.7,242.6,161.6,248.7,166.5L248.7,166.5z M245,187.3c-2.6,1.3-5.4,1.7-7.9,0
	c-1.9-1.2-3.8-4.1-3.7-6.4c0.2-6.2,6.5-8.9,11.6-6.4c-0.6,2.1-1,4.2-1,6.4C244,183,244.4,185.2,245,187.3z M239.6,162l0.2-0.1l0,0
	l0,0L239.6,162z M265.6,129.8l5.3-5.1c1.2,2.8,2.1,5.7,2.7,8.7C270.7,132.5,268,131.3,265.6,129.8L265.6,129.8z M252.4,106
	c0.2-0.2,0.3-0.4,0.4-0.7c1.7,0.9,3.4,1.9,5,3l-0.1,0.1l-7.7,7.7c-0.8-1.1-1.5-2.2-2.3-3.3c-0.3-0.3-0.5-0.7-0.8-1.1
	C248.6,109.8,250.5,107.9,252.4,106z M245.2,109.4c-1.5-2.5-2.7-5.1-3.6-7.9c3,0.6,5.9,1.5,8.7,2.7L245.2,109.4z M259.5,110.3
	c0.1-0.1,0.2-0.2,0.3-0.4c0.9,0.8,1.8,1.6,2.7,2.5s1.7,1.8,2.5,2.7c-0.1,0.1-0.3,0.2-0.4,0.3l-8.1,8.1c-1-0.7-1.9-1.5-2.8-2.3
	c-0.8-0.9-1.6-1.8-2.3-2.8C254.2,115.7,256.9,113,259.5,110.3L259.5,110.3z M266.6,117.4C266.6,117.4,266.6,117.3,266.6,117.4
	c1.2,1.5,2.2,3.2,3.1,4.9c-0.3,0.1-0.5,0.2-0.7,0.4l-5.8,5.6c-0.2-0.1-0.4-0.3-0.6-0.5c-1.2-0.9-2.5-1.8-3.7-2.6L266.6,117.4z
	 M283.3,135c-0.1-1.2-0.3-2.3-0.4-3.5c1.1-0.1,2.1-0.2,3.1-0.5c1.2-0.2,2.3-0.8,3-1.8c0.4-0.7,0.1-1.5-0.5-1.9
	c-1-0.7-2.4-0.5-3.5-0.3c-0.9,0.2-1.9,0.4-2.8,0.8c-0.3-1.2-0.6-2.3-0.9-3.4c3.8-1.4,10.8-1.4,11.3,3.5
	C293,132.3,287.1,134.8,283.3,135z M283.5,112.6c-1.2-0.5-2.5,0.2-3.6,0.6c-1,0.4-1.9,0.9-2.7,1.6c-0.6-1-1.3-2-2-3
	c3-2.5,9.7-4.3,12.1-0.2c2.5,4.4-3,8.7-6.9,9.9c-0.4-1-0.7-1.9-1.1-2.8l-0.2-0.5c1-0.3,2-0.8,3-1.3c1.2-0.5,2.1-1.4,2.5-2.6
	C284.6,113.6,284.2,112.9,283.5,112.6L283.5,112.6z M275.4,100.5c-0.1-0.5-0.5-0.9-1-1c-1.5-0.4-2.6,0.5-3.4,1.7
	c-0.6,0.9-1.2,2.4-2.3,2.8c-0.1,0-0.2,0.1-0.3,0.2c-0.7-0.7-1.4-1.3-2.1-1.9c1.7-2.6,8.2-7.9,10.9-4.5s-1.5,8.9-4.5,10.9
	c-0.6-0.7-1.3-1.4-2-2.1c0.1-0.1,0.1-0.2,0.2-0.3c0.5-1.1,1.9-1.7,2.8-2.3C274.9,103.2,275.8,102.1,275.4,100.5L275.4,100.5z
	 M314.2,98.7c-0.6-1.9-1.2-3.8-2-5.7c0.7-0.1,1.4-0.3,2-0.6C314.3,94.6,314.3,96.7,314.2,98.7L314.2,98.7z M314.1,86
	c0,1.2,0.1,2.3,0.1,3.4l-0.1,0.1c-0.9,0.6-1.9,0.9-3,0.9c-0.4-0.9-0.9-1.8-1.3-2.7C311.3,87.4,312.8,86.8,314.1,86z M308.4,85.1
	h-0.2c-0.5-0.7-0.9-1.4-1.5-2.2l-0.3-0.3c2,0.1,3.8-0.7,5.2-2.1c0.9-0.8,1.6-1.8,2.2-2.8c0,1.7,0.1,3.4,0.1,5.2l-0.2,0.1
	C312.1,84,310.5,85.1,308.4,85.1L308.4,85.1z M302.2,62.1c2.5-0.6,5.3-0.3,7.8-0.7c1.6-0.2,3.2-0.6,4.7-1.1c-0.5,1.5-0.8,3-1.1,4.5
	c-0.4,2.6,0,5.4-0.7,8c-0.8,2.9-2.9,7.1-6.4,7c-3.3,0-4.8-2.6-6.8-4.6s-4.6-3.4-4.6-6.8S299.3,62.8,302.2,62.1L302.2,62.1z
	 M289.9,66.6c0-2,1.1-3.7,2.1-5.4c0-0.1,0.1-0.1,0.1-0.2c1.8,0,3.5,0.1,5.2,0.1c-0.9,0.5-1.7,1.1-2.5,1.8c-1.6,1.4-2.5,3.4-2.5,5.6
	c-0.8-0.6-1.7-1.2-2.5-1.7C289.9,66.8,289.9,66.7,289.9,66.6L289.9,66.6z M285.5,61l0.1-0.1L289,61c-0.8,1.3-1.4,2.8-1.7,4.4
	c-0.9-0.5-1.8-0.9-2.7-1.3C284.6,62.9,284.9,61.8,285.5,61L285.5,61z M282.5,60.8c-0.3,0.6-0.5,1.3-0.6,2c-1.8-0.8-3.7-1.4-5.6-2
	C278.4,60.7,280.4,60.7,282.5,60.8L282.5,60.8z M243,76.6c3.8-7.3,10.8-11.7,18.6-13.8l1.3-0.3c7-1.4,14.7,1.1,21,4.1
	c5.6,2.7,9.5,6.5,13.8,10.8s8.1,8.2,10.8,13.8c3,6.3,5.5,14.1,4.1,21.1c-1.5,6.1-4.2,11.9-8.9,16.2c-2.2,2-4.8,3.6-7.6,4.7
	c3.4-4.3,0.2-12.2-5.7-13.1c2.3-2.6,3.4-5.8,1.8-9.4c-1.9-4.3-6.4-6-10.7-5.5c1.8-3.3,2.1-7.2-1-10.3s-7-2.8-10.3-1
	c0.5-4.3-1.3-8.8-5.5-10.7c-3.7-1.6-6.9-0.5-9.4,1.8c-0.9-5.9-8.9-9.2-13.2-5.7C242.2,78.2,242.6,77.4,243,76.6z M262.4,91.5
	c-0.2-0.7-0.9-1.2-1.7-1c-1.2,0.5-2.1,1.4-2.6,2.5c-0.5,1-1,2-1.3,3l-0.5-0.2c-0.9-0.4-1.9-0.8-2.8-1.1c1.2-3.9,5.5-9.4,9.9-6.9
	c4.1,2.4,2.3,9-0.2,12.1c-1-0.7-2-1.4-3-2c0.6-0.8,1.1-1.8,1.5-2.7C262.2,94,262.8,92.7,262.4,91.5L262.4,91.5z M247.2,82.5
	c4.9,0.5,4.9,7.6,3.5,11.3c-1.1-0.3-2.3-0.7-3.4-0.9c0.3-0.9,0.6-1.8,0.8-2.8c0.2-1.2,0.4-2.5-0.3-3.5c-0.4-0.6-1.2-0.9-1.9-0.5
	c-1,0.7-1.6,1.8-1.8,2.9c-0.3,1-0.5,2-0.6,3.1c-1.2-0.2-2.3-0.3-3.5-0.4C240.1,87.8,242.7,82,247.2,82.5L247.2,82.5z M255.5,98.5
	c4.6,2.2,8.7,5.2,12.1,8.9c3.6,3.6,6.5,6.9,8.6,11.6c2.4,5.1,3.8,10.6,4.3,16.3l-1.3-0.1c-0.7-0.1-1.3-0.2-2-0.3l-0.9-0.2
	c-1.7-9.4-5.2-17.3-12-24s-14.5-10.3-24-12c-0.1-0.3-0.2-0.6-0.3-0.9c-0.2-1-0.3-2.1-0.4-3.2C245.2,94.9,250.5,96.3,255.5,98.5
	L255.5,98.5z M240.7,108.6L240.7,108.6c2.2,4.8,4.9,9.4,8.1,13.6c3.9,5.3,10.9,9.4,17.6,12.1l0,0c-2.4,10.7-17.3-0.6-21.2-4.5
	S230,111,240.7,108.6L240.7,108.6z M230.1,114.9c0.9-1.4,2.2-2.7,3.6-3.6c-1.4,6.5,5.7,16.6,9.5,20.4c3.8,3.8,14,11,20.4,9.5
	c-0.9,1.5-2.1,2.7-3.6,3.6c-3,1.8-6,1.3-9.1,0.2c-4.5-1.7-9.8-4.4-13.3-7.9s-6.2-8.7-7.9-13.3C228.7,120.9,228.2,117.8,230.1,114.9
	L230.1,114.9z M226,119.4c0,0.2,0,0.3,0,0.5c0.2,3.3,1.9,6.8,3.4,9.7c1.7,3.2,3.8,7.1,6.3,9.7s6.1,4.4,9.2,6.1s6.6,3.3,10,3.7
	c0.3,0,0.5,0,0.8,0c-2,0.9-4.2,1.3-6.4,1.3c-6.2,0-13.4-2.3-17.9-6.7s-6.6-11.3-6.7-17.3C224.5,123.9,225,121.5,226,119.4L226,119.4
	z M234.7,149.4c-1.7,5.1-8.4,8.3-12.7,3.7s-1.6-11,3.7-12.7c1,1.9,2.3,3.7,3.8,5.2C231,147.1,232.7,148.3,234.7,149.4L234.7,149.4z
	 M222.6,132.2c0.4,2,1,3.9,1.8,5.7c-3.1,1.1-5.9,3.3-6.9,6.6c-0.9,3.1-0.1,8.4,2.3,10.8s7.7,3.2,10.8,2.3c3.3-1,5.4-3.8,6.6-6.9
	c1.8,0.8,3.7,1.4,5.7,1.8c-0.8,7.8-9.8,9.6-16.4,9.8c-4.9,0.1-9.7-0.2-14.5,0.8c1-4.8,0.6-9.6,0.8-14.5
	C212.9,142,214.8,133,222.6,132.2L222.6,132.2z M213,135.4c0-0.1,0-0.1,0.1-0.2l0,0l0,0L213,135.4z M208.6,94.3
	c0-2.4,0.1-4.9,0.1-7.4c2.8,1.2,5.5,2.6,8,4.3C214.1,92.6,211.4,93.6,208.6,94.3L208.6,94.3z M191.3,100.7c6.6,1,14.4-1.1,21-3.9
	l0,0c5.8,9.3-12.7,11.8-18.2,11.8s-24-2.5-18.2-11.8v-0.1C180.9,98.6,186,99.9,191.3,100.7L191.3,100.7z M182.1,86
	c1.8-0.6,3.7-1.1,5.6-1.4v0.1v11c-1.8-0.3-3.5-0.7-5.3-0.9l0,0c0-2.7,0-5.3-0.1-8C182.4,86.5,182.3,86.2,182.1,86z M197.8,96.2
	c-1.2,0.2-2.4,0.2-3.6,0.3c-1.2,0-2.4-0.1-3.6-0.3V84.7c0-0.2,0-0.3-0.1-0.4c1.2-0.1,2.4-0.2,3.7-0.2s2.5,0.1,3.7,0.2
	c-0.1,0.1-0.1,0.3-0.1,0.4C197.7,88.5,197.8,92.4,197.8,96.2L197.8,96.2z M205.8,94.8c-1.7,0.3-3.5,0.7-5.3,1c0-3.7,0-7.4,0-11.1
	v-0.1c1.9,0.3,3.8,0.8,5.6,1.4c-0.1,0.2-0.2,0.5-0.2,0.7C205.9,89.4,205.8,92.1,205.8,94.8L205.8,94.8z M224.8,85.4
	c-0.9-0.8-1.8-1.5-2.8-2.2c0.6-0.7,1.2-1.6,1.7-2.4c0.6-1.1,1.3-2.3,0.9-3.6c-0.2-0.7-0.9-1.2-1.7-1c-1.3,0.2-2.1,1.4-2.8,2.4
	c-0.5,0.7-0.9,1.5-1.3,2.3c-1-0.6-2-1.2-3.1-1.8c1.7-3.7,6.7-8.7,10.6-5.4C229.7,76.7,227.3,82.6,224.8,85.4L224.8,85.4z
	 M216.5,33.4c1.5,1.4,3,2.9,4.4,4.5c-1.7-0.9-3.4-1.7-5.1-2.5l-0.3-0.1C215.9,34.7,216.3,34.1,216.5,33.4L216.5,33.4z M211.8,28.9
	l2.5,2.4v0.1c-0.2,1.1-0.7,2-1.5,2.8c-0.9-0.3-1.9-0.7-2.8-0.9C210.9,31.9,211.5,30.5,211.8,28.9L211.8,28.9z M205.7,23.2
	c1.2,1.2,2.5,2.4,3.8,3.6c0,0.1,0,0.1-0.1,0.2c-0.4,1.9-0.9,3.9-2.3,5.3c-0.1,0.1-0.1,0.1-0.1,0.2c-0.6-0.1-1.2-0.3-1.8-0.4
	l-1.2-0.2c1.5-1.5,2.4-3.6,2.2-5.7C206.2,25.2,206,24.2,205.7,23.2L205.7,23.2z M194.1,5.1L194.1,5.1L194.1,5.1z M186.5,20.4
	c1.3-2.2,3.4-3.9,5-5.9c1-1.4,1.9-2.8,2.7-4.4c2,3.5,4.6,6.1,7,9.5c1.8,2.6,3.6,7.6,1,10.3c-2.3,2.4-5.2,1.5-8.1,1.5
	s-5.8,0.8-8.1-1.5S184.9,23,186.5,20.4L186.5,20.4z M182.5,23.2c-0.3,1-0.4,2-0.5,3c-0.1,2.1,0.7,4.2,2.2,5.7l-0.6,0.1
	c-0.8,0.1-1.6,0.3-2.4,0.5c0-0.1-0.1-0.1-0.1-0.2c-1.4-1.4-1.9-3.4-2.3-5.3c0-0.1,0-0.1-0.1-0.2C180,25.6,181.2,24.4,182.5,23.2
	L182.5,23.2z M176.4,28.9c0.4,1.5,1,3,1.9,4.3c-0.9,0.3-1.9,0.6-2.8,0.9c-0.8-0.7-1.3-1.7-1.5-2.8v-0.1L176.4,28.9z M171.7,33.4
	c0.2,0.6,0.6,1.3,1,1.8l-0.2,0.1c-1.8,0.8-3.6,1.6-5.3,2.6C168.7,36.3,170.1,34.9,171.7,33.4L171.7,33.4z M155.9,75.3
	c-0.3-0.6-0.5-1.2-0.7-1.8c-2.8-8.2-0.9-16.8,3.3-24.1l0.4-0.7c3.7-5.7,10.5-9.3,16.7-11.6s12-2.5,18.5-2.5s12.3,0.2,18.5,2.5
	s12.9,5.9,16.6,11.5c3.4,5.7,5.7,12.1,5.1,18.9c-0.2,2.7-0.9,5.3-2,7.8c-0.3-2.6-2-4.9-4.4-6c-2.9-1.5-6.3-1.3-8.9,0.7
	c-0.2-3.6-1.8-6.8-5.9-8.2c-4.3-1.4-8.4,0.5-11,3.8c-1.1-3.6-3.6-6.5-8-6.5s-6.9,2.9-8,6.5c-2.6-3.3-6.8-5.2-11-3.8
	c-4.1,1.3-5.7,4.5-5.9,8.2c-2.6-1.9-6.1-2.2-8.9-0.7C157.9,70.3,156.3,72.6,155.9,75.3z M210.9,69.9c-0.4-0.6-1.2-0.9-1.9-0.5
	c-1.1,0.5-1.6,1.8-2,2.9c-0.4,1-0.7,2.1-0.9,3.2c-1.2-0.3-2.4-0.5-3.5-0.7c0.4-3.9,4.4-10.8,9.2-8.5c4.1,2,3.2,8.3,1.4,11.7
	c-0.6-0.3-1.3-0.6-2-0.8l-1.4-0.5C210.8,74.6,212,71.8,210.9,69.9L210.9,69.9z M194.8,66.6c-0.4-0.3-1-0.3-1.4,0
	c-2.9,1.7,0,5.2-1,7.6l0,0c-1,0-1.9,0.1-2.8,0.1c-0.6-3.2,0.2-10.9,4.5-10.9s5.1,7.7,4.5,10.9c-0.9-0.1-1.9-0.1-2.8-0.1l0,0
	C194.8,71.8,197.7,68.3,194.8,66.6L194.8,66.6z M178.4,76.6l-1.4,0.5c-0.7,0.3-1.3,0.6-2,0.8c-1.9-3.4-2.7-9.8,1.4-11.7
	c4.8-2.3,8.8,4.6,9.2,8.5c-1.2,0.2-2.4,0.4-3.5,0.7c-0.2-1.1-0.5-2.2-0.9-3.2c-0.4-1.1-0.9-2.4-2.1-2.9c-0.7-0.4-1.5-0.1-1.9,0.5
	C176.2,71.8,177.4,74.6,178.4,76.6L178.4,76.6z M163.4,85.4c-2.5-2.8-4.9-8.7-1.5-11.6c3.9-3.2,8.9,1.8,10.6,5.4
	c-1,0.6-2.1,1.1-3.1,1.8c-0.4-0.8-0.8-1.6-1.3-2.3c-0.7-1-1.5-2.2-2.8-2.4c-0.7-0.2-1.5,0.3-1.7,1c-0.4,1.3,0.3,2.5,0.9,3.6
	c0.5,0.9,1,1.7,1.7,2.4C165.3,83.9,164.4,84.6,163.4,85.4L163.4,85.4z M168.6,89.8l-0.9-0.5c-0.9-0.6-1.7-1.2-2.5-1.9
	c3.8-3.2,8.1-5.8,12.8-7.7c5.1-2,10.6-3,16.1-2.8c5.4,0,10,0.4,15.2,2.4c5,1.9,9.6,4.7,13.7,8.1l-0.4,0.3c-0.6,0.5-1.3,1-2,1.5
	l-1,0.6c-7.9-5.4-15.9-8.5-25.5-8.5S176.6,84.4,168.6,89.8L168.6,89.8z M171.6,91.2c2.5-1.7,5.2-3.1,8-4.3c0,2.4,0,4.9,0.1,7.3
	C176.8,93.6,174.1,92.5,171.6,91.2L171.6,91.2z M172.9,103.7c3.5,5.7,15.7,7.7,21.2,7.7s17.6-2.1,21.2-7.7c0.4,1.9,0.4,4-0.2,5.9
	c-1,3-3.4,4.5-6.1,5.8c-4.4,2-10.1,3.8-14.9,3.8s-10.6-1.8-14.9-3.8c-2.8-1.3-5.1-2.7-6.1-5.8C172.5,107.7,172.4,105.7,172.9,103.7
	L172.9,103.7z M173.1,114.8c0.1,0.1,0.2,0.3,0.4,0.4c2.5,2.2,6.1,3.5,9.2,4.5c3.5,1.1,7.7,2.4,11.4,2.4c3.5,0,7.5-1.2,10.8-2.2
	s7-2.3,9.7-4.5c0.2-0.2,0.4-0.3,0.5-0.5c-0.7,1.9-1.8,3.6-3.2,5.1c-4.3,4.6-11.4,8.3-17.8,8.3s-13-3.5-17.4-7.9
	C175.2,118.8,173.9,116.9,173.1,114.8L173.1,114.8z M175.3,135.4l-0.1-0.2l0,0l0,0L175.3,135.4z M165.7,132.2
	c7.8,0.8,9.6,9.8,9.8,16.4c0.1,4.9-0.2,9.7,0.8,14.5c-4.8-0.9-9.6-0.6-14.5-0.8c-6.6-0.2-15.6-2-16.4-9.8c2-0.4,3.9-1,5.7-1.8
	c1.1,3.1,3.3,5.9,6.6,6.9c3.1,0.9,8.4,0.1,10.8-2.3s3.2-7.7,2.3-10.8c-1-3.3-3.8-5.4-6.9-6.6C164.6,136,165.3,134.1,165.7,132.2
	L165.7,132.2z M148.7,162l-0.2-0.1l0,0l0,0L148.7,162z M153.6,149.4c3.8-2,7-5.2,9-9c5.1,1.7,8.3,8.4,3.7,12.7
	S155.4,154.7,153.6,149.4L153.6,149.4z M140.2,90.1c0.2,0.9,0.4,1.9,0.8,2.8c-1.1,0.3-2.3,0.6-3.4,0.9c-1.4-3.8-1.4-10.8,3.5-11.3
	c4.4-0.5,7,5.4,7.2,9.2c-1.2,0.1-2.3,0.3-3.5,0.4c-0.1-1-0.3-2.1-0.6-3.1c-0.2-1.2-0.9-2.3-1.8-3c-0.7-0.4-1.5-0.2-1.9,0.5
	C139.8,87.5,140.1,88.9,140.2,90.1z M112,60.8c-1.9,0.6-3.8,1.2-5.7,2c-0.1-0.7-0.3-1.4-0.6-2C107.8,60.7,109.9,60.7,112,60.8z
	 M102.7,60.8C102.7,60.8,102.7,60.9,102.7,60.8c0.7,1,1,2,1,3.1c-0.9,0.4-1.8,0.9-2.7,1.3c-0.3-1.5-0.9-3-1.7-4.4L102.7,60.8z
	 M96.1,61c0,0.1,0.1,0.1,0.1,0.2c1,1.7,2.1,3.3,2.1,5.4c0,0.1,0,0.1,0,0.2c-0.7,0.5-1.4,0.9-2.1,1.4c-0.1,0.1-0.2,0.2-0.3,0.3
	c0.1-1.9-0.7-3.8-2.1-5.2C93,62.4,92,61.7,91,61.1C92.6,61.1,94.4,61,96.1,61z M78,61.3c2.6,0.4,5.5,0,8,0.7c2.9,0.8,7,2.9,7,6.4
	c0,3.3-2.6,4.8-4.6,6.8s-3.4,4.7-6.7,4.6s-5.7-4.1-6.4-7c-0.6-2.5-0.3-5.3-0.7-7.8c-0.2-1.6-0.6-3.2-1.1-4.7
	C75,60.7,76.5,61.1,78,61.3z M74.4,82.9c-0.1,0-0.1-0.1-0.2-0.1c0.1-1.8,0.1-3.5,0.1-5.2c0.5,0.9,1.1,1.7,1.8,2.5
	c1.4,1.6,3.5,2.5,5.6,2.5c-0.6,0.8-1.2,1.7-1.7,2.5c-0.1,0-0.2,0-0.2,0C77.8,85.1,76.1,84,74.4,82.9z M78.5,87.7
	c-0.5,0.9-0.9,1.8-1.3,2.7c-1.1,0-2.1-0.3-3-0.9l-0.1-0.1c0-1.1,0.1-2.3,0.1-3.4C75.5,86.8,77,87.4,78.5,87.7z M74,92.5
	c0.6,0.3,1.3,0.4,2,0.5c-0.8,1.8-1.4,3.7-2,5.6C73.9,96.6,73.9,94.6,74,92.5z M92.3,133.1c-0.8-0.3-1.6-0.7-2.4-1.1
	c-7.3-3.8-11.7-10.8-13.8-18.6c-0.1-0.4-0.2-0.8-0.3-1.3c-1.4-7,1.1-14.7,4.1-21c2.7-5.6,6.5-9.5,10.8-13.8s8.2-8.1,13.8-10.8
	c6.3-3,14-5.5,21-4.1c6.1,1.5,11.9,4.2,16.2,8.9c2,2.2,3.6,4.8,4.8,7.6c-4.3-3.4-12.2-0.2-13.1,5.7c-2.6-2.3-5.8-3.4-9.4-1.8
	c-4.3,1.9-6,6.3-5.5,10.7c-3.3-1.8-7.2-2-10.3,1s-2.8,7-1,10.3c-4.3-0.5-8.8,1.3-10.7,5.5c-1.6,3.7-0.5,6.9,1.8,9.4
	C92.1,120.9,88.8,128.8,92.3,133.1L92.3,133.1z M126.6,95.1c0.4,1,0.9,1.9,1.6,2.7c-1.1,0.6-2,1.3-3,2c-2.5-3-4.3-9.7-0.2-12.1
	c4.4-2.5,8.8,3,9.9,6.9c-1,0.3-1.9,0.7-2.8,1.1l-0.5,0.2c-0.3-1-0.8-2.1-1.3-3c-0.5-1.2-1.4-2.1-2.6-2.5c-0.7-0.2-1.5,0.3-1.7,1
	C125.4,92.7,126.1,94,126.6,95.1L126.6,95.1z M114.6,104c0.9,0.7,2.4,1.2,2.8,2.3c0,0.1,0.1,0.2,0.2,0.3c-0.7,0.7-1.3,1.4-2,2.1
	c-2.5-1.7-7.9-8.2-4.5-10.9s9,1.5,11,4.5c-0.7,0.6-1.4,1.3-2.1,2c-0.1-0.1-0.2-0.1-0.3-0.2c-1.1-0.4-1.7-1.9-2.3-2.8
	c-0.8-1.2-1.9-2.1-3.4-1.7c-0.5,0.1-0.9,0.5-1,1C112.4,102.1,113.3,103.2,114.6,104L114.6,104z M103.8,114.3
	c0.5,1.2,1.4,2.1,2.6,2.6c1,0.5,2,1,3,1.3c-0.1,0.2-0.2,0.3-0.3,0.5c-0.4,0.9-0.8,1.9-1.1,2.8c-4-1.2-9.4-5.5-6.9-9.9
	c2.4-4.2,9-2.3,12.1,0.2c-0.7,1-1.4,2-2,3c-0.9-0.6-1.8-1.1-2.7-1.6c-1.1-0.5-2.4-1.1-3.6-0.6C104,112.9,103.6,113.6,103.8,114.3
	L103.8,114.3z M106.1,127.8c-0.9-0.3-1.8-0.6-2.8-0.8c-1.2-0.2-2.5-0.4-3.5,0.3c-0.6,0.4-0.9,1.2-0.5,1.9c0.7,1,1.8,1.6,3,1.8
	c1,0.3,2,0.5,3.1,0.6c-0.2,1.2-0.3,2.3-0.4,3.5c-3.8-0.2-9.7-2.8-9.2-7.2c0.5-4.9,7.6-4.9,11.3-3.5
	C106.7,125.4,106.3,126.6,106.1,127.8L106.1,127.8z M110.8,134.8c-1,0.2-2.1,0.3-3.2,0.4c0.4-5.4,1.8-10.7,4-15.7
	c2.2-4.6,5.2-8.7,8.9-12.2c3.6-3.6,6.9-6.5,11.5-8.7c5.1-2.4,10.6-3.8,16.3-4.3c0,0.4-0.1,0.8-0.1,1.3c-0.1,0.7-0.2,1.3-0.3,2
	l-0.2,0.9c-9.4,1.7-17.3,5.2-24,12s-10.3,14.5-12,24L110.8,134.8z M123.6,115.4c-0.1-0.1-0.2-0.2-0.4-0.3c0.8-0.9,1.6-1.8,2.5-2.7
	s1.8-1.7,2.7-2.5c0.1,0.1,0.2,0.3,0.3,0.4l8.1,8.1c-0.7,1-1.5,1.9-2.4,2.8c-0.9,0.8-1.8,1.6-2.8,2.3L123.6,115.4z M129.3,125.1
	c-1.1,0.8-2.2,1.5-3.3,2.3l-1.1,0.8l-5.8-5.6c-0.2-0.2-0.4-0.3-0.7-0.4c0.9-1.7,1.9-3.4,3-5l0.1,0.1
	C124.2,119.9,126.7,122.5,129.3,125.1L129.3,125.1z M130.6,108.4L130.6,108.4c1.5-1.2,3.1-2.2,4.9-3.1c0.1,0.3,0.2,0.5,0.4,0.7
	l5.6,5.8l-0.5,0.6c-0.9,1.2-1.8,2.5-2.6,3.7L130.6,108.4z M137.9,104.2c2.8-1.2,5.7-2.1,8.7-2.7c-0.8,2.8-2,5.5-3.6,7.9L137.9,104.2
	z M114.8,133.4c0.6-3,1.5-5.9,2.7-8.7l5.2,5.1C120.2,131.3,117.5,132.5,114.8,133.4L114.8,133.4z M121.8,134.3L121.8,134.3
	c4.8-2.2,9.4-4.9,13.6-8.1c5.3-4,9.4-10.9,12.1-17.6l0,0c10.7,2.4-0.6,17.3-4.5,21.2C139.2,133.8,124.2,145,121.8,134.3L121.8,134.3
	z M124.6,141.3c6.5,1.4,16.6-5.7,20.4-9.6s11-14,9.5-20.4c1.5,0.9,2.7,2.1,3.6,3.6c1.8,3,1.3,6,0.2,9.1c-1.7,4.5-4.4,9.8-7.9,13.3
	s-8.7,6.2-13.3,7.9c-3.1,1.1-6.1,1.6-9.1-0.2C126.7,144,125.5,142.8,124.6,141.3L124.6,141.3z M139.6,150.3
	c-2.4,0.1-4.8-0.4-6.9-1.3h0.5c3.3-0.2,6.8-1.9,9.7-3.4c3.2-1.7,7.1-3.8,9.7-6.3s4.4-6.1,6.1-9.1s3.3-6.6,3.6-10.1
	c0-0.3,0-0.5,0-0.8c0.9,2,1.3,4.2,1.3,6.4c0,6.2-2.3,13.4-6.8,17.9S145.6,150.2,139.6,150.3L139.6,150.3z M158.1,171.1
	c3.5,3.4,6.7,7,10.8,9.7c-4.1,2.7-7.3,6.3-10.8,9.7c-4.7,4.5-12.4,9.6-18.5,4.7c1.1-1.7,2-3.5,2.7-5.3c3.2,1.5,6.8,1.9,9.9,0
	c2.6-1.6,5.6-5.8,5.6-9c0-3-2.8-7.1-5.2-8.7c-3.2-2.2-7-1.8-10.4-0.3c-0.7-1.9-1.6-3.6-2.7-5.3C145.6,161.6,153.3,166.7,158.1,171.1
	L158.1,171.1z M143.2,174.4c2.6-1.3,5.4-1.7,7.9,0c1.9,1.2,3.8,4.1,3.7,6.4c-0.2,6.2-6.5,8.9-11.6,6.4c0.6-2.1,1-4.2,1-6.4
	C144.2,178.7,143.8,176.5,143.2,174.4L143.2,174.4z M133.2,163c4.6,4.3,8.3,11.4,8.3,17.8s-3.5,13-7.9,17.4
	c-1.6,1.6-3.4,2.8-5.5,3.6c0.1-0.1,0.3-0.2,0.4-0.4c2.2-2.5,3.5-6.1,4.4-9.2c1.1-3.5,2.4-7.7,2.4-11.4c0-3.5-1.2-7.5-2.2-10.8
	s-2.3-7-4.5-9.7c-0.2-0.2-0.3-0.4-0.5-0.5C130,160.6,131.7,161.7,133.2,163L133.2,163z M122.9,159.8c3,1,4.5,3.4,5.8,6.1
	c2,4.4,3.8,10.1,3.8,14.9s-1.8,10.6-3.8,14.9c-1.3,2.8-2.7,5.1-5.8,6.1c-1.9,0.6-4,0.6-5.9,0.2c5.7-3.5,7.7-15.7,7.7-21.2
	s-2.1-17.6-7.7-21.2C119,159.2,121,159.3,122.9,159.8L122.9,159.8z M110.1,162.7L110.1,162.7c9.3-5.8,11.8,12.7,11.8,18.2
	s-2.5,24-11.8,18.2H110c1.9-4.9,3.2-10.1,3.9-15.3C114.9,177.1,112.8,169.3,110.1,162.7L110.1,162.7z M109.7,180.8
	c0,1.2-0.1,2.4-0.3,3.6H98c-0.1,0-0.3,0-0.4,0.1c-0.1-1.2-0.2-2.4-0.2-3.7s0.1-2.5,0.2-3.7c0.1,0.1,0.3,0.1,0.4,0.1h11.5
	C109.6,178.4,109.7,179.6,109.7,180.8L109.7,180.8z M108,169.2L108,169.2c0.3,1.7,0.7,3.5,1,5.3H97.8c0.3-1.9,0.8-3.8,1.4-5.6
	c0.2,0.1,0.5,0.2,0.7,0.2L108,169.2z M104.4,158.3c1.4,2.6,2.4,5.3,3.1,8.1l-7.4-0.1C101.3,163.5,102.7,160.9,104.4,158.3
	L104.4,158.3z M76.7,180.9c0-4.3,7.7-5.1,10.9-4.5c-0.1,0.9-0.1,1.9-0.1,2.8l0,0c-2.4,1-5.9-1.9-7.6,1c-0.3,0.4-0.3,1,0,1.4
	c1.7,2.9,5.2,0,7.6,1l0,0c0,1,0.1,1.9,0.1,2.8C84.4,186,76.7,185.2,76.7,180.9z M90.4,197.9c0.3,0.7,0.6,1.3,0.8,2
	c-3.4,1.9-9.8,2.7-11.7-1.4c-2.3-4.8,4.6-8.8,8.5-9.2c0.2,1.2,0.4,2.4,0.7,3.5c-1.1,0.2-2.2,0.5-3.2,0.9c-1.1,0.4-2.4,0.9-2.9,2.1
	c-0.4,0.7-0.1,1.5,0.5,1.9c1.9,1,4.7-0.1,6.7-1.2C90,197,90.2,197.4,90.4,197.9L90.4,197.9z M90.4,163.8c-0.2,0.5-0.3,0.9-0.5,1.4
	c-2-1.1-4.8-2.2-6.7-1.2c-0.6,0.4-0.8,1.2-0.5,1.9c0.5,1.1,1.8,1.6,2.9,2.1c1,0.4,2.1,0.7,3.2,0.9c-0.3,1.2-0.6,2.4-0.7,3.5
	c-3.9-0.4-10.8-4.4-8.5-9.2c2-4.1,8.3-3.2,11.7-1.4C90.9,162.5,90.6,163.2,90.4,163.8L90.4,163.8z M98.6,150.1
	c-0.8,0.9-1.5,1.8-2.2,2.8c-0.7-0.6-1.5-1.2-2.4-1.7c-1.1-0.6-2.3-1.3-3.6-0.9c-0.7,0.2-1.2,0.9-1,1.7c0.2,1.3,1.5,2.1,2.4,2.8
	c0.7,0.5,1.5,1,2.3,1.3c-0.6,1-1.2,2-1.8,3.1c-3.7-1.7-8.7-6.7-5.4-10.6C89.9,145.3,95.8,147.6,98.6,150.1L98.6,150.1z M40,196.3
	c-1.2-1.3-2.4-2.5-3.6-3.8c1,0.3,2,0.4,3,0.5c2.1,0.1,4.2-0.7,5.7-2.2c0,0.2,0,0.4,0.1,0.6c0.1,0.8,0.3,1.6,0.5,2.4l-0.2,0.1
	c-1.4,1.4-3.4,1.9-5.3,2.3L40,196.3z M44.6,201.1L44.6,201.1l-2.4-2.5c1.5-0.3,3-1,4.3-1.9c0.3,0.9,0.6,1.9,0.9,2.8
	C46.7,200.3,45.7,200.8,44.6,201.1z M51.1,154c-0.9,1.7-1.8,3.4-2.5,5.1l-0.2,0.3c-0.6-0.4-1.2-0.8-1.8-1
	C48.1,156.9,49.6,155.4,51.1,154z M44.5,160.6L44.5,160.6c1.2,0.2,2.1,0.7,2.9,1.5c-0.3,0.9-0.7,1.9-0.9,2.8
	c-1.3-0.9-2.8-1.5-4.3-1.9L44.5,160.6z M40.1,165.4h0.2c1.9,0.4,3.9,0.9,5.3,2.3c0.1,0.1,0.1,0.1,0.2,0.1c-0.1,0.6-0.3,1.2-0.4,1.8
	c-0.1,0.4-0.1,0.8-0.2,1.2c-1.5-1.5-3.6-2.4-5.7-2.2c-1,0-2,0.2-3,0.5C37.7,167.9,38.9,166.7,40.1,165.4L40.1,165.4z M32.9,173.8
	c2.6-1.8,7.6-3.6,10.3-1c2.4,2.3,1.5,5.2,1.5,8.1s0.8,5.8-1.5,8.1s-6.9,1.1-9.5-0.4c-2.2-1.3-3.9-3.4-5.9-5c-1.4-1-2.8-1.9-4.3-2.7
	C26.9,178.8,29.5,176.2,32.9,173.8L32.9,173.8z M18.4,180.8L18.4,180.8L18.4,180.8L18.4,180.8z"/>
<linearGradient id="SVGID_1_" gradientUnits="userSpaceOnUse" x1="191.4389" y1="-751.2" x2="191.4389" y2="-552.9" gradientTransform="matrix(1 0 0 -1 0 -548)">
	<stop  offset="0" style="stop-color:#100D23"/>
	<stop  offset="0.3" style="stop-color:#100D23;stop-opacity:0"/>
</linearGradient>
<path class="st1" d="M349.2,203.2H39.1c-6.3,0,0.8-10.2-26.8-21.4s0-111.3,0-176.9H374c0,66.2,19.9,170.6,0,178.6
	S357.5,203.2,349.2,203.2z"/>
<path class="st2" d="M167,128.9l12.9,4.2c1.5,0.5,3.2,0,4.2-1.3l7-8.9c1.5-1.9,4.3-2,5.9-0.1l7.8,9.1c1,1.2,2.7,1.7,4.2,1.1
	l10.4-3.9c2.2-0.8,4.6,0.5,5.1,2.9l2.1,11.1c0.3,1.6,1.5,2.8,3.1,3.1l13.1,2.2c2.4,0.4,3.8,2.9,2.9,5.2l-4.4,10.9
	c-0.6,1.5-0.2,3.2,1,4.2l9.4,8.5c1.7,1.6,1.6,4.4-0.2,5.8l-9.9,7.7c-1.3,1-1.8,2.7-1.2,4.3l4.2,11.9c0.8,2.3-0.7,4.7-3.1,5
	l-10.7,1.3c-1.7,0.2-3.1,1.5-3.3,3.3l-1.6,11.5c-0.3,2.3-2.7,3.8-4.9,3.1l-11.9-3.7c-1.5-0.5-3.1,0-4,1.2l-8.1,9.7
	c-1.5,1.8-4.2,1.8-5.7,0.1l-8.7-9.6c-1-1.1-2.7-1.5-4.1-1l-11,4c-2.3,0.8-4.8-0.7-5.1-3.1l-1.4-11.9c-0.2-1.6-1.4-2.9-3-3.3
	l-12.7-2.6c-2.4-0.5-3.7-3-2.7-5.3l4.2-9.6c0.6-1.4,0.3-3.1-0.8-4.2l-9.5-9.3c-1.6-1.5-1.5-4.1,0.1-5.5l9.2-8.3c1.2-1,1.6-2.7,1-4.1
	l-4.1-11.2c-0.9-2.3,0.7-4.8,3.2-5.1l11.7-1.3c1.8-0.2,3.1-1.6,3.4-3.3l1.5-11.6C162.4,129.7,164.7,128.2,167,128.9z"/>
<linearGradient id="SVGID_2_" gradientUnits="userSpaceOnUse" x1="194.25" y1="-667.025" x2="194.25" y2="-789.6889" gradientTransform="matrix(1 0 0 -1 0 -548)">
	<stop  offset="0" style="stop-color:#2CFFAB"/>
	<stop  offset="1" style="stop-color:#746CFE"/>
</linearGradient>
<path class="st3" d="M134.9,175.7c-2.9,2.4-2.9,6.9,0,9.4c1.2,1,2.5,2.1,3.8,3.1c1,0.8,2,1.6,3.1,2.5c2.2,1.7,2.9,4.6,1.9,7.1
	c-0.5,1.2-1,2.4-1.5,3.7c-0.6,1.5-1.2,3.1-1.7,4.6c-1.3,3.6,0.9,7.5,4.7,8.1c1.6,0.3,3.2,0.5,4.8,0.8c1.3,0.2,2.6,0.4,3.9,0.6
	c2.7,0.4,4.9,2.5,5.2,5.2c0.2,1.3,0.3,2.6,0.5,3.9c0.3,1.6,0.5,3.2,0.8,4.8c0.6,3.7,4.5,6,8.1,4.7c1.5-0.6,3.1-1.1,4.6-1.7
	c1.2-0.5,2.5-1,3.8-1.5c2.5-1,5.4-0.2,7.1,1.9c0.8,1,1.6,2,2.4,3.1c1,1.3,2.1,2.5,3.1,3.8c2.4,2.9,6.9,2.9,9.4,0
	c1.1-1.3,2.1-2.5,3.1-3.8c0.8-1,1.6-2,2.5-3.1c1.7-2.2,4.6-2.9,7.1-1.9c1.2,0.5,2.4,1,3.7,1.5c1.5,0.6,3.1,1.2,4.6,1.7
	c3.6,1.3,7.5-0.9,8.1-4.7c0.3-1.6,0.5-3.2,0.8-4.8c0.2-1.3,0.4-2.6,0.6-3.9c0.4-2.7,2.5-4.9,5.2-5.2c1.3-0.2,2.6-0.3,3.9-0.5
	c1.6-0.3,3.2-0.5,4.8-0.8c3.7-0.6,6-4.5,4.7-8.1c-0.6-1.5-1.1-3.1-1.7-4.6c-0.5-1.2-1-2.5-1.5-3.7c-1-2.5-0.2-5.4,1.9-7.1
	c1-0.8,2.1-1.6,3.1-2.4c1.3-1,2.5-2.1,3.8-3.1c2.9-2.4,2.9-6.9,0-9.4c-1.3-1.1-2.5-2.1-3.8-3.1c-1-0.8-2-1.6-3.1-2.5
	c-2.2-1.7-2.9-4.6-1.9-7.1c0.5-1.2,1-2.4,1.5-3.7c0.6-1.5,1.2-3.1,1.7-4.6c1.3-3.6-0.9-7.5-4.7-8.1c-1.6-0.3-3.2-0.5-4.8-0.8
	c-1.3-0.2-2.6-0.4-3.9-0.6c-2.7-0.4-4.9-2.5-5.2-5.2c-0.2-1.3-0.3-2.6-0.5-3.9c-0.3-1.6-0.5-3.2-0.8-4.8c-0.6-3.7-4.5-6-8.1-4.7
	c-1.5,0.6-3.1,1.1-4.6,1.7c-1.2,0.5-2.5,1-3.7,1.5c-2.5,1-5.4,0.2-7.1-1.9c-0.8-1-1.6-2.1-2.4-3.1c-1-1.3-2.1-2.6-3.1-3.8
	c-2.4-2.9-6.9-2.9-9.3,0c-1.1,1.3-2.1,2.5-3.1,3.8c-0.8,1-1.6,2-2.5,3.1c-1.7,2.2-4.6,2.9-7.1,1.9c-1.2-0.5-2.4-1-3.7-1.5
	c-1.5-0.6-3.1-1.2-4.6-1.7c-3.6-1.3-7.5,0.9-8.1,4.7c-0.3,1.6-0.5,3.2-0.8,4.8c-0.2,1.3-0.4,2.6-0.6,3.9c-0.4,2.7-2.5,4.9-5.2,5.2
	c-1.3,0.2-2.6,0.3-3.9,0.5c-1.6,0.3-3.2,0.5-4.8,0.8c-3.7,0.6-6,4.5-4.7,8.1c0.6,1.5,1.1,3.1,1.7,4.6c0.5,1.2,1,2.5,1.5,3.8
	c1,2.5,0.2,5.4-1.9,7.1c-1,0.8-2,1.6-3.1,2.4C137.4,173.6,136.1,174.7,134.9,175.7z M155.8,190.6c1.7-2.6,4-4.7,6.7-6.1
	c3.8-2.1,8.1-3.2,12.5-3.3c3.2,0,6.2,0.6,9.2,1.8c-2,2.4-4.3,4.5-7,6.1c-3.8,2.1-8.1,3.3-12.4,3.4
	C161.6,192.7,158.5,192.1,155.8,190.6z M155.8,170.1c2.7-1.4,5.8-2.1,8.8-1.9c4.3,0.1,8.6,1.3,12.4,3.4c2.7,1.6,5,3.7,7,6.1
	c-2.9,1.2-6,1.7-9.2,1.8c-4.3-0.1-8.6-1.2-12.5-3.3C159.8,174.8,157.5,172.7,155.8,170.1z M166.1,152.4c3.1,0.1,6.1,1.2,8.6,2.8
	c3.7,2.3,6.8,5.5,9,9.2c1.5,2.7,2.5,5.7,3.1,8.7c-3.1-0.5-6.1-1.5-8.7-3.1c-3.8-2.2-6.9-5.4-9.2-9
	C167.2,158.4,166.2,155.5,166.1,152.4z M183.9,142.1c2.6,1.7,4.7,4,6.1,6.7c2.1,3.8,3.2,8.1,3.3,12.5c0,3.2-0.6,6.2-1.8,9.2
	c-2.4-2-4.5-4.3-6.1-7c-2.1-3.8-3.3-8.1-3.4-12.4C181.9,148.2,182.3,144.6,183.9,142.1z M204.4,142.1c1.4,2.7,2.1,5.8,1.9,8.8
	c-0.1,4.3-1.3,8.6-3.4,12.4c-1.6,2.7-3.7,5-6.1,7c-1.2-2.9-1.7-6-1.8-9.2c0.1-4.4,1.2-8.6,3.3-12.5
	C199.7,146.1,201.8,143.8,204.4,142.1z M222.2,152.4c0.1,2.9-1.4,6.3-2.8,8.6c-2.3,3.7-5.5,6.8-9.2,9c-2.7,1.6-5.7,2.5-8.7,3.1
	c0.5-3.1,1.5-6.1,3.1-8.7c2.2-3.8,5.4-6.9,9-9.2C216.1,153.5,219,152.5,222.2,152.4z M232.4,170.1c-1.7,2.6-4,4.7-6.7,6.1
	c-3.9,2.1-8.1,3.2-12.5,3.3c-3.2,0-6.2-0.6-9.2-1.8c2-2.4,4.3-4.5,7-6.1c3.8-2.1,8.1-3.3,12.4-3.4
	C226.3,168.2,229.9,168.6,232.4,170.1z M232.4,190.6c-2.7,1.4-5.8,2.1-8.8,1.9c-4.3-0.1-8.6-1.3-12.4-3.4c-2.7-1.6-5-3.7-7-6.1
	c2.9-1.2,6-1.7,9.2-1.8c4.4,0.1,8.6,1.2,12.5,3.3C228.4,186,230.7,188.1,232.4,190.6z M222.2,208.4c-2.9,0.1-6.3-1.4-8.6-2.8
	c-3.7-2.3-6.8-5.5-9-9.2c-1.6-2.7-2.5-5.7-3.1-8.7c3.1,0.5,6.1,1.5,8.7,3.1c3.8,2.2,6.8,5.4,9.2,9
	C220.8,202.2,222.2,205.5,222.2,208.4z M204.4,218.7c-2.5-1.4-4.7-4.3-6.1-6.7c-2.1-3.8-3.2-8.1-3.3-12.4c0-3.2,0.6-6.2,1.8-9.2
	c2.4,2,4.5,4.3,6.1,7c2.1,3.8,3.3,8.1,3.4,12.4C206.4,212.9,205.8,216,204.4,218.7L204.4,218.7z M183.9,218.7
	c-1.5-2.5-2-6.1-1.9-8.8c0.1-4.3,1.3-8.6,3.4-12.4c1.6-2.6,3.7-5,6.1-7c1.2,2.9,1.7,6,1.8,9.2c-0.1,4.4-1.2,8.6-3.3,12.5
	C188.5,214.7,186.4,217,183.9,218.7L183.9,218.7z M166.1,208.4c0.1-3.1,1.2-6.1,2.8-8.6c2.3-3.7,5.5-6.8,9.2-9
	c2.7-1.6,5.7-2.5,8.7-3.1c-0.5,3.1-1.5,6.1-3.1,8.7c-2.2,3.8-5.4,6.8-9,9.2C172.3,207.1,169,208.5,166.1,208.4z M188.3,177
	c-0.4,0.4-0.8,0.8-1.3,1.3c-0.7-1.1-1.6-2.1-2.4-3.1c0.1-0.1,0.2-0.2,0.3-0.3l0.1-0.4c1.3,0.3,2.5,0.5,3.8,0.6
	C188.6,175.9,188.5,176.5,188.3,177L188.3,177z M190.7,174.5c-0.6,0.2-1.2,0.3-1.8,0.4c-0.1-1.3-0.3-2.5-0.6-3.8l0.4-0.1
	c0.1-0.1,0.2-0.2,0.3-0.3c0.9,0.8,2,1.7,3.1,2.4C191.7,173.8,191.3,174.2,190.7,174.5L190.7,174.5z M194.1,173.7
	c-0.6-0.1-1.2-0.3-1.8-0.5c0.5-1.2,1.1-2.3,1.4-3.6l0.4,0.1l0.4-0.1c0.4,1.3,0.8,2.4,1.4,3.6C195.3,173.4,194.7,173.6,194.1,173.7
	L194.1,173.7z M197.5,174.5c-0.4-0.4-0.8-0.8-1.3-1.3c1.1-0.7,2.1-1.6,3.1-2.4l0.3,0.3l0.4,0.1c-0.3,1.3-0.5,2.5-0.6,3.8
	C198.6,174.9,198.1,174.8,197.5,174.5L197.5,174.5z M199.9,177c-0.2-0.6-0.3-1.2-0.4-1.8c1.3-0.1,2.5-0.3,3.8-0.6l0.1,0.4l0.3,0.3
	c-0.8,0.9-1.7,2-2.4,3.1C200.7,177.9,200.3,177.5,199.9,177L199.9,177z M200.8,180.4c0.1-0.6,0.3-1.2,0.5-1.8
	c1.2,0.5,2.4,1.1,3.6,1.4c0,0.1-0.1,0.2-0.1,0.4s0.1,0.2,0.1,0.4c-1.3,0.4-2.4,0.8-3.6,1.4C201.1,181.6,200.9,181,200.8,180.4
	L200.8,180.4z M199.9,183.7c0.4-0.4,0.8-0.8,1.4-1.3c0.7,1.1,1.6,2.1,2.4,3.1l-0.3,0.3l-0.1,0.4c-1.3-0.3-2.5-0.5-3.8-0.6
	C199.6,184.9,199.8,184.3,199.9,183.7L199.9,183.7z M197.5,186.2c0.6-0.2,1.2-0.3,1.8-0.4c0.1,1.3,0.3,2.5,0.6,3.8l-0.4,0.1
	l-0.3,0.3c-0.9-0.8-2-1.7-3.1-2.4C196.6,187,197,186.6,197.5,186.2L197.5,186.2z M194.1,187c0.6,0.1,1.2,0.3,1.8,0.5
	c-0.5,1.2-1.1,2.4-1.4,3.6l-0.4-0.1l-0.4,0.1c-0.4-1.3-0.8-2.4-1.4-3.6C192.9,187.4,193.6,187.2,194.1,187L194.1,187z M190.7,186.2
	c0.4,0.4,0.8,0.8,1.3,1.4c-1.1,0.7-2.1,1.6-3.1,2.4l-0.3-0.3l-0.4-0.1c0.3-1.3,0.5-2.5,0.6-3.8C189.6,185.9,190.2,186.1,190.7,186.2
	L190.7,186.2z M188.3,183.7c0.2,0.6,0.3,1.2,0.4,1.8c-1.3,0.1-2.5,0.3-3.8,0.6l-0.1-0.4c-0.1-0.1-0.2-0.2-0.3-0.3
	c0.8-0.9,1.7-2,2.4-3.1C187.5,182.9,187.9,183.3,188.3,183.7L188.3,183.7z M187.5,180.4c-0.1,0.6-0.3,1.2-0.5,1.8
	c-1.2-0.5-2.4-1.1-3.6-1.4c0-0.1,0.1-0.2,0.1-0.4s-0.1-0.2-0.1-0.4c1.3-0.4,2.4-0.8,3.6-1.4C187.2,179.2,187.3,179.8,187.5,180.4
	L187.5,180.4z M170.4,166.7l-0.1,0.4c-1.3-0.3-2.5-0.5-3.8-0.6c0.1-0.6,0.3-1.2,0.4-1.8c0.4-0.4,0.8-0.8,1.4-1.3
	c0.7,1.1,1.6,2.1,2.4,3.1L170.4,166.7z M180.4,156.6c-0.1,0.1-0.2,0.2-0.3,0.3c-0.9-0.8-2-1.7-3.1-2.4c0.4-0.4,0.8-0.9,1.3-1.4
	c0.6-0.2,1.2-0.3,1.8-0.4c0.1,1.3,0.3,2.5,0.6,3.8L180.4,156.6z M194.1,152.9l-0.4,0.1c-0.4-1.3-0.8-2.4-1.4-3.6
	c0.6-0.2,1.2-0.3,1.8-0.5c0.6,0.1,1.2,0.3,1.8,0.5c-0.5,1.2-1.1,2.4-1.4,3.6L194.1,152.9z M207.8,156.6l-0.4-0.1
	c0.3-1.3,0.5-2.5,0.6-3.8c0.6,0.1,1.2,0.3,1.8,0.4c0.4,0.4,0.8,0.8,1.3,1.4c-1.1,0.7-2.1,1.6-3.1,2.4
	C208,156.8,207.9,156.7,207.8,156.6L207.8,156.6z M217.8,166.7c-0.1-0.1-0.2-0.2-0.3-0.3c0.8-0.9,1.7-2,2.4-3.1
	c0.4,0.4,0.9,0.8,1.3,1.3c0.2,0.6,0.3,1.2,0.4,1.8c-1.3,0.1-2.5,0.3-3.8,0.6C217.9,166.9,217.9,166.8,217.8,166.7L217.8,166.7z
	 M221.4,180.4c0-0.1-0.1-0.2-0.1-0.4c1.3-0.4,2.4-0.8,3.6-1.4c0.2,0.6,0.3,1.2,0.5,1.8c-0.1,0.6-0.3,1.2-0.5,1.8
	c-1.2-0.5-2.4-1.1-3.6-1.4C221.4,180.6,221.4,180.5,221.4,180.4L221.4,180.4z M217.8,194.1c0-0.1,0.1-0.2,0.1-0.4
	c1.3,0.3,2.5,0.5,3.8,0.6c-0.1,0.6-0.3,1.2-0.4,1.8c-0.4,0.4-0.8,0.8-1.3,1.3c-0.7-1.1-1.6-2.1-2.4-3.1L217.8,194.1z M207.8,204.2
	l0.3-0.3c0.9,0.8,2,1.7,3.1,2.4c-0.4,0.4-0.8,0.9-1.3,1.3c-0.6,0.2-1.2,0.3-1.8,0.4c-0.1-1.3-0.3-2.5-0.6-3.8L207.8,204.2z
	 M194.1,207.9l0.4-0.1c0.4,1.3,0.8,2.4,1.4,3.6c-0.6,0.2-1.2,0.3-1.8,0.5c-0.6-0.1-1.2-0.3-1.8-0.5c0.5-1.2,1.1-2.4,1.4-3.6
	L194.1,207.9z M180.4,204.2l0.4,0.1c-0.3,1.3-0.5,2.5-0.6,3.8c-0.6-0.1-1.2-0.3-1.8-0.4c-0.4-0.4-0.8-0.8-1.3-1.3
	c1.1-0.7,2.1-1.6,3.1-2.4C180.2,204,180.3,204.1,180.4,204.2L180.4,204.2z M170.4,194.2c0.1,0.1,0.2,0.2,0.3,0.3
	c-0.8,0.9-1.7,2-2.4,3.1c-0.4-0.4-0.9-0.8-1.4-1.3c-0.2-0.6-0.3-1.2-0.4-1.8c1.3-0.1,2.5-0.3,3.8-0.6L170.4,194.2z M166.7,180.5
	l0.1,0.4c-1.3,0.4-2.4,0.8-3.6,1.4c-0.2-0.6-0.3-1.2-0.5-1.8c0.1-0.6,0.3-1.2,0.5-1.8c1.2,0.5,2.4,1.1,3.6,1.4L166.7,180.5z
	 M180.1,210.2c-0.1,0-0.1-0.1-0.2-0.2 M196.8,213.2l-0.2-0.1L196.8,213.2C196.8,213.1,196.8,213.1,196.8,213.2L196.8,213.2z
	 M212.8,207.4l-0.2,0.1L212.8,207.4L212.8,207.4z M223.9,194.5l-0.2,0.2c0-0.1,0-0.1,0-0.2H223.9z M226.9,177.8c0,0.1,0,0.1-0.1,0.2
	C226.8,178,226.8,177.9,226.9,177.8L226.9,177.8z M221.1,161.8c0,0.1,0,0.2,0.1,0.2L221.1,161.8C221,161.9,221.1,161.8,221.1,161.8
	L221.1,161.8z M208.2,150.8l0.2,0.2L208.2,150.8L208.2,150.8z M191.5,147.8l0.2,0.1L191.5,147.8L191.5,147.8z M175.5,153.5l0.2-0.1
	L175.5,153.5L175.5,153.5z M164.4,166.4c0.1-0.1,0.1-0.1,0.1,0H164.4z M208.2,210h0.2l-0.2,0.2V210z M221,199l0.1-0.1
	C221.1,199,221,199.1,221,199L221,199z M226.7,183.1c0-0.1,0-0.1,0-0.2C226.8,183,226.8,183,226.7,183.1L226.7,183.1z M223.7,166.4
	c0-0.1,0-0.1,0-0.2c0-0.1,0.1,0.1,0.2,0.2H223.7z M212.7,153.6l-0.1-0.1L212.7,153.6L212.7,153.6z M196.7,147.9h-0.2H196.7
	L196.7,147.9z M180.1,150.9l-0.2,0.1L180.1,150.9L180.1,150.9z M149.4,180.4L149,181l-1.3-0.6l1.3-0.6L149.4,180.4z M155.4,158.1
	l-0.7,0.3c-0.2-0.4-0.5-0.7-0.7-1.2l1.4,0.1C155.4,157.6,155.4,157.8,155.4,158.1z M171.8,141.7l-0.7-0.1l-0.1-1.4
	c0.4,0.2,0.8,0.5,1.2,0.7C172,141.3,171.9,141.5,171.8,141.7z M194.1,135.7l-0.6-0.4c0.2-0.4,0.4-0.8,0.6-1.3l0.6,1.3L194.1,135.7z
	 M216.4,141.7l-0.3-0.6l1.2-0.7c0,0.4,0,0.9,0,1.4L216.4,141.7L216.4,141.7z M232.8,158.1l0.1-0.7l1.4-0.1l-0.7,1.2L232.8,158.1z
	 M238.8,180.4l0.4-0.6l1.3,0.6l-1.3,0.6L238.8,180.4z M232.8,202.7l0.7-0.3l0.7,1.2h-1.4V202.7z M216.4,219.1l0.7,0.1
	c0,0.4,0,0.9,0,1.4l-1.2-0.7C216.2,219.5,216.3,219.3,216.4,219.1L216.4,219.1z M194.1,225.1l0.6,0.4l-0.6,1.3
	c-0.2-0.4-0.4-0.8-0.6-1.3L194.1,225.1z M171.8,219.1c0.1,0.2,0.2,0.4,0.3,0.7l-1.2,0.7l0.1-1.4H171.8z M155.4,202.7
	c0,0.2,0,0.5-0.1,0.7H154c0.2-0.4,0.5-0.7,0.7-1.2L155.4,202.7z M144,180.4c1.4,0.7,2.6,1.5,4,2.2c-1.3,1.7-2,3.8-2.2,5.9l-1.3-0.9
	c-2.9-2.3-5.8-4.7-8.5-7.2c2.8-2.4,5.7-4.8,8.5-7.2l1.3-0.9c0.2,2.1,0.9,4.2,2.2,5.9C146.7,178.9,145.3,179.7,144,180.4z
	 M150.7,155.4c0.7,1.4,1.6,2.6,2.4,3.9c-2,0.8-3.7,2.3-4.8,4c-0.2-0.5-0.4-0.9-0.6-1.5c-1.4-3.5-2.6-6.9-3.9-10.4
	c3.7-0.7,7.3-1.4,10.9-1.9l1.6-0.2c-0.9,1.9-1.3,4.1-1.1,6.2C153.7,155.4,152.2,155.4,150.7,155.4L150.7,155.4z M169.1,137
	c0,1.5,0,3.1,0.1,4.6c-2.1-0.2-4.3,0.1-6.2,1.1c0.1-0.5,0.1-1.1,0.2-1.6c0.5-3.7,1.2-7.4,1.9-10.9c3.5,1.2,6.9,2.5,10.4,3.9l1.5,0.6
	c-1.8,1.2-3.2,2.8-4,4.8C171.7,138.5,170.4,137.7,169.1,137L169.1,137z M194.1,130.2c-0.7,1.4-1.5,2.6-2.2,4c-1.7-1.3-3.8-2-5.9-2.2
	c0.3-0.4,0.6-0.8,0.9-1.3c2.3-2.9,4.6-5.8,7.2-8.5c2.4,2.8,4.8,5.7,7.2,8.5c0.3,0.4,0.6,0.8,0.9,1.3c-2.1,0.2-4.2,0.9-5.9,2.2
	C195.7,133,194.9,131.6,194.1,130.2L194.1,130.2z M219.2,137c-1.4,0.7-2.6,1.6-3.9,2.4c-0.8-2-2.3-3.7-4-4.8l1.5-0.6
	c3.5-1.4,6.9-2.6,10.4-3.9c0.7,3.7,1.4,7.3,1.9,10.9c0.1,0.5,0.1,1.1,0.2,1.6c-1.9-0.9-4.1-1.3-6.2-1.1
	C219.1,140,219.2,138.5,219.2,137z M237.5,155.4c-1.5,0-3.1,0-4.5,0.1c0.2-2.1-0.1-4.3-1.1-6.2l1.6,0.2c3.7,0.5,7.4,1.2,10.9,1.9
	c-1.2,3.5-2.5,6.9-3.9,10.4c-0.2,0.5-0.4,0.9-0.6,1.5c-1.3-1.8-2.8-3.2-4.8-4C236,158,236.8,156.6,237.5,155.4L237.5,155.4z
	 M244.3,180.4c-1.4-0.7-2.6-1.5-4-2.2c1.3-1.7,2-3.8,2.2-5.9l1.3,0.9c2.9,2.3,5.8,4.6,8.5,7.2c-2.8,2.4-5.7,4.8-8.5,7.2l-1.3,0.9
	c-0.2-2.1-0.9-4.2-2.2-5.9C241.6,181.9,242.9,181.1,244.3,180.4L244.3,180.4z M237.5,205.4c-0.7-1.4-5.3-2.6-6.1-3.9
	c2-0.8,7.4-2.3,8.5-4c0.2,0.5,0.4,0.9,0.6,1.5c1.4,3.5,2.6,6.9,3.9,10.4c-3.7,0.7-7.3,1.4-10.9,1.9l-1.7,0.2
	c0.9-1.9,1.3-4.1,1.1-6.2C234.5,205.4,236.1,205.4,237.5,205.4L237.5,205.4z M219.2,223.8c0-1.5,0-3.1-0.1-4.5
	c2.1,0.2,4.3-0.1,6.2-1.1c-0.1,0.5-0.1,1.1-0.2,1.6c-0.5,3.7-1.2,7.4-1.9,10.9c-3.5-1.2-6.9-2.5-10.4-3.9l-1.5-0.6
	c1.8-1.2,3.2-2.8,4-4.8C216.5,222.3,217.9,223.1,219.2,223.8z M194.2,230.6c0.7-1.4,1.5-2.6,2.2-4c1.7,1.3,3.8,2,5.9,2.2
	c-0.3,0.4-0.6,0.8-0.9,1.3c-2.3,2.9-4.7,5.8-7.2,8.5c-2.4-2.8-4.8-5.7-7.2-8.5l-0.9-1.3c2.1-0.2,4.2-0.9,5.9-2.2
	C192.6,227.8,193.4,229.2,194.2,230.6L194.2,230.6z M169.1,223.8c1.4-0.7,2.6-1.6,3.9-2.4c0.8,2,2.3,3.6,4,4.8l-1.5,0.6
	c-3.5,1.4-6.9,2.6-10.4,3.9c-0.7-3.7-1.4-7.3-1.9-10.9c-0.1-0.5-0.1-1.1-0.2-1.6c1.9,0.9,4.1,1.3,6.2,1.1
	C169.1,220.8,169.1,222.3,169.1,223.8L169.1,223.8z M150.8,205.4c1.5,0,3.1,0,4.6-0.1c-0.2,2.1,0.1,4.3,1.1,6.2l-1.6-0.2
	c-3.7-0.5-7.4-1.2-10.9-1.9c1.2-3.5,2.5-6.9,3.9-10.4c0.2-0.5,0.4-0.9,0.6-1.5c1.2,1.8,2.8,3.2,4.8,4
	C152.2,202.8,151.5,204.2,150.8,205.4L150.8,205.4z M190.2,181.5c0-0.3-0.1-0.7-0.1-1.1c0-0.3,0-0.7,0.1-1.1
	c0.1-0.3,0.3-0.6,0.4-0.9c0.3-0.6,0.8-1.2,1.5-1.5c0.3-0.2,0.6-0.3,0.9-0.4c0.3-0.1,0.7-0.1,1.1-0.1s0.7,0,1.1,0.1
	c0.3,0.1,0.6,0.3,0.9,0.4c0.3,0.2,0.6,0.4,0.8,0.6c0.2,0.3,0.4,0.5,0.6,0.8c0.2,0.3,0.3,0.6,0.4,0.9c0.1,0.7,0.1,1.4,0,2.1
	c-0.1,0.3-0.3,0.6-0.4,0.9c-0.2,0.3-0.4,0.6-0.6,0.8c-0.2,0.2-0.6,0.4-0.8,0.6c-0.3,0.2-0.6,0.3-0.9,0.4c-0.7,0.1-1.4,0.1-2.1,0
	c-0.3-0.1-0.6-0.3-0.9-0.4c-0.3-0.1-0.6-0.4-0.8-0.6c-0.2-0.3-0.4-0.5-0.6-0.8C190.4,182.1,190.3,181.8,190.2,181.5L190.2,181.5z
	 M160.1,180.4c0,0.7-0.1,1.5-0.3,2.2c-0.5,1.8-2.6,2.8-3.9,4.1c-1.4,1.4-2.5,3.1-3.3,4.8c1.6,1.3,3.4,2.1,5.3,2.5
	c1.7,0.4,4,0.3,5.4,1.7c1.1,1.1,1.8,2.3,2.2,3.8c0.4,1.8-0.8,3.8-1.3,5.5c-0.5,1.9-0.7,3.9-0.4,5.8c1.9,0.3,3.9,0.1,5.8-0.4
	c1.7-0.4,3.7-1.7,5.5-1.3c0.7,0.2,1.4,0.4,2,0.8c0.6,0.4,1.3,0.8,1.7,1.4c1.3,1.4,1.2,3.7,1.7,5.4c0.4,1.9,1.4,3.7,2.5,5.3
	c1.8-0.7,3.5-1.9,4.8-3.3c1.3-1.3,2.3-3.3,4.1-3.9c1.5-0.4,2.9-0.4,4.3,0c1.8,0.5,2.8,2.6,4.1,3.9c1.4,1.4,3.1,2.5,4.8,3.3
	c1.2-1.6,2.1-3.4,2.5-5.3c0.4-1.7,0.3-4.1,1.7-5.4c0.5-0.5,1.1-0.9,1.7-1.4c0.6-0.3,1.4-0.6,2-0.8c1.8-0.4,3.8,0.8,5.5,1.3
	c1.9,0.5,3.9,0.7,5.8,0.4c0.3-1.9,0.1-3.9-0.4-5.8c-0.4-1.7-1.7-3.7-1.3-5.5c0.2-0.7,0.4-1.4,0.8-2c0.4-0.6,0.8-1.2,1.4-1.7
	c1.4-1.3,3.7-1.2,5.4-1.7c1.9-0.4,3.7-1.4,5.3-2.5c-0.7-1.8-1.9-3.5-3.3-4.8c-1.3-1.3-3.3-2.3-3.9-4.1c-0.4-1.5-0.4-2.9,0-4.3
	c0.5-1.8,2.6-2.8,3.9-4.1c1.4-1.4,2.5-3.1,3.3-4.8c-1.6-1.3-3.4-2.1-5.3-2.5c-1.7-0.4-4.1-0.3-5.4-1.7c-0.5-0.5-0.9-1.1-1.4-1.7
	c-0.3-0.6-0.6-1.4-0.8-2c-0.4-1.8,0.8-3.8,1.3-5.5c0.5-1.9,0.7-3.9,0.4-5.8c-1.9-0.3-3.9-0.1-5.8,0.4c-1.7,0.4-3.7,1.7-5.5,1.3
	c-1.5-0.3-2.7-1.2-3.8-2.2c-1.3-1.4-1.2-3.7-1.7-5.4c-0.4-1.9-1.4-3.7-2.5-5.3c-1.8,0.7-3.5,1.9-4.8,3.3c-1.3,1.3-2.3,3.4-4.1,3.9
	c-1.5,0.4-2.9,0.4-4.3,0c-1.8-0.5-2.8-2.6-4.1-3.9c-1.4-1.4-2.9-2.5-4.8-3.3c-1.3,1.6-2.1,3.4-2.5,5.3c-0.4,1.7-0.3,4-1.7,5.4
	c-0.5,0.5-1.1,0.9-1.7,1.4c-0.6,0.3-1.4,0.6-2,0.8c-1.8,0.4-3.8-0.8-5.5-1.3c-1.9-0.5-3.9-0.7-5.8-0.4c-0.3,1.9-0.1,3.9,0.4,5.8
	c0.4,1.7,1.7,3.7,1.3,5.5c-0.2,0.7-0.4,1.4-0.8,2c-0.4,0.6-0.8,1.3-1.4,1.7c-1.4,1.3-3.7,1.2-5.4,1.7c-1.9,0.4-3.7,1.4-5.3,2.5
	c0.7,1.8,1.9,3.5,3.3,4.8c1.3,1.3,3.4,2.3,3.9,4.1C160,178.9,160.1,179.7,160.1,180.4L160.1,180.4z M150.4,192.2l-2.1-1.7
	c-0.9-2.7,2.1-5.9,3.5-7.9c0.4-0.7,0.9-1.5,1.4-2.1c-0.4-0.7-0.9-1.5-1.4-2.1c-1.4-2-4.4-5.3-3.5-7.9l2.1-1.7l-0.9-2.5
	c0.5-2.8,4.7-4.1,6.9-5.2c0.7-0.4,1.5-0.7,2.2-1.2c0-0.8-0.1-1.7-0.1-2.5c-0.1-2.4-1.2-6.7,0.9-8.6l2.6-0.4c0.1-0.8,0.3-1.8,0.4-2.6
	c1.9-2.2,6.2-1.2,8.6-0.9c0.8,0,1.7,0.1,2.5,0.1c0.4-0.7,0.7-1.5,1.2-2.2c1.1-2.2,2.3-6.4,5.2-6.9l2.5,0.9l1.7-2.1
	c2.7-0.9,5.9,2.1,7.9,3.5c0.7,0.4,1.4,0.9,2.1,1.4c0.7-0.4,1.5-0.9,2.1-1.4c2-1.4,5.3-4.4,7.9-3.5l1.7,2.1l2.5-0.9
	c2.8,0.5,4,4.7,5.2,6.9c0.4,0.7,0.7,1.5,1.2,2.2l2.5-0.1c2.4-0.1,6.7-1.2,8.6,0.9c0.1,0.8,0.3,1.8,0.4,2.6l2.6,0.4
	c2.1,1.9,1.2,6.2,0.9,8.6c-0.1,0.8-0.1,1.7-0.1,2.5c0.7,0.4,1.5,0.7,2.3,1.2c2.2,1.1,6.4,2.3,6.9,5.2l-0.9,2.5l2.1,1.7
	c0.9,2.7-2.1,5.9-3.5,7.9c-0.4,0.7-0.9,1.4-1.4,2.1c0.4,0.7,0.9,1.5,1.4,2.1c1.4,2,4.4,5.3,3.5,7.9l-2.1,1.7l0.9,2.5
	c-0.5,2.8-4.7,4-6.9,5.2c-0.7,0.4-1.5,0.7-2.3,1.2c0,0.8,0.1,1.7,0.1,2.5c0.1,2.4,1.2,6.7-0.9,8.6l-2.6,0.4
	c-0.1,0.8-0.3,1.8-0.4,2.6c-1.9,2.1-6.2,1.2-8.6,0.9c-0.8-0.1-1.7-0.1-2.5-0.1c-0.4,0.7-0.8,1.5-1.2,2.3c-1.1,2.2-2.3,6.4-5.2,6.9
	l-2.5-0.9l-1.7,2.1c-2.7,0.9-5.9-2.1-7.9-3.5l-2.1-1.4c-0.7,0.4-1.5,0.9-2.1,1.4c-2,1.4-5.3,4.4-7.9,3.5l-1.7-2.1l-2.5,0.9
	c-2.8-0.5-4.1-4.7-5.2-6.9c-0.4-0.7-0.7-1.5-1.2-2.3c-0.8,0-1.7,0.1-2.5,0.1c-2.4,0.1-6.7,1.2-8.6-0.9c-0.1-0.8-0.3-1.8-0.4-2.6
	l-2.6-0.4c-2.2-1.9-1.2-6.2-0.9-8.6c0-0.8,0.1-1.7,0.1-2.5c-0.7-0.4-1.5-0.8-2.2-1.2c-2.2-1.1-6.4-2.3-6.9-5.2L150.4,192.2z"/>
</svg>
