<?xml version="1.0" encoding="utf-8"?>
<!-- Generator: Adobe Illustrator 24.1.2, SVG Export Plug-In . SVG Version: 6.00 Build 0)  -->
<svg version="1.1" id="Layer_1" xmlns="http://www.w3.org/2000/svg" xmlns:xlink="http://www.w3.org/1999/xlink" x="0px" y="0px"
	 viewBox="0 0 358 293.1" style="enable-background:new 0 0 358 293.1;" xml:space="preserve">
<style type="text/css">
	.st0{fill:#3ECCB1;stroke:#3ECCB1;stroke-miterlimit:10;}
	.st1{fill:none;stroke:#3ECCB1;stroke-width:3;stroke-linecap:round;stroke-linejoin:round;}
	.st2{fill:#3ECCB1;}
</style>
<path class="st0" d="M278.5,102c3.8,0,6.9,3.1,6.9,6.9c0,3.8-3.1,6.8-6.9,6.8c-3.8,0-6.9-3.1-6.9-6.9
	C271.7,105.1,274.8,102,278.5,102L278.5,102L278.5,102 M278.5,100c-4.9,0-8.9,4-8.9,8.9c0,4.9,4,8.8,8.9,8.8c4.9,0,8.9-4,8.9-8.9
	C287.4,104,283.4,100,278.5,100L278.5,100z"/>
<path class="st0" d="M278.5,79.8c1.6,0,3.9,3.6,3.9,9.1c0,1-0.1,2-0.2,3c-0.4,1.7-1.9,2.9-3.6,2.8h-0.1c-1.7,0.1-3.3-1.1-3.6-2.8
	c-0.2-1-0.2-2-0.2-3C274.6,83.4,277,79.8,278.5,79.8 M278.5,77.8c-3.3,0-5.9,5-5.9,11.1c0,1.1,0.1,2.2,0.3,3.3
	c0.5,2.7,2.9,4.5,5.6,4.4h0.1c2.7,0.1,5.1-1.8,5.6-4.4c0.2-1.1,0.3-2.2,0.3-3.3C284.4,82.8,281.8,77.8,278.5,77.8L278.5,77.8z"/>
<path class="st0" d="M278.6,121.1v2c1.7-0.1,3.2,1.1,3.6,2.8c0.2,1,0.2,2,0.2,3c0,5.6-2.3,9.1-3.9,9.1s-3.9-3.6-3.9-9.1
	c0-1,0.1-2,0.2-2.9c0.4-1.7,1.9-2.8,3.6-2.8h0.1L278.6,121.1 M278.5,121.1c-2.7-0.1-5.1,1.8-5.6,4.4c-0.2,1.1-0.3,2.2-0.3,3.3
	c0,6.1,2.6,11.1,5.9,11.1s5.9-5,5.9-11.1c0-1.1-0.1-2.2-0.3-3.3c-0.5-2.7-2.9-4.5-5.6-4.4H278.5z"/>
<path class="st0" d="M258.6,105c1,0,2,0.1,3,0.2c1.7,0.4,2.9,1.9,2.8,3.6h2l-2,0.1c0.1,1.7-1.1,3.3-2.8,3.6c-1,0.2-2,0.2-3,0.2
	c-5.6,0-9.1-2.3-9.1-3.9C249.5,107.3,253,105,258.6,105 M258.6,103c-6.1,0-11.1,2.7-11.1,5.9s5,5.9,11.1,5.9c1.1,0,2.2-0.1,3.3-0.3
	c2.7-0.5,4.5-2.9,4.5-5.6v-0.1c0.1-2.7-1.8-5.1-4.5-5.6C260.8,103.1,259.7,103,258.6,103z"/>
<path class="st0" d="M298.5,105c5.6,0,9.1,2.3,9.1,3.9c0,1.6-3.5,3.9-9.1,3.9c-1,0-2-0.1-3-0.2c-1.7-0.4-2.9-1.9-2.8-3.6h-2l2-0.1
	c-0.1-1.7,1.1-3.3,2.8-3.6C296.5,105.1,297.5,105,298.5,105 M298.5,103c-1.1,0-2.2,0.1-3.3,0.3c-2.7,0.5-4.5,2.9-4.5,5.6v0.1
	c-0.1,2.7,1.8,5.1,4.5,5.6c1.1,0.2,2.2,0.3,3.3,0.3c6.1,0,11.1-2.6,11.1-5.9C309.6,105.6,304.6,103,298.5,103z"/>
<path class="st0" d="M259.4,87.9c2.2,0,5.2,1.6,7.8,4.1c0.7,0.7,1.4,1.5,1.9,2.3c1,1.3,0.8,3.2-0.4,4.3l-0.4,0.4
	c-0.6,0.6-1.5,1-2.4,1c-0.7,0-1.4-0.2-1.9-0.6c-0.8-0.6-1.6-1.2-2.3-1.9c-3.9-3.9-4.8-8.1-3.7-9.2C258.4,88,258.9,87.8,259.4,87.9
	 M259.4,85.8c-1,0-2.1,0.3-2.9,1c-2.3,2.3-0.6,7.7,3.7,12c0.8,0.8,1.6,1.5,2.5,2.1c0.9,0.6,2,1,3.1,1c1.5,0,2.9-0.6,3.9-1.6l0.4-0.4
	c1.9-1.8,2.2-4.8,0.7-6.9c-0.6-0.9-1.4-1.7-2.1-2.5C265.6,87.5,262.1,85.8,259.4,85.8L259.4,85.8z"/>
<path class="st0" d="M291.2,117.7c0.7,0,1.4,0.2,1.9,0.6c0.8,0.6,1.6,1.2,2.3,1.9c3.9,3.9,4.8,8.1,3.7,9.2c-0.4,0.3-0.9,0.5-1.5,0.5
	c-2.2,0-5.2-1.6-7.7-4.1c-0.7-0.7-1.4-1.5-1.9-2.3c-1-1.3-0.8-3.2,0.4-4.3l0.4-0.4C289.5,118.1,290.3,117.7,291.2,117.7
	 M291.2,115.7c-1.5,0-2.9,0.6-3.9,1.6l-0.4,0.4c-1.9,1.8-2.2,4.8-0.7,6.9c0.6,0.9,1.4,1.7,2.1,2.5c3,3,6.5,4.7,9.2,4.7
	c1.1,0.1,2.1-0.3,2.9-1.1c2.3-2.3,0.7-7.7-3.7-12c-0.8-0.8-1.6-1.5-2.5-2.1C293.4,116.1,292.3,115.7,291.2,115.7L291.2,115.7z"/>
<path class="st0" d="M265.8,117.7c0.9,0,1.8,0.4,2.4,1c0.1,0.1,0.3,0.3,0.4,0.4c1.2,1.1,1.4,3,0.4,4.3c-0.6,0.8-1.2,1.6-1.9,2.3
	c-2.5,2.5-5.5,4.1-7.8,4.1c-0.5,0-1-0.1-1.4-0.4c-1.1-1.1-0.3-5.3,3.7-9.2c0.7-0.7,1.5-1.3,2.3-1.9
	C264.5,117.9,265.2,117.7,265.8,117.7 M265.9,115.7c-1.1,0-2.2,0.4-3.1,1c-0.9,0.6-1.7,1.4-2.5,2.1c-4.3,4.3-6,9.7-3.7,12
	c0.8,0.7,1.8,1.1,2.9,1c2.6,0,6.2-1.7,9.2-4.7c0.8-0.8,1.5-1.6,2.1-2.5c1.6-2.2,1.3-5.2-0.7-7l-0.4-0.4c-1-1-2.4-1.6-3.9-1.6
	L265.9,115.7z"/>
<path class="st0" d="M297.6,87.9c0.5,0,1.1,0.1,1.5,0.5c0.5,0.6,0.6,1.8,0.1,3.3c-0.8,2.3-2.1,4.3-3.8,6c-0.7,0.7-1.5,1.4-2.3,1.9
	c-0.6,0.4-1.2,0.6-1.9,0.6c-0.9,0-1.8-0.4-2.4-1l-0.4-0.4c-1.2-1.1-1.4-3-0.4-4.3c0.6-0.8,1.2-1.6,1.9-2.3
	C292.4,89.6,295.5,87.9,297.6,87.9 M297.6,85.9c-2.6,0-6.1,1.7-9.2,4.7c-0.8,0.8-1.5,1.6-2.1,2.5c-1.5,2.2-1.2,5.1,0.7,6.9l0.4,0.4
	c1,1,2.4,1.6,3.9,1.6c1.1,0,2.2-0.4,3.1-1c0.9-0.6,1.7-1.4,2.5-2.1c4.3-4.3,6-9.7,3.7-12C299.7,86.3,298.7,85.9,297.6,85.9
	L297.6,85.9z"/>
<path class="st1" d="M317,108.9c0-21.2-17.2-38.5-38.5-38.5s-38.5,17.2-38.5,38.5v52.8"/>
<path class="st0" d="M278.5,189.7c3.8,0,6.9,3.1,6.9,6.9c0,3.8-3.1,6.9-6.9,6.9c-3.8,0-6.9-3.1-6.9-6.8l0,0
	C271.7,192.8,274.8,189.7,278.5,189.7 M278.5,187.7c-4.9,0-8.9,4-8.9,8.9c0,4.9,4,8.9,8.9,8.9c4.9,0,8.9-4,8.9-8.8l0,0
	C287.4,191.7,283.4,187.7,278.5,187.7C278.5,187.7,278.5,187.7,278.5,187.7L278.5,187.7z"/>
<path class="st0" d="M278.5,167.5c1.6,0,3.9,3.6,3.9,9.1c0,1-0.1,2-0.2,3c-0.4,1.7-1.9,2.8-3.6,2.7h-0.1c-1.7,0.1-3.3-1.1-3.6-2.8
	c-0.2-1-0.2-2-0.2-3C274.6,171,277,167.5,278.5,167.5 M278.5,165.5c-3.3,0-5.9,5-5.9,11.1c0,1.1,0.1,2.2,0.3,3.3
	c0.5,2.6,2.9,4.5,5.6,4.4h0.1c2.7,0.1,5.1-1.8,5.6-4.4c0.2-1.1,0.3-2.2,0.3-3.3C284.4,170.4,281.8,165.5,278.5,165.5L278.5,165.5z"
	/>
<path class="st0" d="M278.6,208.8v2c1.7-0.1,3.2,1.1,3.6,2.8c0.2,1,0.2,2,0.2,3c0,5.6-2.3,9.1-3.9,9.1s-3.9-3.6-3.9-9.1
	c0-1,0.1-2,0.2-3c0.4-1.7,1.9-2.9,3.6-2.8h0.1L278.6,208.8 M278.6,208.8h-0.1c-2.7-0.1-5.1,1.8-5.6,4.4c-0.2,1.1-0.3,2.2-0.3,3.3
	c0,6.1,2.6,11.1,5.9,11.1s5.9-5,5.9-11.1c0-1.1-0.1-2.2-0.3-3.3C283.7,210.6,281.3,208.7,278.6,208.8L278.6,208.8z"/>
<path class="st0" d="M258.6,192.7c1,0,2,0.1,3,0.2c1.7,0.4,2.9,1.9,2.8,3.6h2l-2,0.1c0.1,1.7-1.1,3.3-2.8,3.6c-1,0.2-2,0.2-3,0.2
	c-5.6,0-9.1-2.3-9.1-3.9S253,192.7,258.6,192.7 M258.6,190.7c-6.1,0-11.1,2.6-11.1,5.9s5,5.9,11.1,5.9c1.1,0,2.2-0.1,3.3-0.3
	c2.7-0.5,4.5-2.9,4.5-5.6v-0.1c0.1-2.7-1.8-5.1-4.5-5.6C260.8,190.7,259.7,190.7,258.6,190.7L258.6,190.7z"/>
<path class="st0" d="M298.5,192.7c5.6,0,9.1,2.3,9.1,3.9s-3.5,3.9-9.1,3.9c-1,0-2-0.1-3-0.2c-1.7-0.4-2.9-1.9-2.8-3.6h-2l2-0.1
	c-0.1-1.7,1.1-3.3,2.8-3.6C296.5,192.7,297.5,192.7,298.5,192.7 M298.5,190.7c-1.1,0-2.2,0.1-3.3,0.3c-2.7,0.5-4.5,2.9-4.5,5.6v0.1
	c-0.1,2.7,1.8,5.1,4.5,5.6c1.1,0.2,2.2,0.3,3.3,0.3c6.1,0,11.1-2.6,11.1-5.9S304.6,190.7,298.5,190.7z"/>
<path class="st0" d="M259.4,175.6c2.2,0,5.2,1.6,7.8,4.1c0.7,0.7,1.3,1.5,1.9,2.3c1,1.3,0.8,3.2-0.4,4.3l-0.4,0.4
	c-0.6,0.6-1.5,1-2.4,1c-0.7,0-1.4-0.2-1.9-0.6c-0.8-0.6-1.6-1.2-2.3-1.9c-3.9-3.9-4.8-8.1-3.7-9.2
	C258.4,175.7,258.9,175.5,259.4,175.6 M259.4,173.5c-1.1-0.1-2.1,0.3-2.9,1c-2.3,2.3-0.6,7.7,3.7,12c0.8,0.8,1.6,1.5,2.5,2.1
	c2.2,1.5,5.1,1.3,6.9-0.6l0.4-0.4c1.9-1.8,2.2-4.8,0.7-6.9c-0.6-0.9-1.4-1.7-2.1-2.5C265.6,175.2,262.1,173.5,259.4,173.5
	L259.4,173.5z"/>
<path class="st0" d="M291.2,205.4c0.7,0,1.3,0.2,1.9,0.6c0.8,0.6,1.6,1.2,2.3,1.9c3.9,3.9,4.8,8.1,3.7,9.2c-0.4,0.3-0.9,0.5-1.5,0.4
	c-2.2,0-5.2-1.6-7.7-4.1c-0.7-0.7-1.4-1.5-1.9-2.3c-1-1.3-0.8-3.2,0.4-4.3l0.4-0.4C289.5,205.8,290.3,205.4,291.2,205.4
	 M291.2,203.4c-1.5,0-2.9,0.6-3.9,1.6l-0.4,0.3c-1.9,1.8-2.2,4.8-0.7,6.9c0.6,0.9,1.4,1.7,2.1,2.5c3,3,6.5,4.7,9.2,4.7
	c1.1,0.1,2.1-0.3,2.9-1c2.3-2.3,0.7-7.7-3.7-12c-0.8-0.8-1.6-1.5-2.5-2.1C293.4,203.8,292.3,203.5,291.2,203.4L291.2,203.4z"/>
<path class="st0" d="M265.8,205.4c0.9,0,1.8,0.4,2.4,1c0.1,0.1,0.3,0.3,0.4,0.4c1.2,1.1,1.4,3,0.4,4.3c-0.6,0.8-1.2,1.6-1.9,2.3
	c-2.5,2.5-5.5,4.1-7.8,4.1c-0.5,0-1-0.1-1.5-0.4c-1.1-1.1-0.3-5.3,3.7-9.2c0.7-0.7,1.5-1.3,2.3-1.9
	C264.5,205.6,265.2,205.4,265.8,205.4 M265.8,203.4c-1.1,0-2.2,0.4-3.1,1c-0.9,0.6-1.7,1.4-2.5,2.1c-4.3,4.3-6,9.7-3.7,12
	c0.8,0.7,1.8,1.1,2.9,1c2.6,0,6.2-1.7,9.2-4.7c0.8-0.8,1.5-1.6,2.1-2.5c1.5-2.2,1.2-5.1-0.7-6.9l-0.4-0.4
	C268.7,203.9,267.3,203.3,265.8,203.4L265.8,203.4z"/>
<path class="st0" d="M297.6,175.6c0.5,0,1.1,0.1,1.5,0.5c0.5,0.6,0.6,1.8,0.1,3.3c-0.8,2.3-2.1,4.3-3.8,6c-0.7,0.7-1.5,1.4-2.3,1.9
	c-0.6,0.4-1.2,0.6-1.9,0.6c-0.9,0-1.8-0.4-2.4-1l-0.4-0.4c-1.2-1.1-1.4-3-0.4-4.3c0.6-0.8,1.2-1.6,1.9-2.3
	C292.4,177.2,295.5,175.6,297.6,175.6 M297.6,173.6c-2.6,0-6.1,1.7-9.2,4.7c-0.8,0.8-1.5,1.6-2.1,2.5c-1.5,2.2-1.2,5.1,0.7,6.9
	l0.4,0.4c1.8,1.9,4.8,2.2,7,0.6c0.9-0.6,1.7-1.4,2.5-2.1c4.3-4.3,6-9.7,3.7-12C299.7,174,298.7,173.6,297.6,173.6L297.6,173.6z"/>
<path class="st1" d="M317,196.6c0-21.2-17.2-38.5-38.5-38.5s-38.5,17.2-38.5,38.5v52.8"/>
<path class="st0" d="M79.5,78c1.6,0,3.9,3.6,3.9,9.1c0,1-0.1,2-0.2,3c-0.4,1.7-1.9,2.9-3.6,2.8h-0.1c-1.7,0.1-3.2-1.1-3.6-2.8
	c-0.2-1-0.2-2-0.2-3C75.6,81.6,77.9,78,79.5,78 M79.5,76c-3.3,0-5.9,5-5.9,11.1c0,1.1,0.1,2.2,0.3,3.3c0.5,2.7,2.9,4.5,5.6,4.4h0.1
	c2.7,0.1,5.1-1.8,5.6-4.4c0.2-1.1,0.3-2.2,0.3-3.3C85.4,81,82.7,76,79.5,76z"/>
<path class="st0" d="M79.5,119.3v2c1.7-0.1,3.2,1.1,3.6,2.8c0.2,1,0.2,2,0.2,3c0,5.6-2.3,9.1-3.9,9.1s-3.9-3.6-3.9-9.1
	c0-1,0.1-2,0.2-3c0.4-1.7,1.9-2.8,3.6-2.8h0.1L79.5,119.3 M79.5,119.3h-0.1c-2.7-0.1-5.1,1.8-5.6,4.4c-0.2,1.1-0.3,2.2-0.3,3.3
	c0,6.1,2.6,11.1,5.9,11.1s5.9-5,5.9-11.1c0-1.1-0.1-2.2-0.3-3.3C84.6,121.1,82.2,119.3,79.5,119.3L79.5,119.3z"/>
<path class="st0" d="M99.4,103.2c5.6,0,9.1,2.3,9.1,3.9c0,1.6-3.6,3.9-9.1,3.9c-1,0-2-0.1-3-0.2c-1.7-0.4-2.9-1.9-2.8-3.6v-0.1
	c-0.1-1.7,1.1-3.3,2.8-3.6C97.4,103.3,98.4,103.2,99.4,103.2 M99.4,101.2c-1.1,0-2.2,0.1-3.3,0.3c-2.7,0.5-4.5,2.9-4.4,5.6v0.1
	c-0.1,2.7,1.8,5.1,4.4,5.6c1.1,0.2,2.2,0.3,3.3,0.3c6.1,0,11.1-2.6,11.1-5.9S105.5,101.2,99.4,101.2z"/>
<path class="st0" d="M59.5,103.2c1,0,2,0.1,3,0.2c1.7,0.4,2.9,1.9,2.8,3.6h2l-2,0.1c0.1,1.7-1.1,3.3-2.8,3.6c-1,0.2-2,0.2-3,0.2
	c-5.6,0-9.1-2.3-9.1-3.9C50.4,105.5,53.9,103.2,59.5,103.2 M59.5,101.2c-6.1,0-11.1,2.6-11.1,5.9c0,3.3,5,5.9,11.1,5.9
	c1.1,0,2.2-0.1,3.3-0.3c2.7-0.5,4.6-2.9,4.4-5.6v-0.1c0.1-2.7-1.8-5.1-4.5-5.6C61.7,101.3,60.6,101.2,59.5,101.2z"/>
<path class="st0" d="M98.6,86.1L98.6,86.1c0.5,0,1,0.1,1.4,0.5c1.1,1.1,0.3,5.3-3.7,9.2c-0.7,0.7-1.5,1.4-2.3,1.9
	c-0.6,0.4-1.2,0.6-1.9,0.6c-0.9,0-1.8-0.4-2.4-1c-0.1-0.2-0.3-0.3-0.4-0.4c-1.2-1.1-1.4-3-0.4-4.3c0.6-0.8,1.2-1.6,1.9-2.3
	C93.3,87.7,96.4,86.1,98.6,86.1 M98.6,84.1c-2.6,0-6.2,1.7-9.2,4.7c-0.8,0.8-1.5,1.6-2.1,2.5c-1.6,2.2-1.3,5.2,0.7,7l0.4,0.4
	c1.8,1.9,4.8,2.2,6.9,0.7c0.9-0.6,1.7-1.4,2.5-2.1c4.3-4.3,6-9.7,3.7-12c-0.8-0.7-1.8-1.1-2.9-1L98.6,84.1z"/>
<path class="st0" d="M66.8,115.9L66.8,115.9c0.9,0,1.8,0.4,2.4,1l0.4,0.4c1.2,1.1,1.4,3,0.4,4.3c-0.6,0.8-1.2,1.6-1.9,2.3
	c-2.5,2.5-5.5,4.1-7.7,4.1c-0.5,0-1.1-0.1-1.5-0.5c-1.1-1.1-0.3-5.3,3.7-9.2c0.7-0.7,1.5-1.3,2.3-1.9
	C65.4,116.1,66.1,115.9,66.8,115.9 M66.8,113.9c-1.1,0-2.2,0.4-3.1,1c-0.9,0.6-1.7,1.4-2.5,2.1c-4.3,4.3-6,9.7-3.7,12
	c0.8,0.7,1.8,1.1,2.9,1c2.6,0,6.2-1.7,9.2-4.7c0.8-0.8,1.5-1.6,2.1-2.5c1.5-2.2,1.2-5.1-0.7-6.9l-0.4-0.4
	C69.6,114.4,68.2,113.9,66.8,113.9L66.8,113.9z"/>
<path class="st0" d="M92.2,115.9L92.2,115.9c0.7,0,1.4,0.2,1.9,0.6c0.8,0.6,1.6,1.2,2.3,1.9c3.9,3.9,4.8,8.1,3.7,9.2
	c-0.4,0.3-0.9,0.5-1.4,0.5c-2.2,0-5.2-1.6-7.8-4.1c-0.7-0.7-1.4-1.5-1.9-2.3c-0.9-1.3-0.8-3.2,0.4-4.3l0.4-0.4
	C90.4,116.3,91.3,116,92.2,115.9 M92.2,114c-1.5,0-2.9,0.6-3.9,1.6l-0.4,0.4c-1.9,1.8-2.2,4.8-0.7,6.9c0.6,0.9,1.4,1.7,2.1,2.5
	c3,3,6.5,4.7,9.2,4.7c1.1,0.1,2.1-0.3,2.9-1c2.3-2.3,0.7-7.7-3.7-12c-0.8-0.8-1.6-1.5-2.5-2.1C94.3,114.4,93.3,114,92.2,114
	L92.2,114z"/>
<path class="st0" d="M60.4,86.1L60.4,86.1c2.2,0,5.2,1.6,7.7,4.1c0.7,0.7,1.3,1.5,1.9,2.3c1,1.3,0.8,3.2-0.4,4.3l-0.4,0.4
	c-0.6,0.6-1.5,1-2.4,1c-0.7,0-1.4-0.2-1.9-0.6c-0.8-0.6-1.6-1.2-2.3-1.9c-1.7-1.7-3-3.7-3.8-6c-0.5-1.5-0.4-2.7,0.2-3.3
	C59.3,86.2,59.8,86,60.4,86.1 M60.3,84c-1.1-0.1-2.1,0.3-2.9,1c-2.3,2.3-0.7,7.7,3.7,12c0.8,0.8,1.6,1.6,2.5,2.2c0.9,0.6,2,1,3.1,1
	c1.5,0,2.9-0.6,3.9-1.6l0.4-0.4c1.9-1.8,2.2-4.8,0.7-7c-0.6-0.9-1.4-1.7-2.1-2.5C66.5,85.7,63,84,60.3,84L60.3,84z"/>
<path class="st1" d="M41,107.1c0-21.2,17.2-38.5,38.5-38.5s38.5,17.2,38.5,38.5v52.8"/>
<path class="st0" d="M79.5,100.3c3.8,0,6.8,3.1,6.8,6.8c0,3.8-3.1,6.9-6.8,6.9s-6.8-3.1-6.8-6.9l0,0
	C72.6,103.3,75.7,100.3,79.5,100.3L79.5,100.3 M79.5,98.3c-4.9,0-8.9,4-8.9,8.8c0,4.9,4,8.9,8.9,8.9c4.9,0,8.8-4,8.8-8.9l0,0
	C88.3,102.2,84.3,98.3,79.5,98.3z"/>
<path class="st0" d="M79.5,165.7c1.6,0,3.9,3.6,3.9,9.1c0,1-0.1,2-0.2,3c-0.4,1.7-1.9,2.9-3.6,2.8h-0.1c-1.7,0.1-3.2-1.1-3.6-2.8
	c-0.2-1-0.2-2-0.2-3C75.6,169.3,77.9,165.7,79.5,165.7 M79.5,163.7c-3.3,0-5.9,5-5.9,11.1c0,1.1,0.1,2.2,0.3,3.3
	c0.5,2.7,2.9,4.5,5.6,4.4h0.1c2.7,0.1,5.1-1.8,5.6-4.4c0.2-1.1,0.3-2.2,0.3-3.3C85.4,168.7,82.7,163.7,79.5,163.7z"/>
<path class="st0" d="M79.5,207v2c1.7-0.1,3.2,1.1,3.6,2.8c0.2,1,0.2,2,0.2,3c0,5.6-2.3,9.1-3.9,9.1s-3.9-3.6-3.9-9.1
	c0-1,0.1-2,0.2-3c0.4-1.7,1.9-2.9,3.7-2.8h0.1L79.5,207 M79.5,207h-0.1c-2.7-0.1-5.1,1.8-5.6,4.4c-0.2,1.1-0.3,2.2-0.3,3.3
	c0,6.1,2.6,11.1,5.9,11.1s5.9-5,5.9-11.1c0-1.1-0.1-2.2-0.3-3.3C84.6,208.8,82.2,207,79.5,207L79.5,207z"/>
<path class="st0" d="M99.4,190.9c5.6,0,9.1,2.3,9.1,3.9s-3.6,3.9-9.1,3.9c-1,0-2-0.1-3-0.2c-1.7-0.4-2.9-1.9-2.8-3.6v-0.1
	c-0.1-1.7,1.1-3.3,2.8-3.6C97.4,191,98.4,190.9,99.4,190.9 M99.4,188.9c-1.1,0-2.2,0.1-3.3,0.3c-2.7,0.5-4.5,2.9-4.4,5.6v0.1
	c-0.1,2.7,1.8,5.1,4.4,5.6c1.1,0.2,2.2,0.3,3.3,0.3c6.1,0,11.1-2.6,11.1-5.9S105.5,188.9,99.4,188.9L99.4,188.9z"/>
<path class="st0" d="M59.5,190.9c1,0,2,0.1,3,0.2c1.7,0.4,2.9,1.9,2.8,3.6h2l-2,0.1c0.1,1.7-1.1,3.2-2.8,3.6c-1,0.2-2,0.2-3,0.2
	c-5.6,0-9.1-2.3-9.1-3.9S53.9,190.9,59.5,190.9 M59.5,188.9c-6.1,0-11.1,2.6-11.1,5.9s5,5.9,11.1,5.9c1.1,0,2.2-0.1,3.3-0.3
	c2.7-0.5,4.5-2.9,4.5-5.6v-0.1c0.1-2.7-1.8-5.1-4.5-5.6C61.7,188.9,60.6,188.9,59.5,188.9L59.5,188.9z"/>
<path class="st0" d="M98.6,173.8L98.6,173.8c0.5,0,1,0.1,1.4,0.5c0.6,0.6,0.6,1.8,0.2,3.3c-0.8,2.3-2.1,4.3-3.8,6
	c-0.7,0.7-1.5,1.3-2.3,1.9c-0.6,0.4-1.2,0.6-1.9,0.6c-0.9,0-1.8-0.4-2.4-1c-0.1-0.1-0.3-0.3-0.4-0.4c-1.2-1.1-1.4-3-0.4-4.3
	c0.6-0.8,1.2-1.6,1.9-2.3C93.3,175.4,96.4,173.8,98.6,173.8 M98.6,171.8c-2.6,0-6.2,1.7-9.2,4.7c-0.8,0.8-1.5,1.6-2.1,2.5
	c-1.5,2.2-1.2,5.1,0.7,6.9l0.4,0.4c1,1.1,2.4,1.6,3.9,1.6c1.1,0,2.2-0.4,3.1-1c0.9-0.6,1.7-1.4,2.5-2.1c4.3-4.3,6-9.7,3.7-12
	C100.6,172.1,99.6,171.8,98.6,171.8L98.6,171.8z"/>
<path class="st0" d="M66.8,203.6L66.8,203.6c0.9,0,1.8,0.4,2.4,1l0.4,0.4c1.2,1.2,1.4,3,0.4,4.4c-0.6,0.8-1.2,1.6-1.9,2.3
	c-2.5,2.5-5.5,4.1-7.7,4.1c-0.5,0-1.1-0.1-1.5-0.5c-1.1-1.1-0.3-5.3,3.7-9.2c0.7-0.7,1.5-1.3,2.3-1.9
	C65.4,203.8,66,203.6,66.8,203.6 M66.7,201.6c-1.1,0-2.2,0.4-3.1,1c-0.9,0.6-1.7,1.4-2.5,2.1c-4.3,4.3-6,9.7-3.7,12
	c0.8,0.7,1.8,1.1,2.9,1.1c2.6,0,6.2-1.7,9.2-4.7c0.8-0.8,1.5-1.6,2.1-2.5c1.5-2.2,1.2-5.1-0.7-6.9l-0.4-0.4
	C69.6,202.2,68.2,201.6,66.7,201.6L66.7,201.6z"/>
<path class="st0" d="M92.2,203.6L92.2,203.6c0.7,0,1.4,0.2,1.9,0.6c0.8,0.6,1.6,1.2,2.3,1.9c3.9,3.9,4.8,8.1,3.7,9.2
	c-0.4,0.3-0.9,0.5-1.4,0.5c-2.2,0-5.2-1.6-7.8-4.1c-0.7-0.7-1.4-1.5-1.9-2.3c-1-1.3-0.8-3.2,0.4-4.3l0.4-0.4
	C90.4,204,91.3,203.6,92.2,203.6 M92.2,201.7c-1.5,0-2.9,0.6-3.9,1.6l-0.4,0.4c-1.9,1.8-2.2,4.8-0.7,7c0.6,0.9,1.4,1.7,2.1,2.5
	c3,3,6.5,4.7,9.2,4.7c1.1,0.1,2.1-0.3,2.9-1c2.3-2.3,0.7-7.7-3.7-12c-0.8-0.8-1.6-1.5-2.5-2.1c-0.9-0.6-2-1-3.1-1L92.2,201.7z"/>
<path class="st0" d="M60.4,173.8L60.4,173.8c2.2,0,5.2,1.6,7.7,4.1c0.7,0.7,1.3,1.5,1.9,2.3c1,1.3,0.8,3.2-0.4,4.3l-0.4,0.4
	c-0.6,0.6-1.5,1-2.4,1c-0.7,0-1.4-0.2-1.9-0.6c-0.8-0.6-1.6-1.2-2.3-1.9c-1.7-1.7-3-3.7-3.8-6c-0.5-1.5-0.4-2.7,0.2-3.3
	C59.3,173.8,59.8,173.7,60.4,173.8 M60.3,171.7c-1.1-0.1-2.1,0.3-2.9,1c-2.3,2.3-0.7,7.7,3.7,12c0.8,0.8,1.6,1.5,2.5,2.1
	c0.9,0.6,2,1,3.1,1c1.5,0,2.9-0.5,3.9-1.5L71,186c1.9-1.8,2.2-4.8,0.7-6.9c-0.6-0.9-1.4-1.7-2.1-2.5C66.5,173.5,63,171.8,60.3,171.7
	L60.3,171.7z"/>
<path class="st1" d="M41,194.8c0-21.2,17.2-38.5,38.5-38.5s38.5,17.2,38.5,38.5l0,0v52.8"/>
<path class="st0" d="M79.5,188c3.8,0,6.8,3.1,6.8,6.9c0,3.8-3.1,6.8-6.8,6.8s-6.8-3.1-6.8-6.8C72.6,191,75.7,188,79.5,188
	C79.5,188,79.5,188,79.5,188L79.5,188 M79.5,186c-4.9,0-8.9,4-8.9,8.9c0,4.9,4,8.8,8.9,8.8c4.9,0,8.8-4,8.8-8.8S84.3,186,79.5,186
	L79.5,186z"/>
<path class="st0" d="M139,70.7c2.2,0,4,1.8,4,4v168.7c0,2.2-1.8,4-4,4s-4-1.8-4-4V74.7C135,72.4,136.8,70.7,139,70.7 M139,68.7
	L139,68.7c-3.3,0-6,2.7-6,6v168.7c0,3.3,2.7,6,6,6l0,0l0,0c3.3,0,6-2.7,6-6l0,0V74.7C145,71.3,142.3,68.7,139,68.7z"/>
<path class="st0" d="M165.4,70.7c2.2,0,4,1.8,4,4v168.7c0,2.2-1.8,4-4,4s-4-1.8-4-4V74.7C161.4,72.4,163.2,70.7,165.4,70.7
	 M165.4,68.7L165.4,68.7c-3.3,0-6,2.7-6,6v168.7c0,3.3,2.7,6,6,6l0,0l0,0c3.3,0,6-2.7,6-6l0,0V74.7
	C171.4,71.3,168.7,68.7,165.4,68.7z"/>
<path class="st0" d="M191.8,70.7c2.2,0,4,1.8,4,4v168.7c0,2.2-1.8,4-4,4s-4-1.8-4-4V74.7C187.8,72.4,189.6,70.7,191.8,70.7
	 M191.8,68.7L191.8,68.7c-3.3,0-6,2.7-6,6v168.7c0,3.3,2.7,6,6,6l0,0l0,0c3.3,0,6-2.7,6-6l0,0V74.7
	C197.8,71.3,195.1,68.7,191.8,68.7z"/>
<path class="st0" d="M218.2,70.7c2.2,0,4,1.8,4,4v168.7c0,2.2-1.8,4-4,4s-4-1.8-4-4V74.7C214.2,72.4,216,70.7,218.2,70.7
	 M218.2,68.7L218.2,68.7c-3.3,0-6,2.7-6,6v168.7c0,3.3,2.7,6,6,6l0,0l0,0c3.3,0,6-2.7,6-6l0,0V74.7
	C224.2,71.3,221.5,68.7,218.2,68.7z"/>
<path class="st1" d="M197,292.1H90.7c-6.6,0-12-5.4-12-12l0,0c0-6.6,5.4-12,12-12h175c6.6,0,12,5.4,12,12l0,0"/>
<g>
	<path class="st2" d="M333,3c12.1,0,22,9.9,22,22c0,12.1-9.9,22-22,22H25C12.9,47,3,37.1,3,25C3,12.9,12.9,3,25,3H333 M333,0H25
		C11.3,0,0,11.3,0,25v0c0,13.7,11.3,25,25,25h308c13.7,0,25-11.3,25-25v0C358,11.3,346.8,0,333,0L333,0z"/>
</g>
</svg>
