<?xml version="1.0" encoding="utf-8"?>
<!-- Generator: Adobe Illustrator 24.1.2, SVG Export Plug-In . SVG Version: 6.00 Build 0)  -->
<svg version="1.1" id="Layer_1" xmlns="http://www.w3.org/2000/svg" xmlns:xlink="http://www.w3.org/1999/xlink" x="0px" y="0px"
	 viewBox="0 0 161.1 120.1" style="enable-background:new 0 0 161.1 120.1;" xml:space="preserve">
<style type="text/css">
	.st0{fill:#EDEDFF;}
</style>
<path class="st0" d="M60.6,9.7c0.8-0.7,1.8-1.2,2.7-1.8c0.9-0.6,1.5-1.2,2.4-1.6c0.8-0.5,1-1.5,0.5-2.2C66,4,66,3.9,65.9,3.8
	c-0.6-0.6-1.6-0.6-2.2,0c-0.1,0.1-0.2,0.2-0.3,0.3c-0.4,1-1,1.9-1.5,2.8S61,8.8,60.6,9.7C60.5,9.7,60.5,9.8,60.6,9.7z"/>
<path class="st0" d="M59.2,9.3C59.2,9.3,59.3,9.3,59.2,9.3c0.5-2,1.1-4,1.8-6c0.8-2.4-3.8-2.7-3.1,0C58.5,5.3,58.9,7.3,59.2,9.3z"/>
<path class="st0" d="M53.3,6.1c0.8,0.5,1.6,1.2,2.4,1.8s1.6,1.2,2.3,1.8c0,0,0.1,0,0.1-0.1c-0.5-0.9-0.8-1.8-1.2-2.7
	S56,5.2,55.6,4.3c-0.2-0.8-1.1-1.3-2-1.1c-0.8,0.2-1.3,1.1-1.1,2C52.7,5.5,52.9,5.9,53.3,6.1z"/>
<path class="st0" d="M51.1,11.2c2.1-0.2,4.2-0.3,6.3-0.3v-0.1C55.6,10,53.7,9.1,52,8.2C49.5,6.8,48.7,11.4,51.1,11.2z"/>
<path class="st0" d="M54.6,12.9c-1,0.3-2,0.6-3,0.8c-2.5,0.4-0.4,4.7,1.5,2.7c0.7-0.7,1.5-1.4,2.3-2.1s1.5-1.4,2.3-2.1v-0.1
	C56.6,12.4,55.6,12.6,54.6,12.9z"/>
<path class="st0" d="M57.9,18.9c0.1-2,0.4-4,0.8-5.9 M58.6,13c-1.1,1.7-2.2,3.3-3.5,4.8c-1.9,2.3,2.5,4,2.7,1.1L58.6,13z"/>
<path class="st0" d="M63.4,18.2C62.1,16.6,61,14.8,60,13h-0.1c0.3,2,0.4,4,0.5,6C60.4,21.9,64.8,20.3,63.4,18.2z"/>
<path class="st0" d="M66.8,14c-1-0.2-2-0.6-2.9-0.9s-2-0.6-2.9-0.9c0,0-0.1,0,0,0.1c0.8,0.7,1.4,1.5,2.2,2.2s1.5,1.4,2.2,2.2
	C67,18.6,69.5,14.6,66.8,14z"/>
<path class="st0" d="M66.7,8.5c-1.8,0.9-3.6,1.6-5.5,2.3v0.1c2,0.1,3.9,0.3,5.9,0.6C70,11.9,69.3,7.3,66.7,8.5z"/>
<path class="st0" d="M111.1,1.5c-0.8,0.8-0.8,2.2,0,3c0.9,1.1,1.6,0.2,2.6,0.3c1-1,1.8-0.3,2.5,1.9c-0.2,0.9-0.8,1.6-1.6,2.2
	c-1.6,1.3-3.7,1.6-5.6,0.9c-3.4-1.1-6-3.6-9-5.7c-1.3-1.6-3.1-2.6-5.2-2.8c-4-0.4-8.1,1.1-11.5,3.1C79,7,75.3,12.7,69.9,13
	 M71.6,12.6l-1.7,0.5c5.1,1.5,9.3-4.2,13.3-6.4c3.2-1.8,9.2-4.4,12.8-2.1c4.1,2.6,0.5,5.3-0.5,8.2c-0.2,0.8,0.3,1.7,1.1,1.9l0.7,0.2
	c0.8,0.2,1.6,0,2.2-0.6c2-2,2.7-5,1.8-7.6c4.8,4.7,10,10.1,16,4.8c2.6-2.2,3.8-6.3,1.7-9.3c-1.9-2.7-5.5-2.7-7.9-0.6"/>
<path class="st0" d="M43.3,12.1c-0.1,1.8,2.8,1.7,2.7,0c-0.3-1.8,0.4-3.7,1.8-4.9c0.1-0.1,0-0.2-0.1-0.2
	C45.2,7.5,43.4,9.6,43.3,12.1z"/>
<path class="st0" d="M43.5,7.4c-1.7,0.7-3.1,2.1-3.8,3.8c-0.6,1.5-1.3,4.2,0.3,5.3c0.4,0.3,1,0.3,1.4,0l0.1-0.1
	c0.6-0.3,0.8-1.1,0.5-1.7c-0.1-0.1-0.2-0.3-0.3-0.4C40.5,12.2,41.8,8.8,43.5,7.4L43.5,7.4z"/>
<path class="st0" d="M44.1,3.6c0.2,0,0.2-0.4,0-0.4c-0.7-0.2-1.3-0.5-1.8-1c-0.5-0.4-0.8-1-1.3-1.5c-0.5-0.4-1.2-0.4-1.6,0
	C39.1,1.1,39,1.6,39.2,2C40.1,3.7,42.5,4,44.1,3.6z"/>
<path class="st0" d="M32,4.4c2,1.5,4.7,1.9,7,0.9V5.2c-2.1-0.3-4-1.4-5.4-3C32.4,0.9,30.3,3.2,32,4.4z"/>
<path class="st0" d="M32.2,9.4c1.4-0.2,2.7-0.7,3.8-1.6c0.1,0,0.1-0.1,0-0.2l0,0c-0.6-0.1-1.2,0-1.8-0.1c-0.7-0.1-1.4-0.2-2-0.5
	C30.4,6.5,30.1,9.9,32.2,9.4z"/>
<path class="st0" d="M70.5,12c1.5-1.2,2.6-2.9,3-4.7c0.4-2-2.8-2-2.4,0c0.4,1.6,0.1,3.3-0.8,4.6C70.3,12,70.4,12.1,70.5,12z"/>
<path class="st0" d="M74.7,9.8c1.5-1.4,2.7-3.1,3.3-5.1c0.1-0.4,0-0.7-0.3-1l-0.2-0.2c-0.2-0.2-0.6-0.3-0.9-0.1
	c-1,0.6-0.7,1.7-0.8,2.7C75.7,7.4,75.2,8.7,74.7,9.8C74.6,9.8,74.6,9.8,74.7,9.8z"/>
<path class="st0" d="M79.5,5.5C80,5,80.5,4.7,81,4.2c0.5-0.4,1.1-0.8,1.7-1.1C83.9,2.7,83,0.9,82,1.6c-0.7,0.5-1.3,1-1.8,1.7
	c-0.4,0.6-0.7,1.4-0.8,2.2C79.3,5.5,79.4,5.5,79.5,5.5C79.4,5.5,79.5,5.5,79.5,5.5z"/>
<path class="st0" d="M70.5,14.3c-0.1,0-0.2,0-0.2,0.2c0,0.1,0,0.1,0,0.2c0.8,0.9,1.8,1.6,2.9,2.1c1,0.6,2.2,1,3.3,0.9
	c0.9-0.1,1-1.5,0.3-1.9c-1-0.4-2-0.6-3.1-0.7C72.6,14.8,71.6,14.6,70.5,14.3z"/>
<path class="st0" d="M75.9,13.1c-0.1,0-0.1,0.1-0.1,0.1s0,0.1,0.1,0.1c1.2,0.5,2.4,0.9,3.7,1.1c1.2,0.2,2.3,0.4,3.1-0.7
	c0.2-0.4,0.1-0.9-0.3-1.2c-1-0.6-1.8-0.1-2.8,0.2C78.3,13,77.1,13.1,75.9,13.1z"/>
<path class="st0" d="M83.3,9.1c-1.2,0.5-2.4,0.9-3.6,1.4v0.1c1.3,0.2,2.5,0.3,3.8,0.1c1.2,0,2.4-0.3,3.5-1c0.4-0.4,0.4-1,0.1-1.4
	C86.9,8.1,86.6,8,86.3,8C85.2,8.1,84.2,8.5,83.3,9.1z"/>
<path class="st0" d="M92.9,5.7c-1.9-1-4.1-0.8-5.8,0.5 M87.1,6.2c1.6-0.6,3.3-0.1,4.4,1.2c1.2,1.2,2.8-0.9,1.4-1.8L87.1,6.2z"/>
<path class="st0" d="M58.8,10.1h-0.2c-0.6,0.2-0.9,0.8-0.7,1.4c0.1,0.3,0.4,0.6,0.7,0.7h0.2c0.6,0.2,1.2-0.2,1.4-0.8
	S60,10.2,59.4,10C59.2,10,59,10,58.8,10.1L58.8,10.1z"/>
<path class="st0" d="M35.7,12.3c-0.7,1.9-1.1,3.9-1.1,5.8C33,24.5,31,32,37.7,35.9c1.2,0.7,2.7,1.1,4.1,1.2
	c-0.4,0.7-0.9,1.3-1.4,1.9c-0.2,0.3-0.4,0.5-0.7,0.7s-0.5,0.4-0.7,0.7c-0.6,0.5-1.2,1-1.9,1.4c-0.1-1.4-0.5-2.9-1.2-4.1
	C32,31,24.5,33,18.1,34.6c-2,0.1-4,0.4-5.9,1.1C7.4,37.4,4,41.2,4.5,46.5h0.1C4.4,41,9,37.6,14,36.6c2-0.4,4.6-0.7,6.6,0
	c2.1,0.6,3.7,2.5,3.7,4.7c0.1,2.6-1.2,3.6-3.8,3c0.7-0.6,0-2-1-1.6C16.4,44,17.7,48,20.9,48c4.5,0.1,6.9-5.9,5.1-9.5
	c-1.3-2.7-3.7-3.8-6.4-4c4.7-0.8,10.1-1.2,13.2,2.2c4,4.5,1.4,11-4.2,12.3c-1.7,0.4-1,3,0.7,2.6c0.7-0.2,1.4-0.4,2.1-0.7
	c3.5,2.2,7.7,2.7,11.6,1.5c2.2-0.7,4.3-1.9,6.2-3.4c1.5-1.8,2.7-3.9,3.4-6.2c1.3-3.9,0.8-8.1-1.4-11.6c0.3-0.7,0.6-1.4,0.7-2.1
	c0.4-1.7-2.2-2.4-2.6-0.7C48,34,41.5,36.6,37,32.6c-3.4-3-3-8.4-2.2-13.1c0.2,2.7,1.3,5.1,4,6.4c3.6,1.8,9.6-0.6,9.5-5.1
	c0-3.2-4.1-4.5-5.3-1.4c-0.4,0.9,1,1.6,1.6,1c0.6,2.7-0.4,3.9-3,3.8c-2.2,0-4.2-1.5-4.7-3.7c-0.7-2-0.4-4.6,0-6.6
	c1-4.9,4.4-9.5,9.9-9.4V4.4C41.2,4,37.4,7.4,35.7,12.3z M50.4,32.2c1.4,3.7,1.1,7.8-0.6,11.4c-0.7,1.3-1.6,2.6-2.5,3.7
	c-1.1,1-2.4,1.9-3.7,2.5c-3.5,1.8-7.7,2-11.4,0.6c0.5-0.3,1-0.7,1.5-1.1c2.2,0.7,4.7,0.7,6.9,0c2-0.8,3.8-1.9,5.5-3.3
	c1.4-1.6,2.5-3.5,3.3-5.5c0.7-2.2,0.7-4.7,0-6.9C49.8,33.2,50.1,32.7,50.4,32.2z M49,34c0.2,2,0,4-0.5,5.9c-0.8,1.9-1.9,3.7-3.3,5.3
	c-1.5,1.4-3.3,2.5-5.3,3.3C38,49,36,49.2,34,49c0.6-0.6,1.1-1.2,1.6-1.9c2.8,0.5,6.1-1.3,8.5-3.1c1.8-2.4,3.5-5.8,3.1-8.5
	C47.9,35.1,48.5,34.6,49,34z M46.9,35.7c-0.3,1.7-1,3.3-1.9,4.8c-0.5,1-1.1,1.8-1.8,2.7c-0.8,0.7-1.7,1.3-2.6,1.8
	c-1.5,0.9-3.1,1.5-4.8,1.8c0.4-0.7,0.8-1.5,1-2.3c2-0.4,3.8-1.2,5.4-2.4c1.2-1.6,2-3.5,2.4-5.4C45.4,36.5,46.2,36.2,46.9,35.7
	L46.9,35.7z M44.5,36.7c-0.4,1.1-0.9,2.2-1.7,3.1c-0.4,0.5-0.9,1-1.4,1.5c-0.4,0.5-0.9,1-1.5,1.4c-0.9,0.7-2,1.3-3.1,1.7
	c0.2-0.8,0.3-1.7,0.3-2.5c0.8-0.2,1.6-0.4,2.3-0.8c0.3-0.2,0.7-0.4,1-0.7c0.2-0.3,0.5-0.7,0.7-1c0.3-0.8,0.6-1.5,0.8-2.3
	C42.7,37.1,43.6,37,44.5,36.7L44.5,36.7z"/>
<path class="st0" d="M45.2,27.9c-1.5,0.4-2.5,1.6-4.2,1.7c-2.3,0-4.4-1.2-5.6-3.1 M35.3,26.5c1.2,2.3,2.8,4.3,5.5,4.9
	c2,0.5,5.2,0.1,5.8-2.2c0.1-0.6-0.3-1.2-0.9-1.3c-0.2,0-0.3,0-0.5,0L35.3,26.5z"/>
<path class="st0" d="M34.6,10.5c-0.7,0.4-1.3,1-1.8,1.6c-0.5,0.8-0.8,1.7-0.9,2.6c-0.1,1.7,2.8,1.5,2.4-0.3
	C34,13.1,34.1,11.8,34.6,10.5L34.6,10.5z"/>
<path class="st0" d="M24.8,14.4c1,2.9,1.9,6.3,0.9,9.2c0,0,0,0.1,0.1,0c1.8-4.3,1.5-11-1.6-14.7c-0.3-0.3-0.8-0.4-1.2-0.3l-0.4,0.1
	c-0.2,0.1-0.4,0.3-0.4,0.6c0,0.5,0.1,0.9,0.3,1.3C23.2,12,24.2,12.8,24.8,14.4z"/>
<path class="st0" d="M9.7,60.5c-0.9,0.5-1.9,1-2.8,1.4S5.1,63,4.1,63.4c-0.8,0.4-1,1.4-0.6,2.2c0.1,0.1,0.2,0.2,0.3,0.3
	c0.7,0.6,1.7,0.6,2.3-0.1c0.1-0.1,0.1-0.2,0.2-0.3c0.5-0.8,1.1-1.6,1.6-2.4C8.5,62.4,9,61.4,9.7,60.5L9.7,60.5z"/>
<path class="st0" d="M3.3,61c2-0.7,4-1.2,6-1.7v-0.1c-2-0.3-4-0.8-6-1.3C0.6,57.2,0.9,61.9,3.3,61z"/>
<path class="st0" d="M3.5,53.1c-0.5,0.7-0.4,1.7,0.3,2.2c0.2,0.1,0.3,0.2,0.5,0.3C5.2,56,6.1,56.5,7,56.9s1.9,0.8,2.7,1.2
	c0,0,0.1,0,0.1-0.1c-0.7-0.7-1.2-1.6-1.8-2.4s-1.3-1.5-1.8-2.4c-0.5-0.8-1.4-1-2.2-0.5C3.7,52.8,3.6,53,3.5,53.1z"/>
<path class="st0" d="M8.2,52c1,1.8,1.9,3.6,2.6,5.5h0.1c0-2.1,0.1-4.2,0.3-6.3C11.4,48.7,6.8,49.5,8.2,52z"/>
<path class="st0" d="M13.7,51.6c-0.2,1-0.5,2-0.8,3s-0.4,2-0.8,3c0,0,0,0.1,0.1,0c0.6-0.8,1.4-1.5,2.1-2.3s1.3-1.6,2.1-2.3
	C18.3,51.2,14.1,49.1,13.7,51.6z"/>
<path class="st0" d="M13,58.7c2-0.4,3.9-0.7,5.9-0.8c2.9-0.2,1.2-4.6-1.1-2.7C16.3,56.4,14.7,57.6,13,58.7L13,58.7z"/>
<path class="st0" d="M19,60.4c-2,0-4-0.2-6-0.5c0,0-0.1,0,0,0.1c1.8,1,3.6,2.1,5.3,3.3C20.3,64.8,21.9,60.4,19,60.4z"/>
<path class="st0" d="M14,66.8c0.6,2.7,4.6,0.1,2.7-1.5c-0.8-0.7-1.5-1.4-2.2-2.2s-1.5-1.4-2.2-2.2h-0.1c0.4,1,0.6,2,0.9,2.9
	C13.4,64.8,13.7,65.8,14,66.8z"/>
<path class="st0" d="M11.4,67.1c-0.3-2-0.5-3.9-0.6-5.9h-0.1c-0.6,1.9-1.4,3.7-2.3,5.5C7.3,69.3,11.9,70.1,11.4,67.1z"/>
<path class="st0" d="M2.1,119.1c3,2.1,7,0.9,9.3-1.7c5.2-6.1-0.1-11.3-4.8-16c2.7,0.9,5.6,0.2,7.6-1.8c0.6-0.6,0.8-1.4,0.6-2.2
	l-0.2-0.7c-0.2-0.8-1.1-1.3-1.9-1.1c-2.9,1-5.6,4.6-8.2,0.5c-2.3-3.6,0.3-9.6,2.2-12.8c2.3-4,7.9-8.2,6.4-13.3 M13,69.9
	c-0.3,5.3-6,9.1-8.6,13.4c-2,3.4-3.5,7.5-3.1,11.5c0.2,2,1.2,3.9,2.8,5.1c2.1,2.9,4.6,5.5,5.7,9c0.7,1.9,0.4,4-0.9,5.6
	c-0.5,0.8-1.3,1.3-2.2,1.6c-2.3-0.7-2.9-1.5-1.9-2.5c-0.1-1,0.8-1.7-0.3-2.6c-0.8-0.8-2.2-0.8-3,0c-2.1,2.4-2.1,6,0.6,7.9L13,69.9z"
	/>
<path class="st0" d="M5.7,15.4c-4,3.2-4.9,8.8-0.8,12.4c5.9,5.2,15.8,2.9,23.2,0.3c2.5-7.4,4.9-17.4-0.3-23.2
	c-3.6-4.1-9.2-3.3-12.4,0.8c-0.6-0.4-1.2-0.8-1.8-1.2C10.3,2.7,5,0.2,1.1,1.1C0.2,5,2.7,10.3,4.5,13.6C4.9,14.2,5.3,14.8,5.7,15.4z
	 M19.1,8.3c1.9-2.7,5.1-1.9,6.8,0.4c3.7,5,3,12.5,1.7,18.8c-6.3,1.3-13.8,2-18.8-1.7c-2.4-1.7-3.2-4.9-0.4-6.8
	c0.2-0.1,0.3-0.2,0.4-0.4c1,0.9,2,1.6,3.1,2.3c3.5,2.1,7.6,2.9,11.6,2.5c0.4-4.1-0.4-8.1-2.5-11.7c-0.6-1.1-1.4-2.1-2.3-3.1
	C18.9,8.6,19,8.5,19.1,8.3z M5.9,5.4c2.1,0.4,4.1,1.1,6,2c2.8,1.3,5.3,3.2,7.3,5.6c2.2,2.9,3.6,6.4,3.8,10c-3.6-0.2-7.1-1.6-10-3.8
	c-2.4-2-4.4-4.5-5.7-7.3c-0.9-1.9-1.6-3.9-2-6c0-0.2-0.1-0.5-0.1-0.7L5.9,5.4z"/>
<path class="st0" d="M7.2,47.8c1.3-1.4,3.1-2,5-1.8c1.7,0.2,1.8-2.8,0-2.7c-2.5,0.1-4.7,1.8-5.2,4.3C7,47.8,7.1,47.8,7.2,47.8z"/>
<path class="st0" d="M11.2,39.6c-1.7,0.8-3.1,2.1-3.8,3.8 M7.4,43.5c1.4-1.7,4.8-3,6.9-1.9c0.4,0.5,1.3,0.6,1.8,0.2
	c0.1-0.1,0.2-0.2,0.3-0.4l0.1-0.1c0.3-0.4,0.3-1,0-1.4c-1.1-1.5-3.8-0.8-5.3-0.2L7.4,43.5z"/>
<path class="st0" d="M2.2,42.2c0.5,0.5,0.8,1.2,1,1.8c0.1,0.2,0.4,0.2,0.4,0c0.3-1.6,0-4-1.5-4.9c-0.5-0.4-1.2-0.3-1.6,0.2
	S0.2,40.6,0.7,41S1.8,41.7,2.2,42.2z"/>
<path class="st0" d="M5.3,39c1-2.3,0.6-5-0.9-7c-1.2-1.7-3.5,0.4-2.1,1.6C3.9,35,4.9,36.9,5.3,39L5.3,39z"/>
<path class="st0" d="M7.7,36c0,0.1,0.1,0.1,0.2,0l0,0c0.8-1.1,1.4-2.4,1.6-3.8c0.5-2.1-2.9-1.8-2.3,0c0.2,0.6,0.4,1.3,0.5,2
	C7.6,34.8,7.6,35.4,7.7,36z"/>
<path class="st0" d="M12,70.5c0.1-0.1,0-0.2-0.1-0.1c-1.4,0.9-3.1,1.2-4.6,0.8c-2-0.5-2,2.8,0,2.4C9.1,73.1,10.8,72,12,70.5z"/>
<path class="st0" d="M9.8,74.7C9.8,74.7,9.8,74.6,9.8,74.7c-1.2,0.6-2.4,1-3.7,1.2c-1,0.2-2.1-0.2-2.7,0.8c-0.2,0.3-0.1,0.7,0.1,0.9
	l0.2,0.2c0.3,0.3,0.6,0.4,1,0.3C6.6,77.4,8.4,76.2,9.8,74.7z"/>
<path class="st0" d="M3.2,82.7c0.3-0.6,0.6-1.2,1.1-1.7c0.4-0.5,0.8-1,1.3-1.5v-0.1c0,0,0,0-0.1,0c-0.8,0.1-1.5,0.4-2.1,0.8
	c-0.6,0.5-1.2,1.1-1.7,1.8C0.9,83,2.7,83.9,3.2,82.7z"/>
<path class="st0" d="M15.7,76.8c0.4,0.7,1.8,0.7,1.9-0.3c0-1.2-0.3-2.3-0.9-3.3c-0.5-1.1-1.2-2-2.1-2.9c-0.1-0.1-0.2-0.1-0.3,0
	c0,0-0.1,0.1,0,0.2c0.3,1.1,0.5,2.1,0.7,3.2C15.1,74.7,15.3,75.8,15.7,76.8z"/>
<path class="st0" d="M13,75.9c0,1.2-0.1,2.5-0.4,3.7c-0.3,1-0.8,1.8-0.2,2.8c0.2,0.4,0.8,0.6,1.2,0.3c1.1-0.8,0.9-1.9,0.7-3.1
	c-0.2-1.3-0.6-2.5-1.1-3.7C13.2,75.8,13.1,75.8,13,75.9C13.1,75.8,13,75.8,13,75.9z"/>
<path class="st0" d="M10.5,79.7c-0.5,1.2-0.9,2.4-1.4,3.6c-0.6,0.9-1,1.9-1.2,2.9c0,0.6,0.4,1,1,1c0.3,0,0.6-0.1,0.8-0.3
	c0.7-1,1-2.2,1-3.5C10.8,82.3,10.8,81,10.5,79.7L10.5,79.7z"/>
<path class="st0" d="M6.2,87.1c-1.3,1.7-1.5,4-0.5,5.8c0.8,1.4,3-0.2,1.8-1.4C6.2,90.4,5.7,88.7,6.2,87.1L6.2,87.1z"/>
<path class="st0" d="M12.3,58.8v-0.2c-0.2-0.6-0.8-0.9-1.4-0.7c-0.3,0.1-0.6,0.4-0.7,0.7v0.2C10,59.4,10.4,60,11,60.2
	s1.2-0.2,1.4-0.8C12.4,59.2,12.4,59,12.3,58.8L12.3,58.8z"/>
<path class="st0" d="M29.2,46.6c2.3-0.6,2.7-3.8,2.2-5.8c-0.6-2.6-2.6-4.2-4.9-5.5 M26.6,35.4c1.9,1.3,3,3.4,3,5.6
	c-0.1,1.7-1.4,2.7-1.7,4.2c-0.2,0.6,0.2,1.2,0.8,1.4c0.2,0,0.4,0,0.6,0L26.6,35.4z"/>
<path class="st0" d="M14.4,34.4c1.8,0.4,2-2.5,0.3-2.4c-0.9,0.1-1.8,0.4-2.6,0.9c-0.7,0.5-1.2,1.1-1.6,1.8l0,0
	C11.7,34.1,13.1,34,14.4,34.4z"/>
<path class="st0" d="M14.4,24.8c-1.6-0.6-2.4-1.6-3.8-2.3c-0.4-0.3-0.9-0.4-1.3-0.3c-0.3,0-0.5,0.2-0.6,0.4V23
	c-0.1,0.4,0,0.9,0.3,1.2c3.7,3.1,10.4,3.4,14.7,1.6v-0.1C20.7,26.6,17.3,25.8,14.4,24.8z"/>
</svg>
