<?xml version="1.0" encoding="utf-8"?>
<!-- Generator: Adobe Illustrator 24.1.2, SVG Export Plug-In . SVG Version: 6.00 Build 0)  -->
<svg version="1.1" id="Layer_1" xmlns="http://www.w3.org/2000/svg" xmlns:xlink="http://www.w3.org/1999/xlink" x="0px" y="0px"
	 viewBox="0 0 603.2 194.8" style="enable-background:new 0 0 603.2 194.8;" xml:space="preserve">
<style type="text/css">
	.st0{fill-rule:evenodd;clip-rule:evenodd;fill:#746CFE;}
	.st1{fill:#746CFE;}
	.st2{fill-rule:evenodd;clip-rule:evenodd;fill:url(#SVGID_1_);}
</style>
<path class="st0" d="M141.1,138.7c5.9,0,10.7,4.8,10.7,10.7s-4.8,10.7-10.7,10.7c-5.9,0-10.7-4.8-10.7-10.7l0,0
	C130.4,143.5,135.2,138.7,141.1,138.7z"/>
<path class="st0" d="M465.1,138.7c5.9,0,10.7,4.8,10.7,10.7c0,5.9-4.8,10.7-10.7,10.7c-5.9,0-10.7-4.8-10.7-10.7
	C454.4,143.5,459.2,138.7,465.1,138.7L465.1,138.7z"/>
<path class="st1" d="M465.9,139.7v10c8.3,0,12.1,6.9,12.1,13.2c0.1,3.5-1.2,6.9-3.5,9.6c-2.7,2.9-6.5,4.3-11.4,4.3
	c-9.5,0-15.7-7.8-23.5-17.6l-2.3-2.9c-1.8,2-3.6,4-5.5,5.9l-1.5,1.4l1.4,1.8c8.3,10.5,17,21.4,31.3,21.4c9.7,0,15.6-4.1,18.7-7.5
	c4-4.5,6.3-10.3,6.2-16.4C488,151.7,480.2,139.7,465.9,139.7z"/>
<path class="st1" d="M174.4,162.2c-1.9-1.9-3.7-3.9-5.5-5.9l-2.3,2.9c-7.8,9.9-14,17.6-23.5,17.6c-4.9,0-8.7-1.4-11.4-4.3
	c-2.3-2.6-3.6-6.1-3.5-9.6c0-6.4,3.8-13.2,12.1-13.2v-10c-14.4,0-22.1,12-22.1,23.2c-0.1,6,2.1,11.9,6.2,16.4
	c3.2,3.4,9,7.5,18.7,7.5c14.3,0,23-10.9,31.3-21.4l1.4-1.8L174.4,162.2z"/>
<path class="st1" d="M390.5,140c3.7,0,7.3,0.4,10.9,1.3c1.7-1.4,3.4-2.9,5-4.5c1.1-1.1,2.2-2.2,3.2-3.4c-6.1-2.3-12.5-3.5-19-3.4
	c-7.2,0-14.3,1.3-21,4c-0.7,4.2-1.6,8.3-2.7,12.4C374.1,142.1,382.2,139.9,390.5,140z"/>
<path class="st1" d="M235.5,133.5c-6.3-2.4-13.1-3.6-19.8-3.5c-6.5-0.1-12.9,1.1-19,3.4c1,1.2,2.1,2.3,3.2,3.4
	c1.6,1.6,3.2,3.1,5,4.5c3.5-0.9,7.2-1.3,10.9-1.3c6.9,0,13.7,1.5,20,4.4c-0.2-2.3-0.3-4.6-0.3-6.9
	C235.3,136.2,235.4,134.8,235.5,133.5z"/>
<path class="st1" d="M178.4,86.9c-49,0-70.9,29.7-88.6,53.6c-13.8,18.6-24.6,33.4-44.2,33.4c-10.2,0-18.5-3.2-24.1-9.3
	c-5-5.6-7.7-12.9-7.6-20.5c0-13.7,8.2-28.4,26.2-28.4v-14c-12,0-22.7,4.8-30,13.5C3.5,123.4-0.1,133.7,0,144.2
	c-0.1,11,3.9,21.7,11.3,30c5.8,6.3,16.4,13.8,34.3,13.8c26.7,0,41.3-19.9,55.5-39c17.4-23.6,35.4-47.9,77.3-47.9
	c22.3,0,42.3,6.5,59.9,19.3c1.6-4.4,3.7-8.7,6.2-12.7C225.2,94,202.1,86.8,178.4,86.9z"/>
<path class="st1" d="M192.8,143.9c-9.2-9.2-16-20.4-19.9-32.7c-5.4,0.3-10.7,1.2-15.9,2.7c12.1,41.5,50.2,69.9,93.4,69.8
	c1.1,0,2.1,0,3.2-0.1c-4.6-4.9-8.5-10.4-11.5-16.4C223.5,165.3,206,157.1,192.8,143.9z"/>
<path class="st1" d="M262.1,85.7c-1.7-2-3.5-4-5.4-5.8c-24.8-24.7-60.9-34.3-94.7-25l-4.4,1.2l-1.2,4.4c-1.7,6.3-2.8,12.7-3.3,19.2
	c5.4-1.2,10.8-2,16.3-2.4c0.3-2.7,0.7-5.4,1.3-8c30.2-6.6,61.4,4.6,80.6,28.7c3.4-4.2,6.9-8.1,10.4-11.9L262.1,85.7z"/>
<path class="st1" d="M593,115.3c-7.4-8.7-18-13.5-30-13.5v14c18,0,26.2,14.7,26.2,28.4c0.1,7.5-2.6,14.8-7.6,20.5
	c-5.6,6.1-13.9,9.3-24.1,9.3c-19.6,0-30.5-14.7-44.2-33.4c-17.6-23.9-39.6-53.6-88.6-53.6c-19.1-0.1-38,4.6-54.8,13.7
	c0.5,5.2,0.8,10.4,0.9,15.8c16.1-10.3,34.8-15.6,53.9-15.5c41.9,0,59.9,24.4,77.3,47.9c14.2,19.2,28.8,39.1,55.5,39.1
	c17.9,0,28.6-7.5,34.3-13.8c7.4-8.2,11.4-18.9,11.3-29.9C603.3,133.7,599.7,123.4,593,115.3z"/>
<path class="st1" d="M435.4,69.2c0.6,2.7,1,5.5,1.3,8.3c5.5,0.5,10.9,1.5,16.3,2.9c-0.4-6.7-1.5-13.4-3.3-19.9l-1.2-4.4l-4.4-1.2
	c-27.6-7.6-57-2.7-80.7,13.4c1.7,5.5,3.1,11.1,4.2,16.7C386.7,69.9,411.6,64.1,435.4,69.2z"/>
<path class="st1" d="M347.8,183.3c2.7,0.2,5.4,0.4,8.1,0.4c42.9,0.1,80.7-28,93.1-69c-5.1-1.7-10.4-2.8-15.7-3.3
	c-10.5,32.7-40.4,55.2-74.7,56.2c-0.8,1.5-1.6,3-2.5,4.4C353.6,176,350.8,179.8,347.8,183.3z"/>
<path class="st1" d="M51.4,129.5c-11.3,0-20.5-9.2-20.5-20.6s9.2-20.5,20.6-20.5S72,97.6,72,109C72,120.3,62.8,129.5,51.4,129.5z
	 M51.4,102.4c-3.6,0-6.5,2.9-6.5,6.6s2.9,6.6,6.6,6.6c3.6,0,6.5-2.9,6.5-6.6C58,105.3,55,102.4,51.4,102.4z"/>
<path class="st1" d="M551.8,129.5c-11.3,0-20.6-9.2-20.6-20.5s9.2-20.6,20.6-20.6c11.3,0,20.5,9.2,20.5,20.5l0,0
	C572.3,120.3,563.1,129.5,551.8,129.5z M551.8,102.4c-3.6,0-6.6,2.9-6.6,6.5s2.9,6.6,6.6,6.6c3.6,0,6.5-2.9,6.5-6.5c0,0,0,0,0,0
	C558.3,105.3,555.4,102.4,551.8,102.4z"/>
<linearGradient id="SVGID_1_" gradientUnits="userSpaceOnUse" x1="316.271" y1="151.4131" x2="414.4823" y2="-18.6991" gradientTransform="matrix(1 0 0 -1 -73.91 161.18)">
	<stop  offset="0" style="stop-color:#A670FE"/>
	<stop  offset="1" style="stop-color:#746CFE"/>
</linearGradient>
<path class="st2" d="M299.9,194.8c-23.1,0-54.6-20.9-54.6-57.3s47.3-52.7,47.3-88.3c0-13.6-2-18.1-8.6-26.4
	c-5.8-7.1-13.8-9.4-18.4-10.1c0.1,0.6,0.1,1.1,0.1,1.7c0,5.4-4.4,9.8-9.8,9.8c-1.1,0-2.2-0.2-3.2-0.5c-3.6-0.7-7-3.9-7-10.4
	c0-15.9,42.7-20.7,72.8,3.6C346,39,360.9,76.4,360.9,118.8C360.9,145.4,345.5,194.8,299.9,194.8L299.9,194.8z M303.3,121.1
	c9.2,0,16.6,7.4,16.6,16.6c0,9.2-7.4,16.6-16.6,16.6c-9.2,0-16.6-7.4-16.6-16.6C286.7,128.5,294.1,121.1,303.3,121.1L303.3,121.1z"
	/>
</svg>
