<?xml version="1.0" encoding="utf-8"?>
<!-- Generator: Adobe Illustrator 24.1.2, SVG Export Plug-In . SVG Version: 6.00 Build 0)  -->
<svg version="1.1" id="Layer_1" xmlns="http://www.w3.org/2000/svg" xmlns:xlink="http://www.w3.org/1999/xlink" x="0px" y="0px"
	 viewBox="0 0 372 394" style="enable-background:new 0 0 372 394;" xml:space="preserve">
<style type="text/css">
	.st0{fill:url(#SVGID_1_);}
	.st1{fill:none;stroke:#FFFFFF;stroke-width:2;stroke-miterlimit:10;}
	.st2{fill:#FFFFFF;}
	.st3{fill:none;stroke:#FFFFFF;stroke-miterlimit:10;}
</style>
<linearGradient id="SVGID_1_" gradientUnits="userSpaceOnUse" x1="186" y1="-92.2128" x2="186" y2="-476.7882" gradientTransform="matrix(1 0 0 -1 0 -92)">
	<stop  offset="0" style="stop-color:#F4F6FC"/>
	<stop  offset="0.9" style="stop-color:#FFFFFF"/>
</linearGradient>
<path class="st0" d="M186,114.7c0,0,23.5,18,35.9,30.9c24.3,25.6,35.2,49.3,35.2,60.6v178.6h-74.9h-67.4V206.2
	c0-11.3,11-35,35.2-60.6C162.5,132.6,175,122.3,186,114.7 M186,0.2C127.6,16.3,23.6,105.8,23.6,203.3v170.8h159.4h165.5V203.3
	C348.4,105.8,244.4,16.3,186,0.2L186,0.2z"/>
<path class="st1" d="M342,374.2V214.4C342,120.5,242,27.4,186,11.9l0,0C129.8,27.4,29.9,120.5,29.9,214.4v159.7"/>
<g>
	<path class="st2" d="M200.1,72.3c-7.6,4.3-9,14.1-5.8,21.8c7.8,17.4,24.5,11.3,39.4,6c-4.8,4.8-6.1,11.7-3.9,18.1
		c0.7,2,2.2,3.3,4.1,3.6l1.7,0.2c1.9,0.5,4-1,4.3-2.9c0.8-7.3-4.1-16.9,7.3-18.2c10.1-1.3,20.4,10.4,25.3,17.7
		c6.2,9.1,9.7,25.4,22.1,27.3 M294.9,145.6c-11-6-13.5-22.2-20.1-32.1c-5.2-7.7-12.4-15.1-21.5-18.3c-4.4-1.6-9.5-1.3-13.7,0.9
		c-8.5,1.7-16.5,4.3-25.2,3.2c-4.9-0.4-9.1-3.2-11.2-7.6c-1.3-1.8-1.5-4.1-1.3-6.4c3.8-4.2,6.2-4.6,7.3-1.5c2.3,0.8,2.8,3.5,5.9,2
		c2.7-0.8,4-3.9,3.1-6.4c-3.1-7-10.9-10.6-17.7-6.7L294.9,145.6z"/>
	<path class="st2" d="M294.5,143.1c0.2,0.4,0.5,0.3,0.4-0.1c-0.5-4,0.5-7.9,2.9-10.8c3.1-3.8-3.9-7.2-5.2-2.5
		C291.9,134.2,292.6,138.9,294.5,143.1z"/>
	<path class="st2" d="M287.9,134.1C287.9,134.1,288.1,134.2,287.9,134.1c-0.2-3.2,0.3-6.2,1.1-9.2c0.6-2.4,2.6-4.2,1-6.6
		c-0.5-0.7-1.5-0.9-2.1-0.7l-0.6,0.2c-1,0.3-1.6,0.8-1.7,1.8C285.2,124.4,286,129.4,287.9,134.1z"/>
	<path class="st2" d="M277.2,111.6c1,1.2,2,2.5,2.6,4.1c0.8,1.3,1.4,2.7,1.9,4.3l0.2,0.1c0,0,0,0,0.1-0.2c0.6-1.8,0.7-3.6,0.4-5.3
		c-0.5-1.8-1.1-3.7-2.1-5.5C279,106.5,275.3,109.4,277.2,111.6z"/>
	<path class="st2" d="M277.3,144.3c-1.9,0.2-3.4,3.2-1.3,4.4c2.6,1.2,5.3,1.8,8,1.4c2.9,0.1,5.5-0.5,8.4-1.5
		c0.3-0.1,0.4-0.2,0.2-0.6c0,0-0.1-0.3-0.5-0.2c-2.6-0.4-5.1-1-7.6-1.7C282.4,145.4,279.9,144.7,277.3,144.3z"/>
	<path class="st2" d="M282,139.7c-2.6-1.2-5.4-2.7-7.6-4.6c-1.8-1.7-3-3.6-5.8-3.3c-1.1,0-2.2,1.1-1.9,2.3c0.7,3.1,3.2,3.8,6,4.6
		c3.1,1,6.1,1.3,9.1,1.4C282,140.2,282.1,140,282,139.7C282.1,140,282.2,139.8,282,139.7z"/>
	<path class="st2" d="M276.3,130.5c-2-2.4-4.2-4.4-6.4-6.5c-1.3-2.3-3.1-4.1-5-5.5c-1.3-0.6-2.5-0.2-3.1,1.1c-0.2,0.6-0.3,1.3-0.2,2
		c1.5,2.5,3.7,4.4,6.6,5.7C270.4,128.5,273.2,129.8,276.3,130.5L276.3,130.5z"/>
	<path class="st2" d="M264.8,113.6c-2.3-4.5-7.1-7.3-12-7c-3.9,0.3-2.6,6.7,1.1,5.3C257.7,110.3,261.9,111,264.8,113.6L264.8,113.6z
		"/>
</g>
<g>
	<path class="st2" d="M188.4,46.8c1.5-1.3,3.3-2.3,5-3.3c1.7-1.1,2.8-2.3,4.5-3c1.5-0.9,1.9-2.8,0.9-4.1c-0.4-0.1-0.4-0.4-0.5-0.5
		c-1.1-1.1-3-1.1-4.1,0c-0.1,0.1-0.4,0.4-0.5,0.5c-0.8,1.9-1.9,3.6-2.8,5.3C190,43.3,189.2,45.2,188.4,46.8
		C188.3,46.8,188.3,47.1,188.4,46.8z"/>
	<path class="st2" d="M185.8,46.1C185.8,46.1,186,46.1,185.8,46.1c0.9-3.7,2.1-7.6,3.3-11.3c1.5-4.5-7.2-5-5.8,0
		C184.4,38.6,185.2,42.3,185.8,46.1z"/>
	<path class="st2" d="M174.8,40c1.5,0.9,3,2.3,4.5,3.3c1.5,1.1,3,2.3,4.4,3.3c0,0,0.1,0,0.1-0.1c-0.9-1.7-1.5-3.3-2.3-5
		c-0.8-1.7-1.7-3.2-2.4-4.9c-0.4-1.5-2.1-2.4-3.7-2.1c-1.5,0.4-2.4,2.1-2.1,3.7C173.6,39,174,39.8,174.8,40z"/>
	<path class="st2" d="M170.7,49.7c4-0.4,7.8-0.5,11.8-0.5V49c-3.3-1.5-6.9-3.2-10.1-4.9C167.6,41.4,166.2,50,170.7,49.7z"/>
	<path class="st2" d="M177.2,52.9c-1.9,0.5-3.7,1.1-5.6,1.5c-4.6,0.8-0.8,8.9,2.8,5c1.3-1.3,2.8-2.6,4.4-4c1.6-1.3,2.8-2.6,4.4-4
		v-0.1C180.9,52,179,52.2,177.2,52.9z"/>
	<path class="st2" d="M183.4,64.1c0.1-3.7,0.8-7.6,1.5-11 M184.7,53c-2.1,3.2-4.1,6.2-6.6,9c-3.6,4.4,4.6,7.6,5,2.1L184.7,53z"/>
	<path class="st2" d="M193.7,62.8c-2.4-3-4.5-6.4-6.4-9.8h-0.1c0.5,3.7,0.8,7.6,0.9,11.3C188,69.7,196.4,66.7,193.7,62.8z"/>
	<path class="st2" d="M200.1,54.9c-1.9-0.4-3.7-1.1-5.4-1.7c-1.7-0.5-3.7-1.1-5.4-1.7c0,0-0.1,0,0,0.1c1.5,1.3,2.6,2.8,4.1,4.1
		c1.5,1.3,2.8,2.6,4.1,4.1C200.5,63.5,205.1,56.1,200.1,54.9z"/>
	<path class="st2" d="M199.8,44.5c-3.3,1.7-6.8,3-10.3,4.4V49c3.7,0.1,7.3,0.5,11,1.1C206,51,204.7,42.3,199.8,44.5z"/>
	<path class="st2" d="M185.1,47.6h-0.4c-1.1,0.4-1.7,1.5-1.3,2.6c0.1,0.5,0.8,1.1,1.3,1.3h0.4c1.1,0.4,2.3-0.4,2.6-1.5
		c0.4-1.1-0.4-2.3-1.5-2.6C185.8,47.5,185.4,47.5,185.1,47.6L185.1,47.6z"/>
</g>
<g>
	<path class="st2" d="M89.4,157.7c-7.4-4.7-16.7-1.2-21.9,5.3c-11.6,15.2,1.7,26.9,13.5,37.5c-6.6-1.8-13.3,0.3-17.8,5.2
		c-1.4,1.5-1.7,3.4-1.2,5.3l0.6,1.6c0.6,1.8,2.8,3,4.6,2.4c6.7-2.7,12.7-11.7,19.5-2.3c5.9,8.3,0.5,22.9-3.6,30.7
		c-5,9.8-17.6,20.5-13.5,32.4 M69.8,276c0-12.6,13.1-22.4,18.7-32.9c4.3-8.4,7.4-18.3,5.9-27.6c-0.8-4.7-3.3-9.2-7.3-11.7
		c-5.3-6.6-11.7-12.5-14.8-20.6c-1.9-4.4-1.5-9.5,1.4-13.4c1.1-1.9,2.9-3.3,5-4.1c5.6,1.3,7.1,3.1,4.8,5.7c0.4,2.4-1.7,4.2,1,6.1
		c2,1.8,5.3,1.6,7.1-0.3c4.7-6,4.2-14.5-2.5-18.7L69.8,276z"/>
	<path class="st2" d="M72.2,274.4c-0.3,0.3,0.1,0.5,0.3,0.3c3.3-2.3,7.2-3.3,10.9-2.5c4.8,0.9,4.4-6.9-0.3-5.7
		C78.7,267.8,74.8,270.7,72.2,274.4z"/>
	<path class="st2" d="M76.7,264.2C76.7,264.2,76.8,264.5,76.7,264.2c2.8-1.5,5.6-2.7,8.6-3.4c2.4-0.6,5.1,0.2,6.3-2.2
		c0.4-0.7,0.1-1.6-0.4-2.2l-0.5-0.5c-0.8-0.7-1.5-0.8-2.4-0.6C84.1,257.3,80,260.5,76.7,264.2z"/>
	<path class="st2" d="M91.5,244.3c-0.6,1.5-1.2,3-2.4,4.2c-0.9,1.2-1.8,2.6-2.8,3.7l0,0.2c0,0,0,0,0.2,0c1.9-0.3,3.5-1.1,4.9-2.2
		c1.4-1.3,2.7-2.7,3.8-4.5C96.9,243.3,92.5,241.5,91.5,244.3z"/>
	<path class="st2" d="M62.5,259.9c-1-1.6-4.4-1.4-4.5,1c0.2,2.9,1,5.4,2.6,7.8c1.3,2.6,3,4.6,5.3,6.6c0.3,0.3,0.6,0.2,0.7-0.1
		c0,0,0.3-0.3-0.1-0.5c-0.8-2.7-1.5-4.9-2.1-7.5C64.3,264.8,63.7,262.3,62.5,259.9z"/>
	<path class="st2" d="M69,261.8c-0.2-2.9-0.1-5.9,0.5-8.8c0.6-2.4,1.6-4.4,0.1-6.7c-0.5-1-1.9-1.3-2.9-0.6c-2.5,2-1.8,4.6-1.2,7.5
		c0.6,3,1.7,5.9,3.1,8.7C68.6,262,68.8,262,69,261.8C68.8,262,69,262,69,261.8z"/>
	<path class="st2" d="M74.5,252.3c1-3,1.8-5.8,2.9-8.7c1.4-2.2,2.1-4.7,2.5-7c0-1.4-1-2.3-2.5-2.2c-0.7,0.1-1.4,0.2-1.8,0.8
		c-1.5,2.5-2.1,5.4-1.9,8.5C73.4,246.3,73.6,249.4,74.5,252.3L74.5,252.3z"/>
	<path class="st2" d="M83.7,234.3c3-4.2,3-9.7,0.5-13.9c-2.1-3.2-7.2,0.9-4.1,3.5C83.3,226.5,84.8,230.4,83.7,234.3L83.7,234.3z"/>
</g>
<g>
	<path class="st2" d="M301.6,275.9c4.1-11.9-8.5-22.7-13.5-32.4c-4.1-7.8-9.5-22.5-3.6-30.7c6.8-9.4,12.7-0.4,19.5,2.3
		c1.8,0.6,4-0.6,4.6-2.4l0.6-1.6c0.5-1.9,0.2-3.8-1.2-5.3c-4.5-4.9-11.2-7-17.8-5.2c11.7-10.6,25-22.3,13.5-37.5
		c-5.2-6.5-14.5-9.9-21.9-5.3 M281.9,158.2c-6.7,4.3-7.2,12.7-2.5,18.7c1.8,1.9,5.1,2.1,7.1,0.3c2.7-2,0.6-3.8,1-6.1
		c-2.3-2.5-0.8-4.4,4.8-5.7c2.1,0.9,3.9,2.2,5,4.1c2.8,3.9,3.3,9.1,1.4,13.4c-3.1,8.2-9.5,14-14.8,20.6c-3.9,2.5-6.5,7-7.3,11.7
		c-1.5,9.3,1.6,19.3,5.9,27.6c5.6,10.5,18.7,20.4,18.7,32.9L281.9,158.2z"/>
	<path class="st2" d="M288.1,266.5c-4.7-1.2-5.1,6.6-0.3,5.7c3.6-0.8,7.6,0.2,10.9,2.5c0.2,0.2,0.6,0,0.3-0.3
		C296.3,270.7,292.4,267.8,288.1,266.5z"/>
	<path class="st2" d="M282.7,255.3c-0.9-0.2-1.6,0-2.4,0.6l-0.5,0.5c-0.5,0.6-0.8,1.4-0.4,2.2c1.2,2.4,3.9,1.7,6.3,2.2
		c3,0.6,5.9,1.9,8.6,3.4c-0.1,0.3,0,0,0,0C291.2,260.5,287,257.3,282.7,255.3z"/>
	<path class="st2" d="M276.1,245.8c1.1,1.7,2.4,3.2,3.8,4.5c1.3,1.1,3,1.9,4.9,2.2c0.2,0,0.2,0,0.2,0l0-0.2c-1.1-1.2-2-2.6-2.8-3.7
		c-1.2-1.3-1.8-2.8-2.4-4.2C278.6,241.5,274.2,243.3,276.1,245.8z"/>
	<path class="st2" d="M306.8,267.3c-0.6,2.5-1.2,4.8-2.1,7.5c-0.4,0.2-0.1,0.5-0.1,0.5c0.1,0.3,0.4,0.4,0.7,0.1c2.3-2,4-4.1,5.3-6.6
		c1.5-2.4,2.4-4.9,2.6-7.8c-0.2-2.3-3.6-2.6-4.5-1C307.4,262.3,306.9,264.8,306.8,267.3z"/>
	<path class="st2" d="M302.1,261.8c0.2,0.2,0.5,0.3,0.4,0.2c1.4-2.9,2.4-5.7,3.1-8.7c0.7-2.8,1.3-5.5-1.2-7.5
		c-1-0.7-2.4-0.4-2.9,0.6c-1.5,2.2-0.5,4.2,0.1,6.7C302.2,255.9,302.3,258.9,302.1,261.8C302.1,262,302.3,262,302.1,261.8z"/>
	<path class="st2" d="M296.6,252.3c0.9-2.9,1.1-6,0.7-8.7c0.2-3.1-0.4-6-1.9-8.5c-0.4-0.5-1.1-0.7-1.8-0.8c-1.4,0-2.4,0.8-2.5,2.2
		c0.4,2.3,1.1,4.8,2.5,7C294.8,246.5,295.6,249.3,296.6,252.3L296.6,252.3z"/>
	<path class="st2" d="M287.4,234.3c-1.1-3.9,0.4-7.8,3.7-10.3c3-2.6-2.1-6.7-4.1-3.5C284.3,224.5,284.4,230,287.4,234.3L287.4,234.3
		z"/>
</g>
<g>
	<path class="st2" d="M76.8,146.3c12.4-1.9,15.9-18.3,22.1-27.3c4.9-7.3,15.3-19,25.3-17.7c11.4,1.4,6.5,10.9,7.3,18.2
		c0.3,1.9,2.4,3.4,4.3,2.9l1.7-0.2c1.9-0.3,3.4-1.6,4.1-3.6c2.2-6.4,0.9-13.3-3.9-18.1c14.9,5.3,31.5,11.4,39.4-6
		c3.2-7.6,1.8-17.5-5.8-21.8 M170.9,72.9c-6.8-3.8-14.6-0.3-17.7,6.7c-0.9,2.5,0.4,5.6,3.1,6.4c3,1.5,3.6-1.2,5.9-2
		c1.1-3.1,3.4-2.7,7.3,1.5c0.2,2.3,0,4.5-1.3,6.4c-2.1,4.4-6.3,7.3-11.2,7.6c-8.7,1.2-16.7-1.5-25.2-3.2c-4.2-2.2-9.4-2.5-13.7-0.9
		c-9.1,3.2-16.4,10.6-21.5,18.3c-6.6,9.9-9,26.1-20.1,32.1L170.9,72.9z"/>
	<path class="st2" d="M78.8,130.1c-1.2-4.7-8.3-1.3-5.2,2.5c2.4,2.8,3.4,6.8,2.9,10.8c-0.1,0.4,0.2,0.5,0.4,0.1
		C78.8,139.3,79.5,134.5,78.8,130.1z"/>
	<path class="st2" d="M85.8,120c-0.1-1-0.7-1.6-1.7-1.8l-0.6-0.2c-0.6-0.2-1.6,0-2.1,0.7c-1.6,2.3,0.4,4.2,1,6.6
		c0.9,3,1.3,6,1.1,9.2c-0.2,0.1,0,0,0,0C85.4,129.8,86.2,124.8,85.8,120z"/>
	<path class="st2" d="M91.1,109.5c-1,1.8-1.6,3.7-2.1,5.5c-0.3,1.7-0.2,3.5,0.4,5.3c0.1,0.2,0.1,0.2,0.1,0.2l0.2-0.1
		c0.6-1.6,1.2-3,1.9-4.3c0.6-1.6,1.6-2.9,2.6-4.1C96.2,109.7,92.4,106.8,91.1,109.5z"/>
	<path class="st2" d="M86.8,146.6c-2.5,0.7-5,1.3-7.6,1.7c-0.4-0.1-0.5,0.2-0.5,0.2c-0.1,0.4,0,0.5,0.2,0.6c2.9,1,5.5,1.6,8.4,1.5
		c2.8,0.3,5.4-0.2,8-1.4c2.1-1.2,0.6-4.2-1.3-4.4C91.5,145.1,89,145.8,86.8,146.6z"/>
	<path class="st2" d="M89.4,140c-0.1,0.4,0,0.5,0.2,0.5c3.1-0.2,6-0.5,9.1-1.4c2.8-0.8,5.3-1.5,6-4.6c0.3-1.2-0.8-2.3-1.9-2.3
		c-2.8-0.3-4,1.6-5.8,3.3C94.8,137.3,92.1,138.8,89.4,140C89.3,140.1,89.3,140.4,89.4,140z"/>
	<path class="st2" d="M95.1,130.8c3.1-0.7,5.9-2,8.1-3.3c2.8-1.3,5.1-3.2,6.6-5.7c0.2-0.6,0.1-1.3-0.2-2c-0.6-1.3-1.9-1.7-3.1-1.1
		c-1.9,1.4-3.7,3.3-5,5.5C99.3,126.5,97.1,128.5,95.1,130.8L95.1,130.8z"/>
	<path class="st2" d="M106.7,114c2.9-2.7,7-3.4,10.8-1.7c3.7,1.4,5-5,1.1-5.3C113.8,106.7,108.9,109.5,106.7,114L106.7,114z"/>
</g>
<g>
	<path class="st2" d="M135,70.3c1.5-1.3,3.3-2.3,5-3.3c1.7-1.1,2.8-2.3,4.5-3c1.5-0.9,1.9-2.8,0.9-4.1c-0.4-0.1-0.4-0.4-0.5-0.5
		c-1.1-1.1-3-1.1-4.1,0c-0.1,0.1-0.4,0.4-0.5,0.5c-0.8,1.9-1.9,3.6-2.8,5.3C136.6,66.9,135.8,68.8,135,70.3
		C134.9,70.3,134.9,70.6,135,70.3z"/>
	<path class="st2" d="M132.3,69.7C132.3,69.7,132.6,69.7,132.3,69.7c0.9-3.7,2.1-7.6,3.3-11.3c1.5-4.5-7.2-5-5.8,0
		C131,62.1,131.8,65.8,132.3,69.7z"/>
	<path class="st2" d="M121.3,63.6c1.5,0.9,3,2.3,4.5,3.3c1.5,1.1,3,2.3,4.4,3.3c0,0,0.1,0,0.1-0.1c-0.9-1.7-1.5-3.3-2.3-5
		c-0.8-1.7-1.7-3.2-2.4-4.9c-0.4-1.5-2.1-2.4-3.7-2.1c-1.5,0.4-2.4,2.1-2.1,3.7C120.1,62.5,120.5,63.3,121.3,63.6z"/>
	<path class="st2" d="M117.2,73.3c4-0.4,7.8-0.5,11.8-0.5v-0.1c-3.3-1.5-6.9-3.2-10.1-4.9C114.2,64.9,112.7,73.5,117.2,73.3z"/>
	<path class="st2" d="M123.7,76.4c-1.9,0.5-3.7,1.1-5.6,1.5c-4.6,0.8-0.8,8.9,2.8,5c1.3-1.3,2.8-2.6,4.4-4s2.8-2.6,4.4-4v-0.1
		C127.4,75.5,125.6,75.8,123.7,76.4z"/>
	<path class="st2" d="M130,87.7c0.1-3.7,0.8-7.6,1.5-11 M131.3,76.6c-2.1,3.2-4.1,6.2-6.6,9c-3.6,4.4,4.6,7.6,5,2.1L131.3,76.6z"/>
	<path class="st2" d="M140.3,86.4c-2.4-3-4.5-6.4-6.4-9.8h-0.1c0.5,3.7,0.8,7.6,0.9,11.3C134.6,93.3,142.9,90.2,140.3,86.4z"/>
	<path class="st2" d="M146.6,78.4c-1.9-0.4-3.7-1.1-5.4-1.7c-1.7-0.5-3.7-1.1-5.4-1.7c0,0-0.1,0,0,0.1c1.5,1.3,2.6,2.8,4.1,4.1
		c1.5,1.3,2.8,2.6,4.1,4.1C147,87,151.7,79.6,146.6,78.4z"/>
	<path class="st2" d="M146.4,68.1c-3.3,1.7-6.8,3-10.3,4.4v0.1c3.7,0.1,7.3,0.5,11,1.1C152.6,74.6,151.3,65.8,146.4,68.1z"/>
	<path class="st2" d="M131.7,71.1h-0.4c-1.1,0.4-1.7,1.5-1.3,2.6c0.1,0.5,0.8,1.1,1.3,1.3h0.4c1.1,0.4,2.3-0.4,2.6-1.5
		c0.4-1.1-0.4-2.3-1.5-2.6C132.3,71,131.9,71,131.7,71.1L131.7,71.1z"/>
</g>
<g>
	<path class="st2" d="M241.5,70.3c1.5-1.3,3.3-2.3,5-3.3c1.7-1.1,2.8-2.3,4.5-3c1.5-0.9,1.9-2.8,0.9-4.1c-0.4-0.1-0.4-0.4-0.5-0.5
		c-1.1-1.1-3-1.1-4.1,0c-0.1,0.1-0.4,0.4-0.5,0.5c-0.8,1.9-1.9,3.6-2.8,5.3C243.1,66.9,242.3,68.8,241.5,70.3
		C241.4,70.3,241.4,70.6,241.5,70.3z"/>
	<path class="st2" d="M238.8,69.7C238.8,69.7,239.1,69.7,238.8,69.7c0.9-3.7,2.1-7.6,3.3-11.3c1.5-4.5-7.2-5-5.8,0
		C237.5,62.1,238.3,65.8,238.8,69.7z"/>
	<path class="st2" d="M227.8,63.6c1.5,0.9,3,2.3,4.5,3.3c1.5,1.1,3,2.3,4.4,3.3c0,0,0.1,0,0.1-0.1c-0.9-1.7-1.5-3.3-2.3-5
		s-1.7-3.2-2.4-4.9c-0.4-1.5-2.1-2.4-3.7-2.1c-1.5,0.4-2.4,2.1-2.1,3.7C226.6,62.5,227,63.3,227.8,63.6z"/>
	<path class="st2" d="M223.7,73.3c4-0.4,7.8-0.5,11.8-0.5v-0.1c-3.3-1.5-6.9-3.2-10.1-4.9C220.7,64.9,219.2,73.5,223.7,73.3z"/>
	<path class="st2" d="M230.2,76.4c-1.9,0.5-3.7,1.1-5.6,1.5c-4.6,0.8-0.8,8.9,2.8,5c1.3-1.3,2.8-2.6,4.4-4c1.6-1.3,2.8-2.6,4.4-4
		v-0.1C233.9,75.5,232.1,75.8,230.2,76.4z"/>
	<path class="st2" d="M236.5,87.7c0.1-3.7,0.8-7.6,1.5-11 M237.8,76.6c-2.1,3.2-4.1,6.2-6.6,9c-3.6,4.4,4.6,7.6,5,2.1L237.8,76.6z"
		/>
	<path class="st2" d="M246.8,86.4c-2.4-3-4.5-6.4-6.4-9.8h-0.1c0.5,3.7,0.8,7.6,0.9,11.3C241.1,93.3,249.4,90.2,246.8,86.4z"/>
	<path class="st2" d="M253.1,78.4c-1.9-0.4-3.7-1.1-5.4-1.7c-1.7-0.5-3.7-1.1-5.4-1.7c0,0-0.1,0,0,0.1c1.5,1.3,2.6,2.8,4.1,4.1
		c1.5,1.3,2.8,2.6,4.1,4.1C253.5,87,258.2,79.6,253.1,78.4z"/>
	<path class="st2" d="M252.9,68.1c-3.3,1.7-6.8,3-10.3,4.4v0.1c3.7,0.1,7.3,0.5,11,1.1C259.1,74.6,257.8,65.8,252.9,68.1z"/>
	<path class="st2" d="M238.2,71.1h-0.4c-1.1,0.4-1.7,1.5-1.3,2.6c0.1,0.5,0.8,1.1,1.3,1.3h0.4c1.1,0.4,2.3-0.4,2.6-1.5
		c0.4-1.1-0.4-2.3-1.5-2.6C238.8,71,238.4,71,238.2,71.1L238.2,71.1z"/>
</g>
<path class="st3" d="M265.6,375.4V205.9c0-47.9-79.6-101.3-79.6-101.3l0,0c0,0-79.6,53.4-79.6,101.3v169.5"/>
</svg>
