<svg xmlns="http://www.w3.org/2000/svg" viewBox="0 0 262.69 96.64"><defs><style>.a{fill:#e7e9f6;}</style></defs><path class="a" d="M135.39,52.8c0,4.55-2.53,7.79-7.86,7.79-5.65,0-8-3.05-8-7.6V25.19H108V52.6c0,10.85,6.49,17.21,19.48,17.21s19.35-6.49,19.35-17.21V25.2h-11.5V52.8Zm37.55-18a11.66,11.66,0,0,0-10.26,5.52h-.2V35.72h-10.2V69h10.59V50.6c0-4.09,2.34-7,5.84-7s5.2,2.4,5.2,5.91V69H184.5V47.35C184.5,40,180.21,34.75,172.94,34.75Zm27.59-12.21H189.94v8.58h10.59Zm0,13.18H189.94V69h10.59ZM219.18,25.2H208.85V35.72h-4.42V44.3h4.42V60.21c0,7.14,4.42,9.16,10.59,9.16a24.39,24.39,0,0,0,5.78-.52V61.12c-.39,0-1.43.07-2.34.07-2.27,0-3.7-.65-3.7-3.25V44.3h6V35.72h-6Zm28.58,24.68c-1,3.25-1.95,7.66-1.95,7.66h-.13s-1-4.42-2.08-7.66l-4.48-14.16H228l9.81,25.59c1.36,3.51,2,5.46,2,6.88,0,2.27-1.23,3.51-4.35,3.51h-3.64V80h6.88c6.69,0,9.87-2.73,12.53-10.52l11.5-33.71H252.1ZM46.52,17.29l15.3,8.83a.86.86,0,0,1,0,1.48L43.64,38.1a1.69,1.69,0,0,1-1.71,0L23.75,27.6a.86.86,0,0,1,0-1.48L39,17.29V0L0,22.54V67.62L15,59V41.32a.86.86,0,0,1,1.28-.74l18.18,10.5a1.71,1.71,0,0,1,.86,1.48v21a.86.86,0,0,1-1.28.74l-15.3-8.83-15,8.64,39,22.54,39-22.54-15-8.64-15.3,8.83a.86.86,0,0,1-1.28-.74v-21a1.71,1.71,0,0,1,.86-1.48l18.18-10.5a.86.86,0,0,1,1.28.74V59l15,8.64V22.54L46.52,0Z"/></svg>